<svg width="27" height="27" viewBox="0 0 27 27" fill="none" xmlns="http://www.w3.org/2000/svg">
<path d="M25.648 1.35208C25.3721 1.07816 25.026 0.885588 24.6478 0.795541C24.2696 0.705494 23.8739 0.721452 23.5042 0.841661L2.16879 7.95833C1.7731 8.08371 1.42344 8.32354 1.16398 8.64753C0.904514 8.97151 0.746882 9.36513 0.710992 9.77865C0.675101 10.1922 0.762561 10.6071 0.962327 10.9709C1.16209 11.3347 1.4652 11.6312 1.83337 11.8229L10.6855 16.1979L15.0605 25.0792C15.2363 25.4268 15.5054 25.7187 15.8376 25.9221C16.1699 26.1256 16.5521 26.2326 16.9417 26.2312H17.0875C17.5048 26.2005 17.9031 26.045 18.2308 25.7849C18.5585 25.5249 18.8004 25.1723 18.925 24.7729L26.1438 3.49583C26.2727 3.12823 26.2945 2.73158 26.2067 2.35205C26.119 1.97253 25.9252 1.62574 25.648 1.35208ZM3.07296 9.97083L21.6959 3.75833L11.3563 14.0979L3.07296 9.97083ZM17.0438 23.9271L12.9021 15.6437L23.2417 5.30416L17.0438 23.9271Z" fill="#A06242"/>
</svg>
