<svg width="31" height="40" viewBox="0 0 31 40" fill="none" xmlns="http://www.w3.org/2000/svg">
<path fill-rule="evenodd" clip-rule="evenodd" d="M15.9631 36.3169C18.1196 34.3601 20.1154 32.2333 21.9313 29.9569C25.7563 25.1512 28.0831 20.4131 28.2406 16.2C28.3029 14.4877 28.0195 12.7805 27.4073 11.1802C26.795 9.57994 25.8665 8.11949 24.6772 6.8861C23.4879 5.65271 22.0622 4.67169 20.4852 4.00163C18.9083 3.33157 17.2125 2.98623 15.4991 2.98623C13.7857 2.98623 12.0899 3.33157 10.5129 4.00163C8.93597 4.67169 7.51026 5.65271 6.32095 6.8861C5.13163 8.11949 4.20312 9.57994 3.59086 11.1802C2.97861 12.7805 2.69518 14.4877 2.7575 16.2C2.91687 20.4131 5.24562 25.1512 9.06875 29.9569C10.8846 32.2333 12.8804 34.3601 15.0369 36.3169C15.2444 36.5044 15.3988 36.6406 15.5 36.7256L15.9631 36.3169ZM14.1163 38.5013C14.1163 38.5013 0.5 27.0338 0.5 15.75C0.5 11.7718 2.08035 7.95644 4.8934 5.1434C7.70644 2.33035 11.5218 0.75 15.5 0.75C19.4782 0.75 23.2936 2.33035 26.1066 5.1434C28.9196 7.95644 30.5 11.7718 30.5 15.75C30.5 27.0338 16.8837 38.5013 16.8837 38.5013C16.1263 39.1988 14.8794 39.1912 14.1163 38.5013ZM15.5 21C16.8924 21 18.2277 20.4469 19.2123 19.4623C20.1969 18.4777 20.75 17.1424 20.75 15.75C20.75 14.3576 20.1969 13.0223 19.2123 12.0377C18.2277 11.0531 16.8924 10.5 15.5 10.5C14.1076 10.5 12.7723 11.0531 11.7877 12.0377C10.8031 13.0223 10.25 14.3576 10.25 15.75C10.25 17.1424 10.8031 18.4777 11.7877 19.4623C12.7723 20.4469 14.1076 21 15.5 21ZM15.5 23.25C13.5109 23.25 11.6032 22.4598 10.1967 21.0533C8.79018 19.6468 8 17.7391 8 15.75C8 13.7609 8.79018 11.8532 10.1967 10.4467C11.6032 9.04018 13.5109 8.25 15.5 8.25C17.4891 8.25 19.3968 9.04018 20.8033 10.4467C22.2098 11.8532 23 13.7609 23 15.75C23 17.7391 22.2098 19.6468 20.8033 21.0533C19.3968 22.4598 17.4891 23.25 15.5 23.25Z" fill="#A06242"/>
</svg>
