<svg width="24" height="30" viewBox="0 0 24 30" fill="none" xmlns="http://www.w3.org/2000/svg">
<path d="M3.12329 8.50183C2.70657 5.75214 4.64688 3.27808 7.61094 2.37027C8.13722 2.20919 8.70513 2.25496 9.19882 2.49825C9.69251 2.74154 10.0748 3.16401 10.2677 3.67949L11.2181 6.21699C11.3709 6.62516 11.3983 7.06968 11.2968 7.49354C11.1953 7.91739 10.9695 8.30125 10.6483 8.59589L7.82094 11.1892C7.68124 11.3171 7.57715 11.4791 7.51886 11.6593C7.46058 11.8395 7.45009 12.0318 7.48844 12.2173L7.5136 12.331L7.5836 12.6165C7.64594 12.8571 7.74 13.1962 7.87235 13.6009C8.13485 14.4048 8.55375 15.4854 9.17719 16.565C9.80063 17.6445 10.5269 18.5479 11.0913 19.1768C11.3854 19.5041 11.6927 19.8193 12.0122 20.1218L12.0997 20.2028C12.2411 20.328 12.4126 20.4145 12.5973 20.4538C12.7821 20.4931 12.9739 20.4839 13.1541 20.427L16.8138 19.2753C17.2296 19.1446 17.6749 19.1411 18.0927 19.2652C18.5106 19.3893 18.8818 19.6354 19.1588 19.972L20.8902 22.0742C21.612 22.9492 21.5267 24.2354 20.6966 25.0087C18.4281 27.1229 15.3088 27.5571 13.1388 25.8115C10.4795 23.6656 8.23731 21.0493 6.52375 18.0929C4.79762 15.1376 3.64399 11.8845 3.12329 8.50183ZM9.77985 12.3606L12.127 10.2081C12.7694 9.6188 13.221 8.85108 13.4241 8.00337C13.6271 7.15566 13.5724 6.26662 13.2667 5.45027L12.3152 2.91277C11.927 1.87603 11.158 1.02637 10.165 0.53699C9.172 0.0476088 8.02976 -0.0446516 6.9711 0.279016C3.29063 1.40667 0.335316 4.70652 0.960941 8.82886C1.52254 12.4841 2.7682 16.0006 4.63266 19.1943C6.48087 22.3824 8.89921 25.2038 11.7672 27.5178C15.0211 30.1318 19.3677 29.2404 22.1884 26.61C22.996 25.858 23.4861 24.8261 23.5587 23.725C23.6313 22.6239 23.2808 21.5366 22.5789 20.6851L20.8475 18.5829C20.2935 17.9096 19.5509 17.4173 18.715 17.169C17.8792 16.9207 16.9882 16.9278 16.1564 17.1895L13.1191 18.1454C12.9831 18.0056 12.85 17.863 12.7198 17.7178C12.0954 17.0273 11.5431 16.275 11.0716 15.4723C10.612 14.6625 10.2363 13.8078 9.95047 12.9217C9.88976 12.7362 9.83287 12.5495 9.77985 12.3617" fill="#A06242"/>
</svg>
