<svg width="64" height="64" viewBox="0 0 64 64" fill="none" xmlns="http://www.w3.org/2000/svg">
<g clip-path="url(#clip0_547_3867)">
<path d="M32.1069 22.3281C32.9878 22.3281 33.7012 21.6143 33.7012 20.7339C33.7012 19.8535 32.9878 19.1396 32.1069 19.1396C25.0635 19.1396 19.3535 24.8496 19.3535 31.8935C19.3535 38.937 25.0635 44.6469 32.1069 44.6469C39.1509 44.6469 44.8608 38.937 44.8608 31.8935C44.8608 31.0127 44.1469 30.2993 43.2666 30.2993C42.3862 30.2993 41.6723 31.0127 41.6723 31.8935C41.6723 37.1762 37.3901 41.459 32.1069 41.459C26.8242 41.459 22.5415 37.1762 22.5415 31.8935C22.5415 26.6103 26.8242 22.3281 32.1069 22.3281Z" fill="white"/>
<path d="M62.5248 22.4243C62.248 21.5879 61.3456 21.1343 60.5087 21.4111C59.6913 21.6816 59.2362 22.5518 59.4799 23.3774C64.2475 38.5595 55.8051 54.7319 40.623 59.4995C25.4414 64.267 9.26901 55.8247 4.50144 40.6425C-0.266617 25.4604 8.17624 9.2881 23.3579 4.52053C28.978 2.75588 35.0034 2.75588 40.623 4.52053C41.4667 4.77492 42.3569 4.29738 42.6113 3.45363C42.8617 2.62258 42.4023 1.74416 41.5766 1.47561C24.7187 -3.81345 6.76462 5.56496 1.47557 22.4233C-3.81349 39.2812 5.56541 57.2353 22.4233 62.5244C39.2817 67.8134 57.2353 58.435 62.5243 41.5766C64.4804 35.3423 64.4804 28.6587 62.5248 22.4243Z" fill="white"/>
<path d="M35.144 11.3896C35.1523 10.4819 34.455 9.72314 33.5498 9.65527C33.0737 9.61475 32.5971 9.57422 32.1084 9.57422C19.7817 9.57422 9.78906 19.5669 9.78906 31.8935C9.78906 44.2197 19.7817 54.2123 32.1084 54.2123C44.4345 54.2123 54.4272 44.2197 54.4272 31.8935C54.4272 31.3169 54.392 30.7407 54.3212 30.1684C54.1938 29.2934 53.3813 28.6875 52.5063 28.8149C51.6313 28.9419 51.0253 29.7549 51.1523 30.6299C51.1572 30.6631 51.163 30.6958 51.1699 30.729C51.2045 31.1152 51.2387 31.498 51.2387 31.8925C51.2392 42.4585 42.6743 51.0234 32.1089 51.0244C21.543 51.0248 12.978 42.4594 12.9775 31.894C12.977 21.3286 21.5415 12.7632 32.1074 12.7627H32.1079C32.5034 12.7627 32.8867 12.7969 33.2719 12.8311L33.5708 12.856C34.4038 12.8916 35.1079 12.2451 35.143 11.4121C35.1435 11.4043 35.1435 11.397 35.144 11.3896Z" fill="white"/>
<path d="M41.6732 14.3569V20.0737L30.9808 30.7661C30.3475 31.3779 30.33 32.3872 30.9418 33.0205C31.5536 33.6538 32.5629 33.6713 33.1962 33.0595C33.2093 33.0468 33.2225 33.0337 33.2352 33.0205L43.9276 22.3281H49.6444C50.0672 22.3281 50.4725 22.1601 50.7718 21.8608L60.3368 12.2954C60.9593 11.6728 60.9593 10.6636 60.3368 10.041C60.0379 9.74218 59.6327 9.57421 59.2098 9.57421H54.4271V4.7915C54.4271 3.91113 53.7132 3.19727 52.8324 3.19775C52.41 3.19775 52.0047 3.36572 51.7059 3.66455L42.1405 13.23C41.8412 13.5288 41.6732 13.9341 41.6732 14.3569ZM44.8617 15.0171L51.2386 8.64013V11.1684C51.2386 12.0488 51.9525 12.7627 52.8329 12.7627H55.3612L48.9842 19.1396H44.8617V15.0171Z" fill="white"/>
</g>
<defs>
<clipPath id="clip0_547_3867">
<rect width="64" height="64" fill="white"/>
</clipPath>
</defs>
</svg>
