<svg width="119" height="149" viewBox="0 0 119 149" fill="none" xmlns="http://www.w3.org/2000/svg">
<circle cx="62.5" cy="73.5" r="45" stroke="#1DA9E1"/>
<g clip-path="url(#clip0_272_2286)">
<path d="M70.2515 99C70.2075 99 70.1779 98.9991 70.1624 98.9991H67.4688C67.1396 98.9991 66.8733 98.7335 66.8733 98.4064C66.8733 98.0793 67.14 97.8138 67.4688 97.8138H70.1687C70.1721 97.8138 70.1765 97.8138 70.1799 97.8138C70.2205 97.8138 74.2804 97.8647 78.5732 95.8159C84.2878 93.0893 87.7028 88.1152 88.7229 81.0327C89.6267 74.7665 90.3205 70.1705 90.7862 67.3712C90.8593 66.9301 90.7218 66.4943 90.4066 66.1743C90.0924 65.8549 89.6562 65.7068 89.2109 65.7698C88.6798 65.8443 88.2455 66.2056 88.0785 66.7117L86.2921 72.1211C86.0142 72.963 85.1984 73.5287 84.3067 73.4989C83.2169 73.4618 82.3614 72.5844 82.36 71.5001L82.344 54.4169C82.344 53.5534 81.6372 52.8496 80.7677 52.8496C79.8982 52.8496 79.1914 53.5529 79.1914 54.4169L79.1701 69.4051C79.1691 69.7322 78.9024 69.9973 78.5736 69.9973H78.5727C78.2435 69.9973 77.9762 69.7313 77.9772 69.4037L77.9985 54.4164C77.9985 52.8992 79.2413 51.6653 80.7682 51.6653C82.2951 51.6653 83.5374 52.8992 83.5374 54.4169L83.5534 71.4987C83.5543 71.9407 83.9029 72.2996 84.3478 72.3145C84.7104 72.3275 85.0454 72.0961 85.1592 71.7522L86.9447 66.3432C87.2545 65.4047 88.0586 64.7355 89.0433 64.596C89.8693 64.4801 90.6768 64.7533 91.2602 65.346C91.8435 65.9386 92.0996 66.7482 91.9636 67.5656C91.4983 70.3562 90.8056 74.9444 89.9036 81.2015C89.3096 85.3251 87.9027 88.8291 85.7208 91.6183C83.9707 93.8566 81.7243 95.636 79.0447 96.9065C74.8217 98.9091 70.9206 99 70.2515 99Z" fill="#EA4A38"/>
<path d="M78.5984 70.017C78.2683 70.017 78.002 69.751 78.002 69.4238V49.7521C78.002 48.8881 77.2952 48.1848 76.4247 48.1848C75.5562 48.1848 74.8484 48.8881 74.8484 49.7521V69.4243C74.8484 69.7514 74.5817 70.0175 74.2524 70.0175C73.9223 70.0175 73.656 69.7514 73.656 69.4243V49.7521C73.656 48.2339 74.8978 47 76.4242 47C77.9521 47 79.1949 48.2339 79.1949 49.7521V69.4243C79.1949 69.7514 78.9277 70.017 78.5984 70.017Z" fill="#EA4A38"/>
<path d="M69.8774 70.7646C69.8774 70.7646 69.8774 70.7646 69.8765 70.7646C69.5473 70.7636 69.2805 70.4986 69.2805 70.171L69.3009 53.7117C69.3009 52.1945 70.5436 50.9606 72.0705 50.9606C73.5975 50.9606 74.8397 52.1945 74.8397 53.7127L74.8731 69.4148C74.8731 69.7419 74.6064 70.0084 74.2777 70.0084H74.2767C73.9475 70.0084 73.6812 69.7443 73.6802 69.4172L73.6468 53.7132C73.6468 52.8487 72.94 52.1454 72.0705 52.1454C71.201 52.1454 70.4942 52.8487 70.4942 53.7127L70.4739 70.1724C70.4744 70.4995 70.2066 70.7646 69.8774 70.7646Z" fill="#EA4A38"/>
<path d="M65.5396 75.1455C65.2104 75.1455 64.9431 74.8795 64.9436 74.5529L64.9489 61.105C64.9489 59.5878 66.1917 58.3539 67.7186 58.3539C69.2455 58.3539 70.4883 59.5878 70.4883 61.106L70.4743 70.1719C70.4733 70.4991 70.2065 70.7641 69.8778 70.7641C69.8778 70.7641 69.8778 70.7641 69.8768 70.7641C69.5476 70.7631 69.2809 70.4976 69.2809 70.1705L69.2949 61.105C69.2949 60.242 68.5881 59.5397 67.7186 59.5397C66.8491 59.5397 66.1423 60.242 66.1423 61.106L66.1365 74.5529C66.136 74.881 65.8697 75.1455 65.5396 75.1455Z" fill="#EA4A38"/>
<path d="M56.7483 99C56.0792 99 52.1791 98.9086 47.9542 96.9055C45.275 95.635 43.0287 93.8556 41.2785 91.6173C39.0966 88.8286 37.6897 85.3241 37.0957 81.2005C36.1938 74.9468 35.501 70.3585 35.0357 67.5646C34.8997 66.7473 35.1558 65.9377 35.7392 65.345C36.3225 64.7523 37.1301 64.4796 37.9565 64.595C38.9402 64.7345 39.7453 65.4037 40.0552 66.3422L41.8406 71.7512C41.9544 72.0951 42.2889 72.3265 42.652 72.3135C43.0969 72.2986 43.4455 71.9398 43.4465 71.4977L43.4624 54.4155C43.4624 52.8982 44.7052 51.6643 46.2321 51.6643C47.7591 51.6643 49.0018 52.8982 49.0018 54.4159L49.0231 69.4027C49.0231 69.7308 48.7563 69.9963 48.4271 69.9963H48.4262C48.097 69.9963 47.8302 69.7312 47.8292 69.4041L47.8079 54.4169C47.8079 53.5524 47.1011 52.8487 46.2316 52.8487C45.3621 52.8487 44.6553 53.552 44.6553 54.4159L44.6393 71.4991C44.6374 72.5834 43.7824 73.4609 42.6922 73.4979C41.799 73.5287 40.9852 72.962 40.7073 72.1202L38.9209 66.7107C38.7543 66.2046 38.3201 65.8434 37.7885 65.7688C37.3426 65.7058 36.9069 65.853 36.5927 66.1734C36.2775 66.4933 36.14 66.9291 36.2131 67.3702C36.6798 70.1733 37.3736 74.7703 38.2765 81.0317C39.297 88.1138 42.7116 93.0883 48.4262 95.8149C52.7189 97.8633 56.7798 97.8137 56.8195 97.8128C56.8229 97.8128 56.8277 97.8128 56.8311 97.8128C60.7327 97.8128 64.4052 96.308 67.173 93.5761L73.1752 87.651C75.5053 85.3362 75.5053 81.5657 73.1732 79.2489C72.0443 78.1271 70.5425 77.5089 68.9449 77.5089C67.3482 77.5089 65.846 78.1271 64.7175 79.2489L63.9216 80.0398C63.8093 80.1509 63.6577 80.2134 63.4999 80.2134C63.3416 80.2134 63.1901 80.1509 63.0782 80.0398L62.2828 79.2489C59.9508 76.9317 56.1567 76.9326 53.8261 79.2489C51.4941 81.5657 51.4941 85.3362 53.8261 87.6519L60.6165 94.4002C60.8498 94.6316 60.8498 95.0058 60.6165 95.2386C60.3836 95.4696 60.006 95.4696 59.7726 95.2386L52.9823 88.4914C50.1855 85.7128 50.1855 81.1904 52.9823 78.4114C55.7786 75.6328 60.3299 75.6328 63.1262 78.4114L63.5004 78.7832L63.8746 78.4114C65.2292 77.0654 67.0297 76.3241 68.9458 76.3241C70.862 76.3241 72.6634 77.0654 74.018 78.4114C76.8148 81.1904 76.8148 85.7128 74.018 88.4914L68.0139 94.418C65.023 97.3712 61.0536 98.9976 56.8379 98.999C56.8214 98.999 56.7924 99 56.7483 99Z" fill="#EA4A38"/>
<path d="M52.7476 70.017C52.4184 70.017 52.1521 69.751 52.1521 69.4238V49.7521C52.1521 48.8881 51.4444 48.1848 50.5758 48.1848C49.7059 48.1848 48.9985 48.8881 48.9985 49.7521V69.4243C48.9985 69.7514 48.7318 70.0175 48.4021 70.0175C48.0729 70.0175 47.8057 69.7514 47.8057 69.4243V49.7521C47.8052 48.2339 49.0474 47 50.5753 47C52.1023 47 53.3441 48.2339 53.3441 49.7521V69.4243C53.3441 69.7514 53.0773 70.017 52.7476 70.017Z" fill="#EA4A38"/>
<path d="M57.1226 70.7646C56.7934 70.7646 56.5267 70.4995 56.5262 70.1724L56.5059 53.7132C56.5059 52.8487 55.799 52.1454 54.9295 52.1454C54.0601 52.1454 53.3532 52.8487 53.3532 53.7127L53.3193 69.4172C53.3184 69.7433 53.0521 70.0084 52.7229 70.0084C52.7229 70.0084 52.7229 70.0084 52.7219 70.0084C52.3927 70.0084 52.126 69.7414 52.126 69.4148L52.1594 53.7108C52.1594 52.1945 53.4021 50.9606 54.9291 50.9606C56.456 50.9606 57.6987 52.1945 57.6987 53.7127L57.7191 70.1705C57.7191 70.4986 57.4523 70.7632 57.1231 70.7641C57.1226 70.7646 57.1226 70.7646 57.1226 70.7646Z" fill="#EA4A38"/>
<path d="M61.4605 75.1455C61.1303 75.1455 60.864 74.8805 60.864 74.5529L60.8577 61.106C60.8577 60.242 60.1509 59.5397 59.2814 59.5397C58.4119 59.5397 57.7051 60.242 57.7051 61.106L57.7191 70.1705C57.7191 70.4976 57.4524 70.7631 57.1232 70.7641H57.1222C56.793 70.7641 56.5262 70.4991 56.5258 70.1719L56.5117 61.1065C56.5117 59.5878 57.7545 58.3539 59.2814 58.3539C60.8083 58.3539 62.0506 59.5878 62.0506 61.106L62.0559 74.5529C62.0569 74.88 61.7897 75.1455 61.4605 75.1455Z" fill="#EA4A38"/>
</g>
<path d="M11.9729 20.6073L18.5279 29.6295L17.35 30.4853L14.3781 26.3949L9.78293 29.7335L12.7548 33.8239L11.5768 34.6797L5.02186 25.6575L6.19979 24.8017L9.07759 28.7627L13.6728 25.4241L10.795 21.4631L11.9729 20.6073Z" fill="#771D1D"/>
<path d="M17.8042 25.6075C17.3679 24.8249 17.1445 24.0518 17.134 23.2883C17.1184 22.5154 17.2945 21.8127 17.6624 21.1802C18.0396 20.5424 18.5683 20.034 19.2484 19.6548C19.9192 19.2809 20.582 19.1006 21.2368 19.1142C21.8916 19.1277 22.4621 19.2859 22.9485 19.5887L22.1694 18.1912L23.4551 17.4744L27.7246 25.1327L26.4389 25.8495L25.6442 24.424C25.642 25.0115 25.4724 25.5945 25.1355 26.1731C24.8028 26.7372 24.3056 27.2037 23.6441 27.5724C22.964 27.9516 22.2556 28.1267 21.519 28.0978C20.7823 28.0688 20.0868 27.8398 19.4324 27.4109C18.778 26.9819 18.2353 26.3807 17.8042 25.6075ZM24.2963 22.0064C23.9743 21.4287 23.5774 20.9906 23.1055 20.6919C22.6337 20.3931 22.1351 20.2437 21.6099 20.2434C21.0887 20.2286 20.5906 20.3537 20.1154 20.6186C19.6403 20.8835 19.2694 21.2368 19.0027 21.6786C18.7361 22.1203 18.6058 22.6204 18.6118 23.1788C18.6178 23.7372 18.7818 24.3053 19.1038 24.8829C19.4311 25.4698 19.8332 25.9173 20.3102 26.2254C20.7821 26.5241 21.2786 26.6808 21.7997 26.6956C22.3157 26.701 22.8112 26.5713 23.2864 26.3064C23.7615 26.0415 24.1324 25.6882 24.3991 25.2464C24.6698 24.7902 24.8022 24.2828 24.7962 23.7244C24.785 23.1567 24.6184 22.584 24.2963 22.0064Z" fill="#771D1D"/>
<path d="M30.2203 15.0117C31.2063 14.6049 32.1291 14.5761 32.9886 14.9254C33.844 15.2648 34.5036 15.9965 34.9674 17.1206L36.9384 21.898L35.6072 22.4472L33.7155 17.8621C33.382 17.0535 32.9256 16.5206 32.3464 16.2634C31.7631 15.9964 31.1214 16.0072 30.4213 16.2961C29.7114 16.589 29.2359 17.0447 28.995 17.6634C28.7639 18.278 28.8233 19.0093 29.1731 19.8573L31.0221 24.3388L29.6761 24.8941L26.3322 16.7888L27.6781 16.2335L28.1541 17.3872C28.2495 16.8632 28.4772 16.3943 28.8372 15.9804C29.207 15.5624 29.6681 15.2395 30.2203 15.0117Z" fill="#771D1D"/>
<path d="M37.161 17.7296C36.9138 16.8683 36.8719 16.0647 37.0351 15.3187C37.1954 14.5625 37.5265 13.9182 38.0284 13.3857C38.5406 12.8503 39.176 12.4738 39.9347 12.256C40.5909 12.0677 41.2451 12.0464 41.8972 12.1922C42.5465 12.3276 43.0904 12.5988 43.529 13.0056L42.249 8.54564L43.6639 8.13957L46.93 19.5202L45.5151 19.9262L45.0605 18.3422C44.9279 18.924 44.6369 19.4569 44.1877 19.941C43.7355 20.4148 43.1455 20.7561 42.4175 20.965C41.6691 21.1798 40.9343 21.191 40.2132 20.9984C39.5023 20.8029 38.877 20.422 38.3371 19.8556C37.7973 19.2892 37.4052 18.5805 37.161 17.7296ZM44.3014 15.697C44.1189 15.0613 43.8319 14.5444 43.4402 14.1463C43.0485 13.7483 42.5969 13.4895 42.0855 13.3699C41.5813 13.2372 41.0677 13.2459 40.5448 13.3959C40.022 13.546 39.5805 13.8059 39.2205 14.1755C38.8605 14.5452 38.62 15.0026 38.4991 15.5478C38.3781 16.093 38.4088 16.6834 38.5913 17.3191C38.7767 17.965 39.0667 18.4921 39.4613 18.9004C39.8529 19.2985 40.3009 19.5639 40.805 19.6966C41.3063 19.8191 41.8184 19.8053 42.3412 19.6553C42.8641 19.5052 43.3056 19.2453 43.6656 18.8757C44.0329 18.4928 44.277 18.0288 44.398 17.4836C44.516 16.9282 44.4838 16.3326 44.3014 15.697Z" fill="#771D1D"/>
<path d="M52.4942 13.6622C52.3777 12.5804 52.5172 11.5838 52.9126 10.6722C53.3069 9.75009 53.8966 9 54.682 8.42198C55.4779 7.84281 56.3902 7.49787 57.4189 7.38714C58.628 7.25702 59.7146 7.43509 60.6788 7.92136C61.6431 8.40764 62.3896 9.16409 62.9185 10.1907L61.1845 10.3773C60.8051 9.74231 60.3043 9.27589 59.6822 8.97808C59.0707 8.67914 58.3619 8.57304 57.5559 8.65979C56.7817 8.74312 56.1065 8.99818 55.5302 9.42497C54.9539 9.85176 54.5267 10.4181 54.2486 11.1239C53.9694 11.8191 53.8777 12.6121 53.9736 13.503C54.0684 14.3832 54.3267 15.1386 54.7486 15.769C55.1693 16.3889 55.7067 16.846 56.3606 17.1404C57.0145 17.4348 57.7286 17.5403 58.5028 17.457C59.3088 17.3702 59.9793 17.121 60.5143 16.7094C61.0588 16.2861 61.4489 15.7238 61.6845 15.0225L63.4185 14.8359C63.119 15.9409 62.55 16.8336 61.7113 17.514C60.8715 18.1837 59.847 18.5836 58.638 18.7137C57.6093 18.8245 56.645 18.6868 55.7452 18.3009C54.8549 17.9032 54.1196 17.3011 53.5393 16.4946C52.959 15.6881 52.6106 14.7439 52.4942 13.6622Z" fill="#771D1D"/>
<path d="M66.7357 11.5395C67.004 11.0446 67.3762 10.6643 67.8522 10.3987C68.3389 10.1333 68.9235 10.009 69.606 10.0259L69.5688 11.5294L69.185 11.52C67.5534 11.4796 66.7158 12.3445 66.6721 14.1147L66.5543 18.8812L65.0988 18.8453L65.3153 10.0799L66.7709 10.1159L66.7357 11.5395Z" fill="#771D1D"/>
<path d="M71.1495 14.8574C71.2352 13.9655 71.4908 13.2025 71.9161 12.5682C72.3424 11.9234 72.8866 11.4453 73.5488 11.1339C74.2216 10.8235 74.9455 10.7056 75.7206 10.7801C76.4851 10.8535 77.1329 11.0819 77.664 11.4652C78.1951 11.8484 78.5747 12.3028 78.8028 12.8284L78.9559 11.2357L80.4211 11.3765L79.5822 20.1043L78.1169 19.9635L78.2731 18.339C77.9374 18.8211 77.4666 19.2044 76.8606 19.4891C76.2662 19.7641 75.5921 19.8654 74.8382 19.793C74.0631 19.7185 73.3807 19.46 72.791 19.0175C72.2013 18.5751 71.7591 17.9914 71.4644 17.2666C71.1698 16.5417 71.0648 15.7387 71.1495 14.8574ZM78.5379 15.5837C78.6012 14.9254 78.5236 14.3393 78.3051 13.8253C78.0866 13.3114 77.7613 12.9051 77.3293 12.6064C76.9088 12.2981 76.4279 12.1179 75.8863 12.0658C75.3448 12.0138 74.8389 12.0937 74.3684 12.3057C73.898 12.5176 73.5066 12.8551 73.1942 13.318C72.8818 13.7809 72.694 14.3415 72.6307 14.9998C72.5664 15.6687 72.643 16.2654 72.8605 16.79C73.079 17.3039 73.3984 17.715 73.8188 18.0233C74.2403 18.321 74.7218 18.4959 75.2633 18.5479C75.8048 18.6 76.3107 18.52 76.7812 18.3081C77.2633 18.0865 77.6605 17.7443 77.9729 17.2814C78.2863 16.8079 78.4746 16.242 78.5379 15.5837Z" fill="#771D1D"/>
<path d="M86.4117 14.3751L84.6133 13.9859L83.0126 21.3827L81.5895 21.0747L83.1902 13.6779L82.0799 13.4376L82.3338 12.2648L83.444 12.5051L83.576 11.8952C83.7836 10.936 84.1798 10.2906 84.7645 9.95874C85.3619 9.61875 86.208 9.5672 87.3026 9.80409L87.0454 10.9926C86.4199 10.8572 85.9498 10.8864 85.635 11.0802C85.3329 11.2659 85.1209 11.6402 84.9991 12.2031L84.8671 12.813L86.6655 13.2022L86.4117 14.3751Z" fill="#771D1D"/>
<path d="M90.5219 15.6634L89.1059 20.6336C88.989 21.0439 88.9929 21.3611 89.1176 21.5852C89.2453 21.799 89.5245 21.9673 89.9554 22.0901L90.9864 22.3838L90.6488 23.5686L89.387 23.2092C88.6074 22.987 88.0738 22.6409 87.7862 22.1708C87.4987 21.7007 87.4718 21.0553 87.7057 20.2347L89.1216 15.2644L88.0291 14.9532L88.3579 13.7991L89.4504 14.1103L90.0554 11.9868L91.4557 12.3858L90.8507 14.5093L93.0512 15.1362L92.7224 16.2902L90.5219 15.6634Z" fill="#771D1D"/>
<path d="M101.616 22.6863C101.522 22.9471 101.407 23.2175 101.272 23.4974L94.682 21.1122C94.4381 21.9428 94.4834 22.6795 94.8179 23.3224C95.166 23.9589 95.7012 24.4079 96.4233 24.6693C97.0151 24.8835 97.5556 24.9259 98.0447 24.7967C98.5476 24.6611 98.9628 24.3917 99.2902 23.9884L100.765 24.522C100.257 25.2345 99.5817 25.7217 98.7382 25.9836C97.8983 26.2355 96.9869 26.1835 96.004 25.8277C95.2217 25.5445 94.5831 25.1149 94.0883 24.5387C93.6036 23.9662 93.3019 23.2955 93.1832 22.5265C93.0681 21.7475 93.1649 20.9318 93.4734 20.0792C93.782 19.2267 94.223 18.5412 94.7964 18.0227C95.3697 17.5042 96.024 17.1852 96.7593 17.0657C97.5082 16.9397 98.2839 17.0219 99.0863 17.3124C99.8686 17.5955 100.499 18.0165 100.977 18.5754C101.456 19.1342 101.746 19.7726 101.85 20.4906C101.966 21.2022 101.889 21.9341 101.616 22.6863ZM100.306 21.8886C100.494 21.367 100.541 20.8789 100.444 20.4243C100.351 19.9597 100.139 19.5595 99.8067 19.2237C99.4882 18.8815 99.0882 18.6233 98.6068 18.449C97.9147 18.1985 97.2431 18.205 96.5919 18.4684C95.9507 18.7355 95.4534 19.2474 95.1 20.0044L100.306 21.8886Z" fill="#771D1D"/>
<path d="M102.596 24.0182C102.991 23.2138 103.499 22.5898 104.121 22.1462C104.747 21.693 105.425 21.4374 106.154 21.3794C106.893 21.3261 107.617 21.4732 108.326 21.8209C108.939 22.1215 109.438 22.5447 109.824 23.0903C110.214 23.6264 110.435 24.1924 110.488 24.7883L112.531 20.6226L113.853 21.2708L108.638 31.9008L107.317 31.2525L108.043 29.7729C107.554 30.1153 106.98 30.3153 106.323 30.3727C105.669 30.4206 105.003 30.2778 104.323 29.9443C103.624 29.6013 103.072 29.1166 102.666 28.49C102.27 27.868 102.062 27.166 102.042 26.3838C102.022 25.6016 102.206 24.8131 102.596 24.0182ZM109.255 27.3022C109.546 26.7084 109.68 26.1326 109.656 25.5746C109.633 25.0167 109.472 24.5218 109.173 24.0899C108.888 23.6532 108.502 23.3151 108.013 23.0755C107.525 22.8359 107.023 22.7324 106.508 22.7649C105.993 22.7974 105.508 22.9752 105.052 23.2983C104.597 23.6214 104.224 24.0798 103.932 24.6735C103.636 25.2769 103.498 25.8623 103.516 26.4298C103.54 26.9878 103.694 27.4851 103.978 27.9218C104.268 28.349 104.657 28.6823 105.145 28.9219C105.634 29.1615 106.135 29.265 106.65 29.2325C107.179 29.1951 107.672 29.0148 108.127 28.6918C108.588 28.3591 108.963 27.8959 109.255 27.3022Z" fill="#771D1D"/>
<path d="M34.3729 128.024L26.4303 136.493L24.9761 135.752L26.7417 126.578L20.2716 133.355L18.8245 132.636L21.1147 121.269L22.4976 121.973L20.3716 131.503L27.0595 124.298L28.5136 125.039L26.5162 134.598L32.9758 127.312L34.3729 128.024Z" fill="#771D1D"/>
<path d="M38.9943 129.096C38.7277 129.019 38.5286 128.862 38.397 128.625C38.2653 128.388 38.2377 128.135 38.3141 127.869C38.3906 127.602 38.5475 127.403 38.785 127.272C39.0225 127.14 39.2745 127.112 39.5411 127.189C39.7975 127.262 39.9863 127.416 40.1077 127.651C40.2394 127.888 40.267 128.14 40.1905 128.407C40.1141 128.673 39.9572 128.873 39.7197 129.004C39.4925 129.139 39.2507 129.169 38.9943 129.096ZM39.2786 130.659L36.8622 139.087L35.4626 138.686L37.879 130.257L39.2786 130.659Z" fill="#771D1D"/>
<path d="M44.5495 133.084L43.4066 138.124C43.3123 138.54 43.3335 138.856 43.4702 139.073C43.6093 139.28 43.8973 139.433 44.3342 139.532L45.3797 139.769L45.1073 140.97L43.8277 140.68C43.0371 140.501 42.4855 140.184 42.1727 139.731C41.86 139.277 41.798 138.634 41.9867 137.802L43.1295 132.762L42.0216 132.511L42.287 131.34L43.3949 131.592L43.8832 129.438L45.3031 129.76L44.8148 131.913L47.0462 132.419L46.7808 133.59L44.5495 133.084Z" fill="#771D1D"/>
<path d="M54.7482 133.257C55.4027 133.352 55.973 133.581 56.4592 133.943C56.9469 134.294 57.2977 134.771 57.5117 135.374C57.7362 135.978 57.79 136.681 57.673 137.483L56.9273 142.597L55.5024 142.389L56.2181 137.481C56.3443 136.616 56.2241 135.924 55.8575 135.408C55.4925 134.88 54.9353 134.562 54.1859 134.452C53.4259 134.341 52.7844 134.49 52.2612 134.899C51.7487 135.31 51.4262 135.969 51.2938 136.876L50.5943 141.674L49.1535 141.464L50.862 129.747L52.3027 129.958L51.6794 134.232C52.029 133.831 52.4696 133.544 53.0011 133.374C53.5431 133.205 54.1255 133.166 54.7482 133.257Z" fill="#771D1D"/>
<path d="M69.7603 130.321L70.2913 142.149L68.8367 142.214L68.3058 130.386L69.7603 130.321Z" fill="#771D1D"/>
<path d="M78.4825 141.476C77.6653 141.559 76.9036 141.449 76.1974 141.145C75.5018 140.841 74.9285 140.368 74.4776 139.728C74.0362 139.075 73.7697 138.298 73.6782 137.396C73.5878 136.505 73.6992 135.7 74.0123 134.982C74.335 134.253 74.8123 133.674 75.4443 133.245C76.0752 132.806 76.8045 132.544 77.6323 132.46C78.46 132.376 79.227 132.486 79.9333 132.79C80.6385 133.083 81.2165 133.549 81.6674 134.19C82.129 134.829 82.4055 135.6 82.497 136.502C82.5885 137.404 82.4676 138.22 82.1343 138.951C81.8105 139.67 81.3279 140.25 80.6864 140.69C80.0449 141.13 79.3102 141.392 78.4825 141.476ZM78.3533 140.203C78.8733 140.15 79.3491 139.979 79.7807 139.688C80.2122 139.398 80.5412 138.995 80.7676 138.478C81.0046 137.961 81.0876 137.352 81.0166 136.652C80.9455 135.952 80.7473 135.371 80.4219 134.911C80.0964 134.451 79.699 134.127 79.2296 133.938C78.7592 133.74 78.2639 133.667 77.7439 133.719C77.2133 133.773 76.7375 133.945 76.3166 134.234C75.9052 134.512 75.5916 134.908 75.3758 135.423C75.16 135.938 75.0876 136.546 75.1586 137.246C75.2308 137.957 75.4189 138.544 75.7231 139.006C76.0379 139.467 76.4253 139.798 76.8851 139.998C77.3439 140.187 77.8333 140.256 78.3533 140.203Z" fill="#771D1D"/>
<path d="M90.7849 137.285L91.736 129.436L93.2469 129.081L91.902 138.403L90.2509 138.791L84.8979 131.041L86.4244 130.683L90.7849 137.285Z" fill="#771D1D"/>
<path d="M105.248 128.663C105.342 128.924 105.426 129.205 105.501 129.507L98.9071 131.88C99.2498 132.675 99.7552 133.213 100.423 133.494C101.098 133.762 101.796 133.765 102.519 133.505C103.111 133.292 103.554 132.98 103.848 132.568C104.148 132.142 104.295 131.67 104.29 131.151L105.765 130.62C105.83 131.492 105.621 132.298 105.139 133.038C104.654 133.769 103.919 134.311 102.936 134.665C102.153 134.946 101.387 135.024 100.639 134.896C99.8999 134.765 99.2394 134.442 98.6569 133.926C98.0709 133.4 97.6244 132.71 97.3173 131.857C97.0103 131.004 96.9119 130.195 97.022 129.43C97.1321 128.665 97.4318 128.001 97.9213 127.44C98.4171 126.865 99.0665 126.433 99.8694 126.144C100.652 125.862 101.406 125.783 102.131 125.908C102.856 126.032 103.488 126.338 104.026 126.825C104.57 127.297 104.977 127.91 105.248 128.663ZM103.73 128.886C103.542 128.364 103.266 127.959 102.902 127.671C102.534 127.373 102.115 127.2 101.644 127.154C101.181 127.094 100.708 127.151 100.226 127.324C99.5338 127.574 99.0211 128.008 98.6883 128.626C98.3654 129.241 98.3097 129.953 98.5212 130.761L103.73 128.886Z" fill="#771D1D"/>
<defs>
<clipPath id="clip0_272_2286">
<rect width="57" height="52" fill="white" transform="translate(35 47)"/>
</clipPath>
</defs>
</svg>
