<svg width="406" height="79" viewBox="0 0 406 79" fill="none" xmlns="http://www.w3.org/2000/svg">
<path fill-rule="evenodd" clip-rule="evenodd" d="M89.1277 22.8738L88.0173 14.2457L74.1085 14.3469L73.9644 69.1767C73.9729 71.4202 70.2689 79.7699 89.6701 75.2914C90.1024 53.3038 85.1695 29.3258 100.367 26.1799C122.887 21.5243 116.844 42.3396 116.954 75.4685L132.804 75.6878C133.202 56.1545 128.82 31.4849 141.61 26.7366C172.589 15.2325 155.333 68.4936 160.944 74.7601C162.529 76.5312 173.022 75.8902 175.946 75.2071C176.361 57.0064 179.641 23.8099 169.106 16.0253C163.461 11.8589 153.976 11.8252 147.687 13.7734C139.313 16.3627 136.542 21.6593 132.312 23.5401C125.769 17.0711 124.819 12.2469 111.258 12.618C96.7559 13.0228 96.9424 20.3098 89.1277 22.8738Z" fill="white"/>
<path fill-rule="evenodd" clip-rule="evenodd" d="M247.051 75.359C247.264 67.308 245.331 55.9619 245.373 46.0595C245.408 36.344 246.021 23.7155 245.067 14.3227C234.319 13.4055 242.061 17.6943 223.094 12.7686C215.762 10.8663 208.012 11.172 201.292 13.966C165.949 28.6752 179.337 90.204 223.086 77.2104C233.382 74.1615 237.998 77.4906 247.051 75.359ZM229.456 26.4332L229.541 62.2719C215.54 73.2868 196.753 65.7284 196.889 46.085C197.008 27.3843 213.599 15.6476 229.456 26.4332Z" fill="white"/>
<path fill-rule="evenodd" clip-rule="evenodd" d="M65.4994 75.3945L64.244 27.3069C64.3033 5.3009 62.1657 18.6075 46.4555 14.5826C33.4089 11.2412 21.3464 9.14857 9.53828 21.9489C-2.15104 34.6226 -4.1954 56.578 9.61462 70.087C24.8582 84.9968 42.8503 75.6391 49.2463 75.4113C54.8959 75.2088 59.3494 76.4239 65.4994 75.3945ZM48.2369 26.2269C48.8222 33.1038 50.2219 58.7296 47.1935 62.6448C41.5609 69.9351 25.4351 67.6485 19.5989 60.0797C12.7533 51.1861 14.6619 25.729 31.7548 23.0373C39.7456 21.7717 42.9775 24.2355 48.2369 26.2269Z" fill="white"/>
<path fill-rule="evenodd" clip-rule="evenodd" d="M351.926 26.7317L379.533 27.1462C378.933 35.3504 349.406 69.6728 349.17 76.4391L403.133 76.5914C404.68 73.7749 406.363 68.1419 405.931 64.1413L375.678 64.1582C376.253 52.5539 403.183 25.4377 405.365 14.9752L354.818 14.9329L351.926 26.7317Z" fill="white"/>
<path fill-rule="evenodd" clip-rule="evenodd" d="M311.732 13.4813L302.057 13.9503L301.972 25.8893L311.382 26.7165C313.62 35.0397 311.305 52.2405 312.492 62.2095C314.499 79.1032 319.341 76.7666 336.292 76.0929C333.534 67.4883 326.19 75.4704 328.624 27.2197L338.94 26.6057L339.537 14.1379C336.13 13.6689 330.605 14.6411 329.068 12.1424C326.403 7.81026 334.755 -3.438 312.381 1.0306L311.732 13.4813Z" fill="white"/>
<path fill-rule="evenodd" clip-rule="evenodd" d="M269.39 14.6026C265.699 13.937 261.135 14.0044 257.165 14.5858C254.591 20.0539 256.149 72.8308 256.826 75.4848L271.439 75.6281C274.063 30.8216 262.71 31.5883 294.628 28.8585L295.229 13.263C287.558 12.1087 282.038 15.0155 277.602 18.5626C268.094 26.1708 270.584 24.3172 269.39 14.6026Z" fill="white"/>
</svg>
