<svg width="157" height="105" viewBox="0 0 157 105" fill="none" xmlns="http://www.w3.org/2000/svg">
<g clip-path="url(#clip0_399_3)">
<path fill-rule="evenodd" clip-rule="evenodd" d="M53.0273 43.8875C61.094 48.2166 68.3057 51.9389 80.3111 52.0041C89.781 52.0563 101.897 48.7222 107.931 43.8353C107.634 42.488 103.105 35.5556 102.057 34.4399C100.445 34.6161 98.8854 35.9765 97.4071 36.6452C85.9695 41.816 74.917 41.6398 63.4305 36.4495C61.4628 35.5589 60.3729 34.3616 58.4639 33.9539C57.1945 36.6452 53.4255 41.4408 53.0273 43.8875Z" fill="white"/>
<path fill-rule="evenodd" clip-rule="evenodd" d="M34.2997 68.0969L33.8722 64.7596L28.5172 64.7987L28.4618 86.0068C28.465 86.8746 27.039 90.1043 34.5085 88.372C34.6749 79.8672 32.7758 70.5925 38.6267 69.3757C47.2971 67.5749 44.9704 75.6262 45.0128 88.4405L51.115 88.5253C51.2684 80.9699 49.5813 71.4277 54.5055 69.591C66.4326 65.1412 59.7887 85.7426 61.9489 88.1665C62.5592 88.8516 66.599 88.6036 67.7248 88.3394C67.8847 81.2994 69.1476 68.459 65.0914 65.4479C62.9181 63.8363 59.2666 63.8233 56.8453 64.5769C53.6212 65.5784 52.5541 67.6271 50.9258 68.3546C48.4066 65.8524 48.0411 63.9864 42.8199 64.1299C37.2366 64.2865 37.3084 67.1051 34.2997 68.0969Z" fill="white"/>
<path fill-rule="evenodd" clip-rule="evenodd" d="M94.976 88.3165C95.0576 85.2239 94.3168 80.8655 94.3331 77.0616C94.3462 73.3296 94.5812 68.4786 94.2157 64.8705C90.0975 64.5182 93.0638 66.1656 85.7966 64.2735C82.9869 63.5427 80.0174 63.6602 77.4427 64.7335C63.9004 70.3837 69.0302 94.019 85.7933 89.0277C89.7385 87.8566 91.5072 89.1354 94.976 88.3165ZM88.2342 69.5225L88.2668 83.2894C82.9021 87.5205 75.7034 84.6171 75.7556 77.0714C75.8013 69.8879 82.1581 65.3794 88.2342 69.5225Z" fill="white"/>
<path fill-rule="evenodd" clip-rule="evenodd" d="M25.1953 88.4112L24.7123 69.8195C24.7352 61.3114 23.9128 66.456 17.8694 64.8999C12.8505 63.6081 8.21024 62.799 3.66784 67.7479C-0.82888 72.6479 -1.61532 81.1363 3.69721 86.3593C9.56121 92.1237 16.4825 88.5058 18.943 88.4178C21.1163 88.3395 22.8295 88.8092 25.1953 88.4112ZM18.5546 69.4019C18.7798 72.0607 19.3182 81.9682 18.1533 83.4819C15.9865 86.3005 9.78311 85.4165 7.53801 82.4902C4.9046 79.0517 5.63882 69.2094 12.2142 68.1688C15.2882 67.6794 16.5314 68.632 18.5546 69.4019Z" fill="#FF5500"/>
<path fill-rule="evenodd" clip-rule="evenodd" d="M70.5214 36.8018C72.1432 35.5849 80.2882 21.3059 81.9525 18.6341C83.1435 16.7191 87.2193 11.1243 86.6254 9.10168C86.224 7.73152 81.5021 0.443565 80.7483 0.0488281L66.0443 22.7348C63.0911 27.6347 62.8594 25.7785 67.1603 32.29C68.074 33.6634 69.0138 35.8753 70.5214 36.8018Z" fill="#FF5500"/>
<path d="M70.5214 36.8018C72.1432 35.5849 80.2882 21.3059 81.9525 18.6341C83.1435 16.7191 87.2193 11.1243 86.6254 9.10168C86.224 7.73152 81.5021 0.443565 80.7483 0.0488281L66.0443 22.7348C63.0911 27.6347 62.8594 25.7785 67.1603 32.29C68.074 33.6634 69.0138 35.8753 70.5214 36.8018Z" stroke="#FF5500" stroke-width="0.216" stroke-miterlimit="22.9256"/>
<path fill-rule="evenodd" clip-rule="evenodd" d="M135.296 69.578L145.951 69.7378C145.719 72.9023 134.324 86.1406 134.233 88.7505L155.058 88.8092C155.656 87.7228 156.305 85.5502 156.139 84.0071L144.463 84.0136C144.685 79.5378 155.078 69.0789 155.92 65.0434L136.412 65.0271L135.296 69.578Z" fill="#FF5500"/>
<path fill-rule="evenodd" clip-rule="evenodd" d="M119.943 64.5639L116.246 64.7434L116.213 69.3106L119.809 69.627C120.664 72.811 119.78 79.391 120.233 83.2046C121 89.6672 122.85 88.7734 129.328 88.5156C128.274 85.224 125.467 88.2775 126.398 69.8195L130.339 69.5846L130.568 64.8151C129.266 64.6357 127.155 65.0076 126.567 64.0518C125.549 62.3945 128.741 58.0915 120.191 59.801L119.943 64.5639Z" fill="white"/>
<path fill-rule="evenodd" clip-rule="evenodd" d="M103.571 64.8772C102.149 64.6195 100.39 64.6456 98.8592 64.8707C97.8672 66.9879 98.4676 87.4229 98.7287 88.4505L104.361 88.506C105.373 71.1571 100.997 71.454 113.299 70.397L113.531 64.3585C110.574 63.9116 108.447 65.0371 106.737 66.4105C103.072 69.3563 104.031 68.6386 103.571 64.8772Z" fill="white"/>
<path d="M148.232 102.299C148.232 102.955 148.372 103.447 148.649 103.773C148.927 104.1 149.256 104.26 149.635 104.26C150.017 104.26 150.34 104.103 150.607 103.793C150.872 103.483 151.005 103.01 151.005 102.371C151.005 101.669 150.868 101.154 150.598 100.828C150.327 100.498 149.991 100.335 149.592 100.335C149.204 100.335 148.881 100.492 148.62 100.808C148.362 101.124 148.232 101.62 148.232 102.299ZM150.986 104.863V104.211C150.66 104.716 150.183 104.971 149.55 104.971C149.139 104.971 148.764 104.86 148.421 104.631C148.078 104.406 147.811 104.093 147.622 103.689C147.432 103.284 147.338 102.821 147.338 102.296C147.338 101.783 147.422 101.32 147.592 100.903C147.765 100.488 148.02 100.165 148.362 99.9435C148.702 99.7217 149.087 99.6108 149.508 99.6108C149.818 99.6108 150.095 99.676 150.337 99.8065C150.578 99.937 150.774 100.11 150.927 100.319V97.7676H151.798V104.86H150.986V104.863ZM142.72 102.296C142.72 102.951 142.864 103.444 143.151 103.77C143.438 104.096 143.8 104.26 144.241 104.26C144.675 104.26 145.034 104.096 145.324 103.767C145.611 103.437 145.755 102.938 145.755 102.266C145.755 101.633 145.608 101.151 145.321 100.828C145.031 100.501 144.672 100.338 144.244 100.338C143.807 100.338 143.445 100.501 143.154 100.824C142.864 101.151 142.72 101.64 142.72 102.296ZM141.829 102.292C141.829 101.343 142.094 100.638 142.622 100.182C143.063 99.8032 143.604 99.6108 144.241 99.6108C144.946 99.6108 145.523 99.8424 145.974 100.306C146.421 100.766 146.646 101.405 146.646 102.221C146.646 102.88 146.548 103.402 146.349 103.777C146.15 104.155 145.863 104.449 145.481 104.658C145.102 104.866 144.688 104.971 144.241 104.971C143.52 104.971 142.939 104.742 142.495 104.279C142.051 103.822 141.829 103.16 141.829 102.292ZM137.209 102.296C137.209 102.951 137.352 103.444 137.639 103.77C137.926 104.096 138.289 104.26 138.729 104.26C139.163 104.26 139.522 104.096 139.813 103.767C140.1 103.437 140.243 102.938 140.243 102.266C140.243 101.633 140.097 101.151 139.809 100.828C139.519 100.501 139.16 100.338 138.732 100.338C138.295 100.338 137.933 100.501 137.643 100.824C137.352 101.151 137.209 101.64 137.209 102.296ZM136.318 102.292C136.318 101.343 136.582 100.638 137.111 100.182C137.551 99.8032 138.093 99.6108 138.729 99.6108C139.434 99.6108 140.012 99.8424 140.462 100.306C140.909 100.766 141.134 101.405 141.134 102.221C141.134 102.88 141.036 103.402 140.837 103.777C140.638 104.155 140.351 104.449 139.969 104.658C139.591 104.866 139.176 104.971 138.729 104.971C138.008 104.971 137.427 104.742 136.983 104.279C136.54 103.822 136.318 103.16 136.318 102.292ZM130.751 104.863V97.7708H135.538V98.6027H131.694V100.811H135.022V101.643H131.694V104.863H130.751ZM126.978 104.087L127.096 104.857C126.851 104.909 126.632 104.935 126.44 104.935C126.123 104.935 125.879 104.886 125.706 104.785C125.533 104.684 125.409 104.553 125.34 104.39C125.268 104.227 125.236 103.884 125.236 103.359V100.397H124.593V99.7217H125.236V98.4494L126.107 97.9274V99.7217H126.978V100.397H126.107V103.408C126.107 103.656 126.123 103.819 126.153 103.888C126.182 103.959 126.231 104.015 126.303 104.057C126.371 104.1 126.473 104.119 126.6 104.119C126.694 104.123 126.822 104.109 126.978 104.087ZM119.574 104.863V99.7217H120.357V100.452C120.733 99.8913 121.278 99.614 121.992 99.614C122.302 99.614 122.586 99.6695 122.847 99.7804C123.105 99.8913 123.301 100.038 123.431 100.218C123.559 100.397 123.65 100.612 123.702 100.86C123.735 101.023 123.751 101.304 123.751 101.708V104.866H122.88V101.741C122.88 101.385 122.847 101.121 122.779 100.945C122.71 100.769 122.589 100.629 122.42 100.524C122.247 100.42 122.044 100.368 121.813 100.368C121.444 100.368 121.124 100.485 120.853 100.72C120.582 100.955 120.452 101.402 120.452 102.057V104.863H119.574ZM117.352 102.289C117.035 102.416 116.559 102.527 115.926 102.615C115.567 102.668 115.312 102.723 115.162 102.788C115.012 102.853 114.898 102.948 114.82 103.069C114.738 103.193 114.699 103.33 114.699 103.483C114.699 103.711 114.787 103.907 114.963 104.061C115.139 104.214 115.397 104.292 115.737 104.292C116.073 104.292 116.37 104.22 116.634 104.074C116.895 103.927 117.088 103.728 117.212 103.477C117.306 103.281 117.352 102.99 117.352 102.609V102.289ZM117.42 104.22C117.097 104.498 116.784 104.69 116.487 104.804C116.187 104.919 115.867 104.974 115.524 104.974C114.96 104.974 114.526 104.837 114.222 104.56C113.919 104.286 113.766 103.933 113.766 103.506C113.766 103.255 113.824 103.026 113.939 102.818C114.053 102.609 114.206 102.446 114.389 102.318C114.575 102.195 114.784 102.097 115.015 102.031C115.188 101.986 115.446 101.943 115.792 101.901C116.497 101.819 117.016 101.718 117.349 101.601C117.352 101.483 117.352 101.405 117.352 101.376C117.352 101.023 117.27 100.772 117.104 100.629C116.882 100.433 116.549 100.335 116.109 100.335C115.697 100.335 115.394 100.407 115.198 100.55C115.002 100.694 114.859 100.948 114.764 101.314L113.912 101.196C113.991 100.831 114.118 100.534 114.294 100.312C114.474 100.087 114.732 99.9174 115.068 99.7935C115.404 99.6728 115.795 99.6108 116.236 99.6108C116.676 99.6108 117.032 99.663 117.309 99.7674C117.584 99.8718 117.786 99.999 117.916 100.156C118.044 100.312 118.135 100.511 118.191 100.749C118.22 100.899 118.233 101.167 118.233 101.549V102.703C118.233 103.509 118.253 104.021 118.288 104.237C118.324 104.452 118.396 104.661 118.501 104.857H117.59C117.502 104.68 117.447 104.465 117.42 104.22ZM113.201 104.087L113.319 104.857C113.074 104.909 112.855 104.935 112.663 104.935C112.346 104.935 112.101 104.886 111.928 104.785C111.755 104.684 111.631 104.553 111.563 104.39C111.491 104.227 111.459 103.884 111.459 103.359V100.397H110.816V99.7217H111.459V98.4494L112.33 97.9274V99.7217H113.201V100.397H112.33V103.408C112.33 103.656 112.346 103.819 112.375 103.888C112.405 103.959 112.454 104.015 112.526 104.057C112.594 104.1 112.695 104.119 112.823 104.119C112.917 104.123 113.044 104.109 113.201 104.087ZM106.006 103.33L106.867 103.189C106.916 103.535 107.05 103.8 107.272 103.982C107.494 104.165 107.804 104.26 108.199 104.26C108.6 104.26 108.897 104.178 109.093 104.015C109.285 103.852 109.383 103.663 109.383 103.441C109.383 103.245 109.295 103.088 109.122 102.977C109.001 102.899 108.701 102.801 108.231 102.681C107.595 102.521 107.151 102.38 106.906 102.263C106.662 102.146 106.472 101.982 106.345 101.774C106.218 101.568 106.153 101.337 106.153 101.085C106.153 100.857 106.205 100.645 106.309 100.449C106.414 100.253 106.557 100.094 106.737 99.9631C106.874 99.8652 107.056 99.7804 107.291 99.7119C107.526 99.6434 107.774 99.6075 108.042 99.6075C108.447 99.6075 108.799 99.6662 109.102 99.7837C109.409 99.8978 109.631 100.058 109.778 100.257C109.922 100.456 110.023 100.723 110.078 101.056L109.226 101.173C109.187 100.906 109.076 100.697 108.89 100.547C108.704 100.397 108.443 100.322 108.107 100.322C107.709 100.322 107.422 100.387 107.252 100.521C107.083 100.655 106.998 100.808 106.998 100.984C106.998 101.095 107.034 101.2 107.102 101.291C107.174 101.382 107.285 101.46 107.435 101.522C107.523 101.555 107.778 101.63 108.202 101.744C108.815 101.907 109.246 102.044 109.491 102.146C109.736 102.247 109.928 102.403 110.065 102.602C110.205 102.801 110.274 103.049 110.274 103.346C110.274 103.636 110.189 103.907 110.019 104.165C109.85 104.419 109.605 104.618 109.285 104.759C108.965 104.899 108.603 104.967 108.199 104.967C107.533 104.967 107.021 104.827 106.671 104.553C106.329 104.282 106.104 103.871 106.006 103.33ZM100.843 104.863V99.7217H101.626V100.452C102.002 99.8913 102.547 99.614 103.261 99.614C103.571 99.614 103.855 99.6695 104.116 99.7804C104.374 99.8913 104.57 100.038 104.7 100.218C104.828 100.397 104.919 100.612 104.971 100.86C105.004 101.023 105.02 101.304 105.02 101.708V104.866H104.149V101.741C104.149 101.385 104.116 101.121 104.048 100.945C103.979 100.769 103.858 100.629 103.689 100.524C103.516 100.42 103.314 100.368 103.082 100.368C102.713 100.368 102.393 100.485 102.122 100.72C101.852 100.955 101.718 101.402 101.718 102.057V104.863H100.843ZM98.6406 104.863V103.023V99.7217H99.5119V104.863H98.6406ZM98.6406 98.7626V97.7708H99.5119V98.7626H98.6406ZM90.9426 102.299C90.9426 102.955 91.083 103.447 91.3603 103.773C91.6377 104.1 91.9673 104.26 92.3458 104.26C92.7276 104.26 93.0507 104.103 93.3183 103.793C93.5826 103.483 93.7164 103.01 93.7164 102.371C93.7164 101.669 93.5793 101.154 93.3085 100.828C93.0376 100.498 92.7015 100.335 92.3034 100.335C91.9151 100.335 91.592 100.492 91.331 100.808C91.0732 101.124 90.9426 101.62 90.9426 102.299ZM93.6968 104.863V104.211C93.3705 104.716 92.8941 104.971 92.261 104.971C91.8498 104.971 91.4745 104.86 91.1319 104.631C90.7893 104.406 90.5217 104.093 90.3324 103.689C90.1432 103.284 90.0485 102.821 90.0485 102.296C90.0485 101.783 90.1334 101.32 90.3031 100.903C90.476 100.488 90.7305 100.165 91.0732 99.9435C91.4126 99.7217 91.7976 99.6108 92.2186 99.6108C92.5286 99.6108 92.806 99.676 93.0474 99.8065C93.2889 99.937 93.4847 100.11 93.6381 100.319V97.7676H94.5093V104.86H93.6968V104.863ZM84.8665 104.863V99.7217H85.6497V100.452C86.025 99.8913 86.5699 99.614 87.2846 99.614C87.5946 99.614 87.8785 99.6695 88.1395 99.7804C88.3973 99.8913 88.5931 100.038 88.7237 100.218C88.8509 100.397 88.9423 100.612 88.9945 100.86C89.0271 101.023 89.0435 101.304 89.0435 101.708V104.866H88.1722V101.741C88.1722 101.385 88.1395 101.121 88.071 100.945C88.0025 100.769 87.8818 100.629 87.7121 100.524C87.5391 100.42 87.3368 100.368 87.1051 100.368C86.7364 100.368 86.4166 100.485 86.1457 100.72C85.8749 100.955 85.7411 101.402 85.7411 102.057V104.863H84.8665ZM82.6443 102.289C82.3277 102.416 81.8513 102.527 81.2182 102.615C80.8593 102.668 80.6048 102.723 80.4547 102.788C80.3046 102.853 80.1936 102.948 80.112 103.069C80.0304 103.193 79.9913 103.33 79.9913 103.483C79.9913 103.711 80.0794 103.907 80.2556 104.061C80.4318 104.214 80.6896 104.292 81.029 104.292C81.3651 104.292 81.662 104.22 81.9264 104.074C82.1874 103.927 82.38 103.728 82.504 103.477C82.5986 103.281 82.6443 102.99 82.6443 102.609V102.289ZM82.7128 104.22C82.3897 104.498 82.0765 104.69 81.7795 104.804C81.4793 104.919 81.1595 104.974 80.8169 104.974C80.2523 104.974 79.8183 104.837 79.5148 104.56C79.2114 104.286 79.058 103.933 79.058 103.506C79.058 103.255 79.1167 103.026 79.2309 102.818C79.3452 102.609 79.4985 102.446 79.6813 102.318C79.8673 102.195 80.0761 102.097 80.3078 102.031C80.4808 101.986 80.7386 101.943 81.0845 101.901C81.7893 101.819 82.3082 101.718 82.641 101.601C82.6443 101.483 82.6475 101.405 82.6475 101.376C82.6475 101.023 82.566 100.772 82.3995 100.629C82.1776 100.433 81.8448 100.335 81.4043 100.335C80.9931 100.335 80.6896 100.407 80.4938 100.55C80.298 100.694 80.1544 100.948 80.0598 101.314L79.2081 101.196C79.2864 100.831 79.4137 100.534 79.5899 100.312C79.7694 100.087 80.0272 99.9174 80.3633 99.7935C80.6994 99.6728 81.091 99.6108 81.5315 99.6108C81.9721 99.6108 82.3277 99.663 82.6051 99.7674C82.8792 99.8718 83.0816 99.999 83.2121 100.156C83.3393 100.312 83.4307 100.511 83.4862 100.749C83.5156 100.899 83.5286 101.167 83.5286 101.549V102.703C83.5286 103.509 83.5482 104.021 83.5841 104.237C83.62 104.452 83.6918 104.661 83.7962 104.857H82.8858C82.7944 104.68 82.7389 104.465 82.7128 104.22ZM38.5092 101.803H41.3743C41.3352 101.369 41.2242 101.046 41.0448 100.831C40.7674 100.495 40.4084 100.328 39.9679 100.328C39.5698 100.328 39.2337 100.462 38.9596 100.73C38.6887 100.997 38.5386 101.353 38.5092 101.803ZM41.3613 103.199L42.2619 103.317C42.1216 103.839 41.8606 104.246 41.4755 104.537C41.0937 104.827 40.6042 104.971 40.0071 104.971C39.2565 104.971 38.6626 104.739 38.2221 104.276C37.7815 103.816 37.5629 103.167 37.5629 102.332C37.5629 101.47 37.7848 100.798 38.2286 100.325C38.6724 99.8489 39.25 99.6108 39.9581 99.6108C40.6434 99.6108 41.2047 99.8424 41.6387 100.312C42.0727 100.779 42.2913 101.438 42.2913 102.283C42.2913 102.335 42.288 102.413 42.2848 102.514H38.4538C38.4864 103.079 38.6463 103.509 38.9335 103.809C39.2206 104.109 39.5763 104.26 40.0038 104.26C40.3236 104.26 40.5944 104.175 40.8196 104.008C41.0513 103.839 41.2308 103.571 41.3613 103.199ZM34.3029 104.863L32.3613 99.7217H33.2946L34.3943 102.801C34.5118 103.134 34.6227 103.48 34.7239 103.835C34.8022 103.565 34.9099 103.238 35.0502 102.857L36.1924 99.7184H37.0865L35.1383 104.86H34.3029V104.863ZM30.6971 104.863V99.7217H31.5684V104.863H30.6971ZM30.6971 98.7626V97.7708H31.5684V98.7626H30.6971ZM25.3944 103.33L26.2558 103.189C26.3048 103.535 26.4386 103.8 26.6605 103.982C26.8824 104.165 27.1924 104.26 27.5872 104.26C27.9886 104.26 28.2856 104.178 28.4814 104.015C28.6739 103.852 28.7718 103.663 28.7718 103.441C28.7718 103.245 28.6837 103.088 28.5107 102.977C28.39 102.899 28.0898 102.801 27.6199 102.681C26.9835 102.521 26.5398 102.38 26.295 102.263C26.0503 102.146 25.861 101.982 25.7337 101.774C25.6065 101.568 25.5412 101.337 25.5412 101.085C25.5412 100.857 25.5934 100.645 25.6978 100.449C25.8023 100.253 25.9458 100.094 26.1253 99.9631C26.2624 99.8652 26.4451 99.7804 26.6801 99.7119C26.915 99.6434 27.163 99.6075 27.4306 99.6075C27.8352 99.6075 28.1877 99.6662 28.4912 99.7837C28.7979 99.8978 29.0198 100.058 29.1666 100.257C29.3102 100.456 29.4114 100.723 29.4669 101.056L28.6152 101.173C28.576 100.906 28.465 100.697 28.279 100.547C28.093 100.397 27.832 100.322 27.4959 100.322C27.0978 100.322 26.8106 100.387 26.6409 100.521C26.4712 100.655 26.3864 100.808 26.3864 100.984C26.3864 101.095 26.4223 101.2 26.4908 101.291C26.5626 101.382 26.6735 101.46 26.8236 101.522C26.9118 101.555 27.1663 101.63 27.5905 101.744C28.204 101.907 28.6347 102.044 28.8795 102.146C29.1242 102.247 29.3167 102.403 29.4538 102.602C29.5941 102.801 29.6627 103.049 29.6627 103.346C29.6627 103.636 29.5778 103.907 29.4081 104.165C29.2384 104.419 28.9937 104.618 28.6739 104.759C28.3541 104.899 27.9919 104.967 27.5872 104.967C26.9215 104.967 26.4092 104.827 26.0601 104.553C25.7174 104.282 25.4923 103.871 25.3944 103.33ZM23.5898 104.863V104.1C23.1917 104.684 22.65 104.974 21.9615 104.974C21.658 104.974 21.3773 104.915 21.113 104.801C20.852 104.684 20.6562 104.54 20.5289 104.364C20.4016 104.188 20.3135 103.972 20.2613 103.718C20.2254 103.545 20.2091 103.274 20.2091 102.906V99.725H21.0804V102.57C21.0804 103.023 21.1 103.33 21.1326 103.486C21.1881 103.715 21.3023 103.894 21.4818 104.025C21.658 104.155 21.8766 104.22 22.1377 104.22C22.3987 104.22 22.6435 104.155 22.8719 104.021C23.1003 103.888 23.2602 103.705 23.3581 103.473C23.4527 103.245 23.5017 102.909 23.5017 102.472V99.7217H24.373V104.863H23.5898ZM18.0097 104.863V97.7708H18.881V104.863H18.0097ZM16.4336 102.981L17.2853 103.098C17.1906 103.685 16.9524 104.142 16.5674 104.475C16.1823 104.808 15.7091 104.971 15.1479 104.971C14.4463 104.971 13.8817 104.742 13.4542 104.282C13.0268 103.822 12.8146 103.167 12.8146 102.312C12.8146 101.757 12.906 101.275 13.092 100.857C13.2748 100.443 13.5554 100.129 13.9307 99.9239C14.3059 99.7152 14.7138 99.6108 15.1576 99.6108C15.7157 99.6108 16.1725 99.7511 16.5249 100.035C16.8806 100.319 17.109 100.72 17.2069 101.235L16.365 101.363C16.2835 101.017 16.1431 100.759 15.9343 100.583C15.7287 100.41 15.4807 100.322 15.1903 100.322C14.7497 100.322 14.394 100.479 14.1199 100.792C13.8458 101.108 13.7088 101.604 13.7088 102.283C13.7088 102.974 13.8393 103.473 14.1036 103.787C14.3679 104.1 14.7138 104.256 15.1381 104.256C15.4807 104.256 15.7679 104.152 15.9963 103.943C16.228 103.738 16.3716 103.418 16.4336 102.981ZM7.52497 104.863L9.40132 102.201L7.66202 99.7217H8.73236L9.5449 100.935C9.69501 101.164 9.81575 101.35 9.89733 101.493C10.0442 101.288 10.1747 101.102 10.2922 100.932L11.1471 99.7184H12.211L10.4619 102.198L12.3252 104.86H11.2646L10.2008 103.274L9.95933 102.893L8.58552 104.86H7.52497V104.863ZM1.63812 104.863V97.7708H6.76138V98.6027H2.58119V100.782H6.49706V101.614H2.58119V104.031H6.93106V104.863H1.63812Z" fill="white"/>
<path d="M152.836 103.229L153.489 103.17C153.518 103.434 153.59 103.649 153.704 103.819C153.818 103.989 153.995 104.122 154.23 104.23C154.468 104.334 154.735 104.387 155.032 104.387C155.297 104.387 155.528 104.347 155.731 104.269C155.933 104.191 156.083 104.08 156.181 103.943C156.279 103.806 156.331 103.656 156.331 103.493C156.331 103.33 156.282 103.186 156.187 103.062C156.093 102.941 155.936 102.837 155.714 102.752C155.574 102.7 155.264 102.612 154.781 102.498C154.298 102.384 153.962 102.273 153.769 102.172C153.518 102.041 153.335 101.878 153.211 101.682C153.087 101.49 153.029 101.271 153.029 101.03C153.029 100.766 153.104 100.518 153.254 100.286C153.404 100.054 153.623 99.8814 153.91 99.7607C154.197 99.64 154.517 99.5813 154.869 99.5813C155.257 99.5813 155.6 99.6433 155.897 99.7705C156.194 99.8945 156.422 100.08 156.582 100.322C156.742 100.563 156.827 100.841 156.84 101.147L156.174 101.199C156.139 100.87 156.018 100.619 155.812 100.452C155.607 100.283 155.3 100.198 154.898 100.198C154.478 100.198 154.174 100.276 153.982 100.429C153.789 100.583 153.694 100.769 153.694 100.984C153.694 101.173 153.763 101.327 153.897 101.447C154.03 101.568 154.38 101.692 154.941 101.819C155.505 101.946 155.89 102.057 156.099 102.152C156.403 102.292 156.628 102.468 156.775 102.684C156.918 102.899 156.99 103.147 156.99 103.428C156.99 103.708 156.912 103.969 156.752 104.214C156.592 104.458 156.364 104.651 156.067 104.788C155.766 104.925 155.434 104.993 155.058 104.993C154.585 104.993 154.19 104.925 153.871 104.788C153.551 104.651 153.3 104.442 153.117 104.165C152.944 103.894 152.846 103.581 152.836 103.229Z" fill="white"/>
<path d="M99.5086 97.7708H98.6145V104.856H99.5086V97.7708Z" fill="white"/>
<path d="M71.3372 104.866V99.7412H72.1171V100.469C72.4924 99.9108 73.0341 99.6335 73.7455 99.6335C74.0555 99.6335 74.3394 99.689 74.5972 99.7999C74.855 99.9108 75.0508 100.058 75.178 100.237C75.3053 100.416 75.3967 100.632 75.4489 100.876C75.4815 101.036 75.4978 101.32 75.4978 101.721V104.866H74.6298V101.754C74.6298 101.402 74.5972 101.134 74.5287 100.961C74.4601 100.788 74.3427 100.648 74.1697 100.54C74 100.436 73.7944 100.384 73.566 100.384C73.1973 100.384 72.8807 100.501 72.6099 100.736C72.3423 100.971 72.2085 101.415 72.2085 102.07V104.866H71.3372ZM66.4979 101.816H69.3532C69.314 101.385 69.2064 101.062 69.0269 100.847C68.7528 100.514 68.3938 100.345 67.9533 100.345C67.5552 100.345 67.2223 100.478 66.9482 100.746C66.6741 101.013 66.5272 101.369 66.4979 101.816ZM69.3401 103.209L70.2375 103.326C70.0972 103.848 69.8362 104.253 69.4544 104.543C69.0726 104.83 68.5863 104.977 67.9924 104.977C67.2452 104.977 66.6513 104.746 66.214 104.286C65.7767 103.826 65.5581 103.18 65.5581 102.348C65.5581 101.49 65.78 100.821 66.2205 100.348C66.6643 99.8717 67.2386 99.6368 67.9435 99.6368C68.6255 99.6368 69.1835 99.8684 69.6175 100.335C70.0515 100.801 70.2669 101.454 70.2669 102.299C70.2669 102.351 70.2636 102.426 70.2636 102.53H66.4457C66.4783 103.092 66.6382 103.522 66.9221 103.819C67.206 104.116 67.565 104.266 67.9892 104.266C68.3057 104.266 68.5798 104.181 68.8017 104.015C69.0301 103.845 69.2096 103.578 69.3401 103.209ZM60.4479 104.866V104.158L63.6948 100.413C63.326 100.433 63.003 100.443 62.7223 100.443H60.6469V99.7412H64.8238V100.312L62.0468 103.561L61.5149 104.165C61.9065 104.132 62.272 104.116 62.6114 104.116H64.9837V104.866H60.4479ZM55.9773 102.309C55.9773 102.964 56.1208 103.454 56.408 103.777C56.6952 104.103 57.0574 104.266 57.4914 104.266C57.9221 104.266 58.2811 104.103 58.5683 103.777C58.8554 103.45 58.999 102.951 58.999 102.283C58.999 101.65 58.8554 101.173 58.565 100.847C58.2778 100.521 57.9189 100.358 57.4914 100.358C57.0541 100.358 56.6952 100.518 56.408 100.844C56.1208 101.167 55.9773 101.653 55.9773 102.309ZM55.0897 102.305C55.0897 101.359 55.354 100.658 55.8826 100.201C56.3232 99.8228 56.8616 99.6335 57.4947 99.6335C58.1962 99.6335 58.7738 99.8652 59.2209 100.325C59.668 100.785 59.8899 101.421 59.8899 102.234C59.8899 102.893 59.792 103.408 59.5929 103.786C59.3938 104.162 59.1067 104.455 58.7282 104.664C58.3529 104.873 57.9385 104.977 57.4914 104.977C56.7735 104.977 56.1959 104.749 55.7521 104.289C55.3116 103.829 55.0897 103.167 55.0897 102.305ZM52.1169 104.866V99.7412H52.8968V100.527C53.0958 100.165 53.2818 99.9239 53.4483 99.8097C53.618 99.6923 53.804 99.6368 54.0063 99.6368C54.3 99.6368 54.5969 99.7282 54.9004 99.9108L54.5904 100.713C54.3783 100.596 54.1694 100.537 53.9573 100.537C53.7681 100.537 53.5984 100.596 53.4483 100.707C53.2982 100.821 53.1905 100.978 53.1285 101.18C53.0306 101.487 52.9849 101.826 52.9849 102.191V104.87H52.1169V104.866ZM46.2529 104.866V97.7969H51.0237V98.6255H47.1927V100.828H50.5114V101.656H47.1927V104.863H46.2529V104.866Z" fill="white"/>
</g>
<defs>
<clipPath id="clip0_399_3">
<rect width="157" height="105" fill="white"/>
</clipPath>
</defs>
</svg>
