<svg width="71" height="71" viewBox="0 0 71 71" fill="none" xmlns="http://www.w3.org/2000/svg">
<g clip-path="url(#clip0_218_943)">
<path d="M56.1174 14.0084C56.2038 13.994 56.3046 14.03 56.1174 14.0084V14.0084Z" fill="white"/>
<path d="M59.4439 19.3902C59.4605 19.3735 59.4605 19.3735 59.4439 19.3902V19.3902Z" fill="white"/>
<path d="M57.9823 14.2532C57.9679 14.2532 57.9463 14.2532 57.9319 14.2388C57.9535 14.2532 57.9823 14.2676 57.9823 14.2532Z" fill="white"/>
<path d="M52.8702 20.8289C53.5398 21.5131 54.411 22.0245 55.3326 22.2693C56.2902 22.5286 57.3702 22.5286 58.3135 22.1973C59.3719 21.8372 60.2791 21.153 60.9343 20.2311C61.5679 19.3596 61.8775 18.2072 61.8055 17.1125C61.7047 15.8809 61.1863 14.7646 60.3511 13.8571C58.9615 12.4166 56.7726 11.8332 54.8934 12.5535C52.791 13.3385 51.3006 15.4632 51.5022 17.7607C51.603 18.9275 52.0638 19.9862 52.8702 20.8289ZM57.1974 20.7208C57.1326 20.7208 57.1614 20.7208 57.1974 20.7208V20.7208ZM53.223 16.9541V16.9396C53.223 16.8892 53.2374 16.8388 53.259 16.7884C53.2734 16.666 53.3094 16.5651 53.3454 16.4427C53.3814 16.3419 53.4174 16.2194 53.4462 16.1186C53.4462 16.1042 53.4462 16.1042 53.4606 16.0826V16.0682C53.4966 15.9961 53.511 15.9457 53.547 15.8809C53.6478 15.672 53.7702 15.5064 53.907 15.3119C53.943 15.2759 53.979 15.2255 54.0078 15.1895C54.0798 15.1031 54.159 15.0166 54.2454 14.9518C54.3174 14.8798 54.3822 14.8294 54.4542 14.7646C54.4902 14.7502 54.5046 14.7141 54.5406 14.6925C54.7134 14.5701 54.8646 14.4693 55.0518 14.3684C55.1238 14.3324 55.275 14.2964 55.3398 14.2316C55.3902 14.2172 55.4406 14.1956 55.491 14.1812C55.6998 14.1092 55.9014 14.0587 56.1102 14.0299H56.0958C56.1462 14.0299 56.1966 14.0155 56.247 14.0155C56.3478 14.0011 56.4486 14.0011 56.571 14.0011C56.6718 14.0011 56.7798 14.0011 56.895 14.0155C56.9454 14.0155 56.9958 14.0299 57.0462 14.0299C57.2551 14.0659 57.4566 14.1164 57.6655 14.1668C57.7015 14.1668 57.8383 14.2388 57.9247 14.2676C57.8887 14.2532 57.8743 14.2316 57.9751 14.282C58.0255 14.318 58.0975 14.3324 58.1479 14.3684C58.3567 14.4693 58.5223 14.6061 58.7167 14.7285C58.7671 14.7646 58.8175 14.815 58.8679 14.851C58.9687 14.9374 59.0551 15.0238 59.1415 15.1247C59.2279 15.2111 59.2927 15.2975 59.3647 15.384L59.4007 15.42C59.4367 15.456 59.4511 15.5064 59.4655 15.5208C59.5879 15.6937 59.6887 15.8809 59.7895 16.0826C59.8039 16.1186 59.8255 16.1546 59.8399 16.205C59.8759 16.2914 59.9119 16.3779 59.9263 16.4787C59.9983 16.666 60.0271 16.8748 60.0631 17.0765C60.0631 17.1269 60.0775 17.1629 60.0775 17.2133C60.0775 17.3142 60.0919 17.4222 60.0919 17.523C60.0919 17.6095 60.0919 17.7103 60.0775 17.7967C60.0775 17.8327 60.0775 17.8687 60.0631 17.8975V17.912V17.9264C60.0271 18.1136 59.9983 18.2865 59.9263 18.4593C59.8903 18.5458 59.8543 18.6322 59.8399 18.7186C59.8255 18.769 59.7895 18.8194 59.7679 18.8699C59.6815 19.0571 59.5591 19.23 59.4439 19.4028C59.4295 19.4388 59.3935 19.4748 59.3719 19.4893C59.3863 19.4532 59.4079 19.4388 59.4223 19.4172C59.4079 19.4316 59.3863 19.4893 59.3719 19.5037C59.2999 19.5901 59.2207 19.6765 59.1343 19.7629C59.0623 19.835 58.9975 19.8998 58.9111 19.9718C58.8751 20.0078 58.8247 20.0438 58.7887 20.0726C58.6015 20.1951 58.4287 20.3103 58.2199 20.4183C58.1695 20.4544 58.1191 20.4688 58.0687 20.5048C58.0543 20.5048 57.9175 20.5768 57.9823 20.5408C57.9679 20.5408 57.9679 20.5552 57.9463 20.5552C57.8959 20.5696 57.8455 20.5912 57.7951 20.6056C57.6079 20.6776 57.4206 20.7064 57.2334 20.7424C57.183 20.7424 57.1326 20.7569 57.0966 20.7569C57.0102 20.7569 56.9094 20.7713 56.823 20.7713H56.5494C56.4774 20.7713 56.2902 20.7208 56.2254 20.7352C56.175 20.7352 56.139 20.7208 56.0886 20.7208C55.9878 20.7064 55.8798 20.6848 55.8006 20.6488C55.7142 20.6344 55.6278 20.5984 55.5414 20.5624C55.491 20.548 55.3542 20.476 55.2822 20.4616C55.3326 20.476 55.3686 20.512 55.2822 20.476C55.2678 20.476 55.2462 20.4616 55.2318 20.4616C55.1958 20.4472 55.1598 20.4255 55.131 20.4111C55.0446 20.3751 54.9798 20.3247 54.8934 20.2743C54.807 20.2239 54.7422 20.1879 54.6558 20.1375C54.6054 20.1014 54.5694 20.0654 54.519 20.051C54.483 20.0006 54.1086 19.6909 54.0726 19.6549C54.0006 19.5829 53.9502 19.5181 53.8854 19.446C53.8854 19.446 53.8494 19.41 53.835 19.374C53.8206 19.3596 53.799 19.338 53.7846 19.302C53.6838 19.1507 53.5758 18.9923 53.511 18.841C53.4966 18.7906 53.3742 18.5169 53.439 18.7042C53.3886 18.5674 53.3382 18.4449 53.3022 18.3081C53.2662 18.2072 53.2518 18.0848 53.2158 17.9624C53.2158 17.948 53.2014 17.912 53.2014 17.8903C53.2014 17.8399 53.187 17.7679 53.187 17.7175C53.1942 17.451 53.2086 17.2133 53.223 16.9541Z" fill="white"/>
<path d="M52.2366 40.3832C53.0214 41.2042 54.051 41.802 55.1454 42.0973C56.2542 42.3854 57.4926 42.3854 58.6015 42.0109C59.8327 41.6004 60.8767 40.7937 61.6327 39.735C63.0007 37.7975 62.9503 35.0751 61.5823 33.1449C61.3951 32.8712 61.1719 32.5975 60.9487 32.3598C59.3575 30.6961 56.8374 30.0335 54.663 30.8185C52.179 31.7116 50.451 34.1892 50.6742 36.8469C50.775 38.1937 51.3078 39.4253 52.2366 40.3832ZM54.051 33.0729C54.0366 33.0873 54.0006 33.1089 54.0006 33.1089C54.0006 33.1089 54.015 33.0873 54.051 33.0729ZM52.4382 35.6585C52.4742 35.5072 52.503 35.3488 52.5606 35.1975C52.5966 35.0607 52.647 34.9382 52.6974 34.8014C52.6974 34.787 52.7118 34.7654 52.7118 34.751C52.7478 34.6646 52.7982 34.5781 52.8342 34.5133C52.9062 34.3909 52.971 34.2756 53.0358 34.1532C53.0502 34.1388 53.0718 34.1028 53.0862 34.0812C53.1006 34.0956 53.1222 34.1172 53.1366 34.1172C53.151 34.1316 53.187 34.1532 53.2086 34.1676C53.3454 34.29 53.4822 34.4053 53.583 34.5421C53.619 34.5925 53.6694 34.643 53.7198 34.679C53.7918 34.7294 53.8566 34.7798 53.943 34.8014C54.0294 34.8374 54.1158 34.8374 54.2022 34.8158C54.2886 34.8158 54.375 34.7798 54.4398 34.7438C54.4902 34.7078 54.5262 34.6718 54.5766 34.643C54.663 34.5565 54.7134 34.4701 54.7494 34.3549C54.7494 34.3044 54.7638 34.2324 54.7638 34.182C54.7638 34.0596 54.7278 33.9587 54.6774 33.8579C54.555 33.6851 54.4398 33.5338 54.2814 33.397C54.1806 33.3105 54.0726 33.2241 53.9718 33.1377C54.0078 33.1233 54.0222 33.0873 54.0582 33.0657C54.0942 33.0513 54.1086 33.0296 54.1086 33.0296C54.2958 32.8928 54.483 32.7704 54.6918 32.6695C54.7782 32.6191 54.8646 32.5831 54.951 32.5471C54.9654 32.5471 55.0014 32.5327 55.023 32.5111C55.0734 32.4967 55.1454 32.4607 55.1958 32.4391C55.419 32.367 55.6422 32.3022 55.8654 32.2518C55.9374 32.2374 55.9878 32.2374 56.0526 32.2158H56.103H56.1894V33.469C56.1894 33.8147 56.4846 34.1172 56.8374 34.1172C57.183 34.1028 57.4854 33.8435 57.4854 33.469V32.2734C57.5214 32.2734 57.5574 32.2878 57.5862 32.2878C57.8094 32.3382 58.0327 32.4103 58.2559 32.4895C58.2703 32.5255 58.3927 32.5615 58.4287 32.5615C58.5295 32.6119 58.6375 32.6623 58.7527 32.7344C58.8535 32.7848 58.9615 32.8568 59.0623 32.9216C59.1127 32.9576 59.1487 32.9936 59.1991 33.0224C59.2135 33.0368 59.2351 33.0368 59.2351 33.0585C59.2495 33.0585 59.2495 33.0729 59.2711 33.0729C59.3575 33.1233 59.2855 33.0873 59.2567 33.0585C59.2711 33.0729 59.3071 33.1089 59.3287 33.1305C59.1919 33.2529 59.0695 33.3682 58.9327 33.4906C58.8607 33.541 58.8319 33.613 58.7959 33.6923C58.7599 33.7643 58.7455 33.8435 58.7455 33.9299C58.7455 34.0164 58.7599 34.1028 58.7959 34.1676C58.8319 34.254 58.8679 34.3189 58.9327 34.3765C59.0551 34.4989 59.2207 34.5637 59.3935 34.5637C59.4439 34.5637 59.5159 34.5493 59.5663 34.5493C59.6671 34.5133 59.7751 34.4629 59.8543 34.3765C59.9767 34.254 60.0919 34.1532 60.2287 34.038C60.3655 34.2396 60.5023 34.4629 60.6031 34.6862C60.6175 34.7366 60.6535 34.787 60.6751 34.8374V34.8518C60.7255 34.9743 60.7615 35.0895 60.8119 35.2119C60.8839 35.4496 60.9343 35.6729 60.9847 35.9106V35.925C60.7255 35.9394 60.4879 35.925 60.2287 35.9106C60.0775 35.8962 59.8831 35.997 59.7679 36.0978C59.6455 36.2203 59.5807 36.3859 59.5807 36.5588C59.5807 36.7316 59.6527 36.9045 59.7679 37.0197C59.8183 37.0557 59.8543 37.0917 59.9047 37.1205C60.0055 37.171 60.1135 37.207 60.2287 37.207C60.4663 37.243 60.7111 37.243 60.9271 37.2214C60.8911 37.3726 60.8551 37.5455 60.8047 37.7039C60.7687 37.8048 60.7327 37.9056 60.7039 38.0136C60.6679 38.0856 60.6319 38.1505 60.6031 38.2225C60.5023 38.4458 60.3655 38.6546 60.2287 38.8563C60.2143 38.8707 60.2143 38.8923 60.1927 38.9067C60.1567 38.9427 60.1423 38.9787 60.1063 39.0075C60.0559 39.0796 59.9839 39.1444 59.9335 39.1948C59.8471 39.0724 59.7607 38.9571 59.6743 38.8491C59.6383 38.7771 59.5735 38.7122 59.5015 38.6618C59.4295 38.6114 59.3647 38.561 59.2783 38.5394C59.1919 38.5034 59.1055 38.5034 59.0191 38.525C58.9327 38.525 58.8463 38.561 58.7815 38.597C58.6447 38.6834 58.5223 38.8203 58.4935 38.9715C58.4935 39.0219 58.4791 39.094 58.4791 39.1444C58.4791 39.2668 58.5151 39.3676 58.5655 39.4685C58.6879 39.6413 58.8247 39.8142 58.9399 39.9654C58.8679 40.0014 58.8031 40.0519 58.7383 40.0879C58.6375 40.1383 58.5151 40.1887 58.4287 40.2391C58.4143 40.2391 58.4143 40.2535 58.3927 40.2535C58.3207 40.2679 58.2702 40.3039 58.2054 40.3255C57.9678 40.412 57.723 40.4624 57.4854 40.5128H57.4566C57.4566 40.2751 57.4422 40.0303 57.4422 39.7782C57.4422 39.6053 57.3702 39.4541 57.255 39.3172C57.1326 39.1948 56.967 39.13 56.7942 39.13C56.6214 39.13 56.4558 39.202 56.3334 39.3172C56.211 39.4397 56.1462 39.5909 56.1462 39.7782C56.1462 40.0159 56.1606 40.2607 56.1606 40.4984C56.1102 40.4984 56.0742 40.484 56.0382 40.484C55.9158 40.4696 55.8006 40.4336 55.6926 40.3976C55.4694 40.3472 55.2606 40.2607 55.059 40.1959C55.0446 40.1959 55.023 40.1815 55.0086 40.1815C54.9582 40.1455 54.8862 40.1311 54.8358 40.0951C54.735 40.0447 54.627 39.9942 54.5262 39.9222C54.4254 39.8718 54.3174 39.7998 54.2382 39.735C54.4254 39.4973 54.6126 39.274 54.7998 39.0291C54.8718 38.9787 54.9006 38.9067 54.9366 38.8275C54.9726 38.7555 54.987 38.6762 54.987 38.5898C54.987 38.4386 54.915 38.2441 54.7998 38.1289C54.6774 38.0064 54.5118 37.9416 54.339 37.9416C54.1878 37.9416 53.9934 37.992 53.8782 38.1289C53.6694 38.3665 53.4822 38.6114 53.2806 38.8635C53.2446 38.8275 53.1942 38.741 53.1798 38.7266C53.043 38.5394 52.9206 38.3305 52.8198 38.1072C52.8054 38.0568 52.7694 38.0064 52.7478 37.956C52.7478 37.9416 52.7334 37.92 52.7334 37.9056C52.683 37.7543 52.6326 37.5959 52.5822 37.4446C52.5462 37.3222 52.5318 37.207 52.4958 37.0701C52.755 37.0845 53.007 37.1061 53.2662 37.1061C53.4174 37.1205 53.6118 37.0197 53.727 36.9189C53.8494 36.7964 53.9142 36.6308 53.9142 36.4579C53.9142 36.2851 53.8422 36.1122 53.727 35.997C53.5902 35.8745 53.4534 35.8241 53.2662 35.8097C53.007 35.7953 52.7334 35.7737 52.4814 35.7593C52.4238 35.7953 52.4382 35.7233 52.4382 35.6585Z" fill="white"/>
<path d="M69.1997 13.4609C69.1857 13.4609 69.1857 13.4609 69.1997 13.4609C69.1997 13.4609 69.1997 13.4749 69.2137 13.4749C69.1997 13.4819 69.1997 13.4819 69.1997 13.4609Z" fill="white"/>
<path d="M69.0776 27.2166L69.0916 27.2026L69.1056 27.1886C69.1126 27.1816 69.0986 27.1956 69.0776 27.2166Z" fill="white"/>
<path d="M69.236 27.0446C69.236 27.0302 69.2504 27.0302 69.2504 27.0085V26.9941C69.2504 27.0085 69.236 27.0229 69.236 27.0446Z" fill="white"/>
<path d="M69.2648 26.9077V26.8717V26.8357C69.2864 26.8573 69.2648 26.8861 69.2648 26.9077Z" fill="white"/>
<path d="M71 13.7563C70.9856 12.9857 70.568 12.215 69.8696 11.8549C69.4448 11.6317 68.9984 11.5812 68.516 11.5812H67.2632H66.716C66.7016 11.0123 66.6656 10.4505 66.5432 9.90311C66.4063 9.18289 66.1111 8.51307 65.6503 7.92969C65.1895 7.36791 64.5343 7.0078 63.8503 6.76292C62.3959 6.25156 60.7831 6.28037 59.2639 6.26597C58.2055 6.25156 57.1542 6.25156 56.0958 6.22995V3.87481V2.28311C56.0958 1.25318 55.4118 0.280878 54.3678 0.0720121C53.7198 -0.0504265 52.9278 -0.0288197 52.3302 0.244867C51.5598 0.590576 51.099 1.41163 51.0774 2.23269C51.063 3.01774 51.0774 3.78838 51.0774 4.58063V6.22275H49.1766C45.7205 6.23716 42.2573 6.25876 38.8012 6.25876H32.5372H23.0763H22.5291V4.21332C22.5291 3.71636 22.5435 3.2194 22.5291 2.74406C22.4787 1.80056 21.773 0.979498 20.837 0.828251C20.5634 0.777835 20.2898 0.777835 20.0162 0.777835C19.7282 0.777835 19.433 0.777835 19.145 0.864262C18.2882 1.13795 17.669 1.89419 17.6546 2.80167C17.6402 3.47148 17.6546 4.13409 17.6546 4.8039V6.25876H13.4426H7.38008C6.73208 6.25876 6.06247 6.29478 5.44326 6.51805C4.55045 6.82774 3.83044 7.38952 3.28324 8.14576C2.01602 9.94633 2.22483 12.3375 2.22483 14.4117C2.22483 19.2445 2.23923 24.0556 2.36163 28.8811C2.39763 30.4368 2.58483 32.1869 3.76564 33.3177C4.52165 34.0379 5.49366 34.4341 6.52327 34.6717V35.5648C6.52327 35.9609 6.50887 36.3715 6.57367 36.7676C6.69608 37.4878 7.29368 38.0208 8.01369 38.0208H8.6617H9.96491V41.6147C9.96491 42.0613 10.3609 42.4862 10.8217 42.4718C11.2825 42.4574 11.6785 42.0973 11.6785 41.6147V38.0208H13.4282C13.889 38.0208 14.2994 37.9488 14.645 37.6103C15.0482 37.1781 15.1202 36.6307 15.1202 36.0834V35.1759C16.4018 35.1615 17.705 35.0751 18.8354 34.5061C20.189 33.8219 20.837 32.4534 21.0458 31.013C21.1466 30.3144 21.1826 29.6085 21.269 28.9099C21.269 28.8379 21.2834 28.7731 21.2834 28.701C21.2834 28.7875 21.269 28.8235 21.269 28.8235C21.269 28.8091 21.2834 28.701 21.2834 28.6722C21.2978 28.521 21.3338 28.3625 21.3698 28.2257C21.4058 28.0889 21.4418 27.952 21.4922 27.8296C21.5066 27.7936 21.5066 27.7792 21.5282 27.7431C21.5282 27.7287 21.5426 27.7071 21.5426 27.6927C21.557 27.6567 21.593 27.6207 21.593 27.6063C21.6434 27.5199 21.6938 27.4334 21.7442 27.3686C21.7442 27.3686 21.7802 27.3182 21.7946 27.3038C21.8306 27.2678 21.845 27.2318 21.881 27.203C21.9458 27.1165 22.0322 27.0517 22.1186 26.9653C22.133 26.9509 22.1331 26.9509 22.1546 26.9509C22.2267 26.9005 22.2915 26.8645 22.3419 26.814C22.4283 26.7636 22.5291 26.6916 22.6299 26.6628C22.6659 26.6484 22.7163 26.6268 22.7523 26.6124C22.7667 26.598 22.8027 26.598 22.8027 26.598C23.0403 26.5116 23.2851 26.4467 23.5371 26.3747C23.6595 26.3387 23.7963 26.3243 23.9115 26.3099C23.9259 26.3099 23.9835 26.2955 24.0123 26.2955C24.0483 26.2955 24.0987 26.2811 24.1131 26.2811C24.3723 26.2451 24.6459 26.2307 24.8979 26.2307C25.5171 26.1947 26.1291 26.2163 26.7483 26.2163C29.6067 26.2019 32.4868 26.2019 35.3452 26.1802H36.2524C36.562 26.1947 36.7492 26.1947 36.9868 26.2667C37.2748 26.3387 37.3972 26.3675 37.6204 26.526C37.7572 26.6268 37.894 26.7996 37.9804 26.9365C37.9948 26.9725 38.1028 27.1598 38.1028 27.1598C38.1532 27.2606 38.1892 27.383 38.2252 27.4839C38.3116 27.7575 38.362 28.0312 38.4124 28.3265C38.4484 28.5138 38.4268 28.4274 38.4124 28.3769C38.4268 28.4634 38.4268 28.5282 38.4484 28.6146C38.4628 28.7371 38.4628 28.8739 38.4844 28.9891C38.5204 29.3492 38.5348 29.6878 38.5708 30.0479C38.794 32.8568 39.0316 35.6512 39.2548 38.4529C39.442 40.8657 39.6508 43.2856 39.8381 45.6984H38.11C32.1196 45.7344 26.1435 45.7704 20.153 45.7992C16.7618 45.8136 13.3562 45.8352 9.96491 45.8497H7.30808C6.48727 45.8497 5.63046 45.7992 4.80965 45.8641C3.52804 45.9865 2.32563 46.5123 1.49042 47.5062C0.324004 48.8602 0 50.5887 0 52.3389V56.2785V64.8925C0 65.7999 0.259203 66.7579 0.957611 67.3772C1.57682 67.9102 2.26083 68.011 3.04563 68.011H5.70246H9.2305V69.1778C9.2305 69.9989 9.64091 70.9568 10.5697 71.0072H11.0161H15.653H15.8402C16.337 70.9928 16.7834 70.6831 16.985 70.2365C17.2226 69.7396 17.2226 69.2282 17.2226 68.6953V67.9894C24.2067 67.975 31.1908 67.939 38.1748 67.9174C41.5445 67.903 44.8997 67.8814 48.2765 67.867V69.1706C48.2765 69.9917 48.687 70.9496 49.6086 71H50.055H54.6918H54.879C55.3758 70.9856 55.8222 70.6759 56.0238 70.2293C56.2614 69.7324 56.2614 69.221 56.2614 68.6881V67.831C57.4566 67.831 58.6735 67.8166 59.8759 67.8166C60.7831 67.8166 61.7047 67.8166 62.6119 67.8022C63.3463 67.8022 64.1887 67.903 64.8871 67.6293C65.5207 67.3916 66.0535 66.9091 66.3416 66.2969C66.7016 65.5263 66.6656 64.7196 66.6512 63.8985C66.6152 60.4703 66.6367 57.0492 66.6512 53.6209V49.1843V49.1699V46.4835V39.7709V30.9842V28.9819H67.904H68.7248C69.5096 28.9675 70.3016 28.5354 70.6616 27.8152C70.9208 27.3182 70.9208 26.8213 70.9208 26.2883V24.5381V19.1796V14.5414C71 14.3181 71 14.03 71 13.7563ZM69.2504 13.5619C69.236 13.5475 69.2144 13.5115 69.236 13.5115C69.236 13.5115 69.2504 13.5331 69.2504 13.5619ZM68.9768 13.3098C68.9408 13.2882 68.9624 13.2882 68.9768 13.3098V13.3098ZM68.9048 13.2882C68.9408 13.2882 68.9768 13.2882 68.9048 13.2882V13.2882ZM52.9206 1.95181C52.9062 1.98782 52.8846 2.00222 52.8846 2.00222C52.863 2.00222 52.899 1.97341 52.9206 1.95181ZM52.8486 2.05984C52.8486 2.09585 52.8342 2.11026 52.8342 2.11026C52.8342 2.11026 52.8486 2.08865 52.8486 2.05984ZM52.8342 2.52078V2.2615V2.17508C52.8486 2.13906 52.8486 2.10305 52.8702 2.07424V2.05984C52.8846 2.02383 52.9206 1.97341 52.9206 1.97341C52.9206 1.97341 52.9206 1.95901 52.935 1.95901C52.9494 1.9446 52.971 1.923 52.9854 1.90859C52.9998 1.89419 53.0214 1.87258 53.0358 1.85818C53.0502 1.84377 53.0718 1.84377 53.1078 1.82216H53.0934C53.0934 1.82216 53.1078 1.80776 53.1438 1.80776C53.1798 1.79336 53.2158 1.77175 53.1438 1.80776C53.1582 1.80776 53.1942 1.79336 53.1942 1.79336H53.2086C53.2806 1.80776 53.3958 1.77895 53.4462 1.77895H53.8062C53.8422 1.77895 53.907 1.77895 53.979 1.79336C53.943 1.77895 53.9646 1.75734 54.015 1.77895H54.0294C54.0654 1.79336 54.0798 1.79336 54.1158 1.79336C54.1518 1.80776 54.2022 1.84377 54.2382 1.86538C54.2526 1.87978 54.2886 1.90139 54.3102 1.9374L54.3246 1.95181C54.3102 1.91579 54.3102 1.9374 54.3246 1.95181L54.375 2.00222C54.375 2.00222 54.3606 2.00222 54.339 1.98782C54.3534 2.00222 54.3534 2.03823 54.375 2.05984C54.375 2.09585 54.3894 2.14627 54.411 2.18228C54.3966 2.71525 54.411 3.24101 54.411 3.77398V6.23716H52.8198C52.8342 5.00557 52.8342 3.75237 52.8342 2.52078ZM28.2819 8.01612H35.7628C35.4892 8.37623 35.2012 8.73635 34.9204 9.09646C34.8196 9.2333 34.7332 9.37014 34.7332 9.5574C34.7332 9.70865 34.8052 9.90311 34.9204 10.0183C35.0428 10.1408 35.2084 10.2056 35.3812 10.2056C35.5324 10.2056 35.7412 10.1552 35.842 10.0183C36.3532 9.34854 36.8716 8.68593 37.3972 8.01612H38.8156C38.0956 9.07485 37.3972 10.1408 36.6772 11.1995C36.49 11.4732 36.6052 11.9197 36.9004 12.071C37.2244 12.2439 37.5844 12.143 37.7716 11.8477C38.6284 10.5801 39.4636 9.31253 40.3205 8.04493C40.3205 8.03052 40.3349 8.03052 40.3349 8.00891H41.8613C41.3789 8.74355 40.9037 9.47818 40.4213 10.22C40.2341 10.4937 40.3493 10.9402 40.6445 11.0915C40.9685 11.2643 41.3285 11.1635 41.5157 10.8682C42.1349 9.92472 42.7325 9.00283 43.3445 8.05933C43.3589 8.04493 43.3589 8.02332 43.3589 8.00891H43.5965C47.3117 7.99451 51.027 7.9729 54.7422 7.9729C56.2326 7.9729 57.7015 7.9729 59.1919 8.00891C59.8255 8.02332 60.4735 8.02332 61.1071 8.05933C61.3303 8.07374 61.5679 8.09534 61.7911 8.10975C61.8415 8.10975 61.8919 8.12415 61.9423 8.12415C61.9423 8.12415 62.0431 8.13856 62.0791 8.13856H62.1295C62.2015 8.15296 62.2519 8.15296 62.3167 8.17457C62.6911 8.24659 63.0727 8.32582 63.4327 8.44825C63.4471 8.44825 63.5551 8.49867 63.5839 8.52028C63.6199 8.53468 63.6703 8.57069 63.6847 8.57069C63.8215 8.64272 63.9583 8.72194 64.0807 8.80837H64.0951C64.0951 8.80837 64.1095 8.82277 64.1311 8.84438C64.1815 8.89479 64.2319 8.93081 64.2679 8.98122C64.3039 9.01723 64.3543 9.06765 64.3903 9.11806C64.3759 9.10366 64.3759 9.08205 64.3543 9.06765C64.3687 9.08205 64.3903 9.10366 64.3903 9.11806C64.4047 9.13247 64.4263 9.16848 64.4263 9.16848C64.4983 9.26931 64.5631 9.39175 64.6279 9.50699C64.6423 9.543 64.6423 9.5574 64.6639 9.57901C64.6639 9.56461 64.6495 9.543 64.6495 9.52859C64.6855 9.61502 64.7215 9.70145 64.7359 9.78788C64.7863 9.92472 64.8223 10.076 64.8583 10.2344C64.8727 10.3208 64.8943 10.4073 64.9087 10.5081C64.9087 10.5441 64.9231 10.5801 64.9231 10.6305C65.0095 11.4156 64.9951 12.2078 64.9951 13.0145V18.6107V26.8789V35.9033V43.761V46.0225C64.8583 45.9721 64.7071 45.9361 64.5487 45.9001C63.9295 45.7992 63.2815 45.8352 62.6479 45.8136C62.0647 45.7992 61.4815 45.7992 60.9199 45.7776C58.5079 45.7272 56.1102 45.7128 53.6982 45.6912C52.431 45.6768 51.1494 45.6768 49.8822 45.6768C49.2342 42.1621 48.5645 38.6546 47.9093 35.1471C47.5637 33.3465 47.2397 31.5315 46.9013 29.7382C46.7285 28.8163 46.5557 27.8872 46.3901 26.9653C46.2533 26.2667 46.1165 25.5609 45.9077 24.891C45.4613 23.3858 44.6909 21.9597 43.3229 21.1098C41.9333 20.2384 40.2053 20.1159 38.614 20.1015C35.194 20.0511 31.7812 20.0151 28.3611 20.0007C24.8547 19.9863 21.3266 20.0007 17.813 20.0511C17.6402 20.0511 17.453 20.0511 17.2802 20.0655C17.2442 16.8317 17.2298 13.6123 17.2442 10.3713C17.2442 9.60062 17.2586 8.82997 17.2802 8.04493H18.3386C21.6938 8.01612 24.9915 8.01612 28.2819 8.01612ZM64.7791 47.8663C64.8007 47.8663 64.8007 47.8663 64.7791 47.8663V47.8663ZM20.837 2.77286C20.8514 2.83048 20.8874 2.8953 20.837 2.77286V2.77286ZM20.837 2.75846C20.837 2.74406 20.837 2.74406 20.837 2.75846V2.75846ZM19.5986 2.5856C19.5986 2.5712 19.6202 2.5712 19.5986 2.5856C19.6562 2.5568 19.721 2.52078 19.5986 2.5856ZM19.397 3.06816V2.85929V2.84489V2.80888V2.79447V2.77286C19.397 2.67203 19.397 2.72245 19.397 2.77286C19.397 2.77286 19.4114 2.75846 19.4114 2.73685V2.72245C19.4114 2.70804 19.4258 2.70804 19.4258 2.70804C19.4402 2.69364 19.4618 2.67203 19.4762 2.63602L19.4906 2.62162H19.505H19.5194C19.5338 2.60721 19.5554 2.60721 19.5698 2.5856C19.6058 2.5856 19.6418 2.54959 19.6562 2.54959C19.6562 2.54959 19.6922 2.54959 19.7066 2.53519H19.757H20.2898H20.477C20.513 2.53519 20.5274 2.54959 20.5634 2.54959C20.5778 2.54959 20.5994 2.564 20.6354 2.564C20.6354 2.564 20.6498 2.564 20.6498 2.5784C20.6498 2.5784 20.6858 2.59281 20.7002 2.61441C20.7146 2.62882 20.7362 2.65043 20.7506 2.66483L20.765 2.67923C20.765 2.67923 20.7794 2.69364 20.7794 2.71525C20.7938 2.72965 20.7938 2.75126 20.7938 2.75126V2.74406V2.75846C20.7938 2.8809 20.8082 3.13298 20.8082 3.16899V3.56511V4.12689V6.25156H19.3538C19.397 5.22164 19.397 4.1485 19.397 3.06816ZM8.01369 36.3571H7.97769C7.99209 36.3427 8.02809 36.3571 8.06409 36.3571H8.01369ZM8.27289 36.3571V36.285V35.6872V35.039C8.37369 35.0534 8.4961 35.0751 8.5969 35.0751C10.1881 35.2623 11.8153 35.2767 13.4426 35.2623V35.8817V36.3643H11.4769H9.0289H8.27289V36.3571ZM9.64091 33.4473C9.2809 33.4329 8.9209 33.3969 8.5609 33.3465C8.5249 33.3465 8.38809 33.3321 8.33769 33.3105C8.20089 33.2961 8.06409 33.2601 7.94169 33.2457C7.70409 33.1953 7.44488 33.1592 7.20728 33.0872C6.81128 33.0008 6.42247 32.8856 6.04087 32.7487C6.00487 32.7343 5.96887 32.7127 5.91847 32.6983C5.84647 32.6623 5.78167 32.6263 5.69526 32.5975C5.54406 32.511 5.40726 32.4246 5.24886 32.3382C5.17686 32.3022 5.04006 32.1509 5.21286 32.3022C5.16246 32.2518 5.11206 32.2158 5.06166 32.1653C5.01126 32.1149 4.96086 32.0645 4.91046 32.0285C4.86005 31.9781 4.70165 31.7548 4.83845 31.9565C4.75205 31.834 4.68725 31.7332 4.61525 31.618C4.57925 31.5459 4.54325 31.4955 4.51445 31.4307C4.51445 31.4307 4.50005 31.3947 4.50005 31.3803C4.50005 31.3659 4.48565 31.3443 4.48565 31.3299C4.36325 31.0058 4.27685 30.6817 4.22645 30.336C4.22645 30.2855 4.21205 30.2351 4.21205 30.1991C4.21205 30.1127 4.19765 30.0119 4.17605 29.9254C4.16165 29.7022 4.14005 29.4645 4.12565 29.2412C4.03925 26.9437 4.02485 24.6318 4.00325 22.3414C3.98885 19.9071 3.96725 17.4583 3.96725 15.0311C3.96725 13.7779 3.89524 12.5103 4.01765 11.2787C4.01765 11.2643 4.01765 11.2067 4.03205 11.1779C4.03205 11.1419 4.04645 11.1059 4.04645 11.0915C4.06085 10.969 4.08245 10.8538 4.11845 10.7314C4.16885 10.5081 4.21925 10.2992 4.29125 10.0976L4.39205 9.78788C4.39205 9.77347 4.40645 9.75187 4.40645 9.73746C4.42085 9.70145 4.42085 9.68704 4.44245 9.65103C4.52885 9.46377 4.62965 9.27652 4.75205 9.10366C4.76645 9.06765 4.85285 8.96682 4.85285 8.95241C4.88885 8.902 4.93926 8.85158 4.97526 8.81557C5.02566 8.74355 5.09766 8.69313 5.16246 8.62831C5.19846 8.5923 5.22726 8.5779 5.26326 8.54188L5.27766 8.52748C5.27766 8.52748 5.29206 8.52748 5.29206 8.51307C5.44326 8.41224 5.58006 8.32582 5.75286 8.23939C5.76726 8.22498 5.78887 8.22498 5.80327 8.20338C5.81767 8.18897 5.86807 8.18897 5.88967 8.16737C5.99047 8.13135 6.09847 8.09534 6.19927 8.08094C6.30007 8.06653 6.38647 8.03052 6.48727 8.00891C6.48727 8.00891 6.57367 7.99451 6.60967 7.99451H6.68168C6.85448 7.98011 7.02728 7.98011 7.19288 7.98011H7.53849H9.97211H15.6026C15.5522 11.2355 15.5522 14.4694 15.5882 17.7248C15.5882 18.7331 15.6026 19.7486 15.6242 20.7569C15.6242 20.7929 15.6098 20.829 15.6098 20.8794C15.5594 24.3221 15.5738 27.7647 15.6098 31.2074C15.6242 31.9637 15.6242 32.7127 15.6458 33.4689C15.4946 33.4689 15.3362 33.4834 15.185 33.4834C13.3202 33.5698 11.4697 33.5698 9.64091 33.4473ZM22.1691 26.9581C22.1907 26.9221 22.2195 26.9077 22.1691 26.9581V26.9581ZM40.2845 29.8534C40.1837 28.6506 40.1477 27.4046 39.6148 26.2883C39.0316 25.0711 37.8508 24.5597 36.5836 24.4589C35.23 24.3581 33.862 24.4445 32.5084 24.4445C31.1044 24.4445 29.6859 24.4589 28.2819 24.4589C27.0147 24.4589 25.7475 24.4085 24.4947 24.5093C23.4363 24.5957 22.3203 24.783 21.413 25.3808C20.6426 25.8922 20.081 26.634 19.8218 27.5199C19.6346 28.1537 19.5842 28.8235 19.5122 29.4717C19.4762 29.7814 19.4618 30.1055 19.4258 30.4152C19.4258 30.4872 19.4114 30.5664 19.3898 30.6385C19.4258 30.3792 19.3898 30.6241 19.3754 30.6889C19.361 30.8617 19.325 31.013 19.289 31.1858C19.253 31.3371 19.217 31.4955 19.1666 31.6324C19.1522 31.7044 19.1162 31.7692 19.0946 31.8412C19.0802 31.8556 19.0802 31.8917 19.0586 31.9133C18.9866 32.0501 18.9218 32.1869 18.8498 32.3094C18.8138 32.3598 18.7994 32.3958 18.7634 32.4318C18.7634 32.4318 18.6914 32.5182 18.6626 32.5543C18.6122 32.6047 18.5618 32.6551 18.5114 32.7055C18.461 32.7559 18.2522 32.8928 18.4394 32.7775C18.2882 32.8784 18.1298 32.9792 17.9786 33.0656C17.9426 33.08 17.8058 33.1376 17.8058 33.1376C17.7338 33.152 17.6834 33.1881 17.6186 33.2025C17.5178 33.2385 17.4314 33.2529 17.3306 33.2889C17.2802 30.1055 17.2586 26.9365 17.2802 23.7531C17.2802 23.0689 17.2946 22.3991 17.2946 21.7148C20.5274 21.6644 23.7675 21.6428 27.0003 21.6428C30.3555 21.6428 33.7108 21.6788 37.0516 21.7292C37.858 21.7436 38.6644 21.7292 39.4852 21.7797C39.6724 21.7941 39.8596 21.7941 40.0469 21.8157C40.1333 21.8157 40.2341 21.8301 40.3205 21.8517C40.3709 21.8517 40.4069 21.8517 40.4573 21.8661H40.4717C40.8461 21.9165 41.2277 22.0029 41.5877 22.1254C41.6741 22.1614 41.7605 22.1758 41.8469 22.2118C41.8613 22.2118 41.8829 22.2262 41.9189 22.2262C41.9333 22.2262 41.9333 22.2406 41.9693 22.2406C42.1421 22.3126 42.2933 22.3919 42.4517 22.4999C42.5381 22.5503 42.6029 22.6007 42.6749 22.6511C42.6893 22.6655 42.7253 22.6871 42.7613 22.7015L42.7757 22.716C42.9125 22.8384 43.0493 22.9536 43.1717 23.0761C43.2221 23.1481 43.2941 23.1985 43.3445 23.2633C43.3589 23.2777 43.3805 23.3137 43.3949 23.3354C43.4957 23.4722 43.6037 23.6234 43.6829 23.7819C43.7693 23.9187 43.8557 24.07 43.9205 24.2284C43.9565 24.3005 43.9925 24.3797 44.0213 24.4517V24.4661C44.0357 24.5021 44.0573 24.5381 44.0573 24.5669C44.6045 26.0074 44.8133 27.5631 45.1013 29.0684C45.4253 30.8473 45.7709 32.6335 46.0949 34.4124C46.7645 37.992 47.4269 41.5715 48.0965 45.151C48.1325 45.3023 48.1685 45.4751 48.1829 45.6336C45.9941 45.6336 43.7837 45.6336 41.5949 45.648C41.1413 40.3975 40.7309 35.1255 40.2845 29.8534ZM3.21844 48.2264C3.20404 48.2408 3.20404 48.2624 3.21844 48.2264V48.2264ZM1.76402 65.3894C1.76402 65.4038 1.76402 65.4038 1.76402 65.3894V65.3894ZM10.6489 69.3219H10.7209H10.7065H10.6489ZM11.3329 69.3219H10.9729V69.2498V69.2354V68.0399H15.5594V68.4864V69.0194V69.3075V69.3435H13.7306C12.9241 69.3219 12.1393 69.3219 11.3329 69.3219ZM15.509 69.4803C15.4946 69.5163 15.473 69.5523 15.473 69.5523C15.4586 69.5451 15.4946 69.5163 15.509 69.4803ZM49.7166 69.3219C49.7022 69.3219 49.7022 69.3219 49.7166 69.3219H49.7886H49.7742H49.7166ZM54.5766 69.4803C54.5622 69.5163 54.5406 69.5523 54.5406 69.5523C54.5262 69.5451 54.5622 69.5163 54.5766 69.4803ZM54.6126 68.472V69.005V69.293V69.3291H52.7838H50.3862H50.0262V69.257V69.2426V67.903C51.5526 67.903 53.0934 67.8886 54.6126 67.8886C54.6126 68.0759 54.6126 68.2775 54.6126 68.472ZM64.4191 66.0736C64.3183 66.1024 64.3687 66.088 64.4191 66.0736V66.0736ZM64.6135 65.9656C64.5415 66.0232 64.5775 65.9872 64.6135 65.9656V65.9656ZM64.7647 65.7999C64.7287 65.8864 64.7503 65.8288 64.7647 65.7999V65.7999ZM65.0383 64.9429C65.0383 65.1517 64.9663 65.4398 64.9159 65.5623C64.8799 65.6343 64.8295 65.6991 64.7935 65.7639C64.7935 65.7639 64.7935 65.7783 64.7791 65.7783C64.7287 65.8288 64.6783 65.8792 64.6279 65.9296L64.6135 65.944C64.5631 65.98 64.4911 66.016 64.4407 66.0448H64.4263C64.3543 66.0592 64.2895 66.0808 64.2175 66.0952C64.2031 66.0952 64.2031 66.0952 64.1815 66.1096H64.1455C63.2887 66.0736 62.4319 66.1096 61.5967 66.124C60.7255 66.124 59.8471 66.124 58.9759 66.1385C57.2262 66.1385 55.4838 66.1529 53.7342 66.1529C50.1918 66.1673 46.6493 66.1889 43.0853 66.2033C36.0652 66.2393 29.0451 66.2753 22.025 66.2897C18.497 66.3041 14.9546 66.3041 11.4265 66.3257H7.31528C7.62489 66.0016 7.93449 65.6919 8.23689 65.3678C8.4745 65.1301 8.4961 64.698 8.23689 64.4603C7.97769 64.2226 7.58889 64.201 7.32968 64.4603C6.73208 65.0797 6.12727 65.6919 5.52966 66.3257H3.70084H3.54244C4.88166 64.9069 6.19207 63.4808 7.53129 62.0476C7.76889 61.7883 7.79049 61.3994 7.53129 61.1401C7.29368 60.9024 6.86168 60.8808 6.62407 61.1401C5.09766 62.7822 3.55684 64.4099 2.03762 66.052C2.02322 66.0376 2.00162 66.016 1.98722 66.0016C1.98722 66.0016 1.98722 65.9872 1.97282 65.9872C1.97282 65.9728 1.95842 65.9728 1.95842 65.9512C1.94402 65.9008 1.90802 65.8648 1.87202 65.8143C1.85762 65.7999 1.85762 65.7783 1.83602 65.7639C1.83602 65.7495 1.83602 65.7279 1.82162 65.7135C1.77122 65.5767 1.73522 65.4542 1.72082 65.3174V65.267C1.72082 65.1805 1.70642 65.0797 1.70642 64.9933V64.8204V64.0138C1.77842 63.9778 1.84322 63.9418 1.89362 63.8913C2.59203 63.2719 3.29764 62.6381 4.01765 62.026C4.27685 61.8027 4.25525 61.3417 4.01765 61.1185C3.74404 60.8808 3.38404 60.8808 3.11044 61.1185C2.64963 61.529 2.18882 61.9395 1.70642 62.3501V58.857V53.945C1.70642 53.0735 1.65602 52.166 1.74242 51.2874C1.74242 51.2009 1.75682 51.1361 1.75682 51.0497C1.75682 51.0353 1.75682 50.9993 1.77122 50.9777C1.78562 50.8408 1.82162 50.6896 1.85762 50.5527C1.92962 50.243 2.00882 49.955 2.13122 49.6813C2.20322 49.53 2.14562 49.6308 2.13122 49.6669C2.16722 49.5948 2.20322 49.5156 2.23203 49.4436C2.28243 49.3211 2.35443 49.2059 2.41923 49.1051C2.49123 49.0042 2.55603 48.8818 2.64243 48.781C2.62803 48.817 2.54163 48.9034 2.64243 48.7666C2.69283 48.6945 2.76483 48.6297 2.81523 48.5577C2.90163 48.4713 2.98803 48.3704 3.08883 48.284C3.12484 48.248 3.17524 48.212 3.21124 48.1832C3.22564 48.1832 3.22564 48.1688 3.22564 48.1688C3.32644 48.0968 3.43444 48.0319 3.54964 47.9599C3.62164 47.9239 3.68644 47.8879 3.75124 47.8591C3.76564 47.8591 3.87364 47.8087 3.88804 47.7871C4.12565 47.7006 4.37045 47.6358 4.60805 47.5782C4.59365 47.5782 4.69445 47.5638 4.74485 47.5638C4.79525 47.5638 4.89606 47.5494 4.88166 47.5494C5.08326 47.535 5.29206 47.535 5.50086 47.535C8.9065 47.535 12.2977 47.5206 15.7034 47.499C21.7658 47.463 27.8211 47.4269 33.9052 47.3981C39.1252 47.3621 44.3309 47.3477 49.551 47.3477C54.2382 47.3621 58.9471 47.3981 63.6415 47.5206C63.7783 47.5206 63.9151 47.5206 64.0519 47.535H64.1887C64.2031 47.535 64.3399 47.571 64.3399 47.571C64.3759 47.571 64.3903 47.5854 64.4263 47.607C64.4263 47.607 64.5487 47.6574 64.5631 47.679C64.5775 47.6934 64.5991 47.6934 64.6135 47.715C64.6135 47.7294 64.6999 47.8015 64.7143 47.8159L64.7287 47.8303C64.7647 47.8807 64.8007 47.9311 64.8295 47.9815C64.8439 47.9959 64.8439 48.0319 64.8655 48.0536C64.8655 48.068 64.9159 48.176 64.9159 48.1904C64.9303 48.2408 64.9519 48.2912 64.9519 48.3416C64.9519 48.3416 64.9663 48.4137 64.9663 48.4641C64.9663 48.5145 64.9807 48.6009 64.9807 48.6009C64.9807 48.6874 64.9807 48.7738 64.9951 48.8602C64.9951 52.1156 64.9807 55.3855 64.9807 58.6409C64.9807 60.319 64.9807 62.0116 64.9951 63.6897C65.0239 64.1002 65.0383 64.5323 65.0383 64.9429ZM68.84 27.2966C68.8256 27.3182 68.8256 27.3182 68.84 27.2966V27.2966ZM69.2 27.1093C69.2144 27.0949 69.236 27.0589 69.236 27.0589C69.2504 27.0589 69.236 27.0805 69.2 27.1093ZM69.2864 26.8861V26.9005C69.2864 26.9365 69.272 26.9509 69.272 26.9725V26.9869C69.2864 26.9509 69.308 26.9365 69.272 27.0013V27.0157C69.272 27.0301 69.2576 27.0517 69.2576 27.0517V27.0373C69.2432 27.0517 69.2432 27.0733 69.2216 27.0877V27.1021C69.2072 27.1165 69.1712 27.1526 69.1496 27.1742H69.164C69.164 27.1742 69.1496 27.1886 69.128 27.1886L69.1136 27.203C69.0632 27.2534 69.0776 27.239 69.1136 27.203L69.0416 27.239H69.0272C69.0128 27.239 68.9912 27.2534 68.9912 27.2534C68.9768 27.2534 68.9552 27.2534 68.9408 27.2678C68.9048 27.2678 68.8544 27.2822 68.8184 27.2822H68.4944H66.7664V22.0605V14.9879V13.2738H68.516H68.7752H68.876C68.912 13.2882 68.9984 13.3098 69.0488 13.3242C69.0848 13.3386 69.0992 13.3602 69.1352 13.3746C69.1496 13.389 69.1712 13.4106 69.1856 13.4106C69.1856 13.4106 69.2 13.425 69.2216 13.4466C69.1856 13.3962 69.2072 13.4106 69.2216 13.4466C69.236 13.461 69.2576 13.4826 69.2576 13.4826C69.2576 13.4826 69.2432 13.4826 69.2432 13.4682C69.2576 13.5042 69.2792 13.5187 69.2936 13.5547V13.5691C69.2936 13.5835 69.308 13.6195 69.308 13.6555V13.7779V13.9004V14.4045V18.6683V23.9403C69.308 24.8982 69.3224 25.8561 69.308 26.814V26.8285V26.8429C69.308 26.8429 69.308 26.8285 69.3224 26.8285C69.3008 26.8357 69.2864 26.8573 69.2864 26.8861Z" fill="white"/>
<path d="M64.4767 9.16126C64.4623 9.14685 64.4407 9.12524 64.4407 9.11084L64.4263 9.09644C64.4551 9.14685 64.4767 9.16126 64.4767 9.16126Z" fill="white"/>
<path d="M64.6999 9.59351C64.7143 9.64392 64.7287 9.65833 64.6999 9.59351V9.59351Z" fill="white"/>
<path d="M53.1222 1.8006C53.1078 1.8006 53.1078 1.815 53.0862 1.815C53.1078 1.8006 53.1222 1.8006 53.1222 1.8006C53.1438 1.78619 53.1222 1.78619 53.1222 1.8006Z" fill="white"/>
<path d="M54.0294 1.76465H53.9574C53.979 1.76465 53.9934 1.78626 54.0294 1.76465Z" fill="white"/>
<path d="M54.3246 1.97348C54.3246 1.95187 54.3246 1.95187 54.3246 1.97348L54.3102 1.95908C54.3102 1.97348 54.3246 1.99509 54.3462 2.00949C54.339 1.97348 54.339 1.97348 54.3246 1.97348Z" fill="white"/>
<path d="M19.433 2.72241C19.433 2.73682 19.4186 2.73682 19.4186 2.75842C19.4186 2.77283 19.4186 2.77283 19.4042 2.79443C19.4114 2.79443 19.4114 2.75842 19.433 2.72241Z" fill="white"/>
<path d="M19.5338 2.62134C19.5688 2.60734 19.5688 2.60734 19.5338 2.62134V2.62134Z" fill="white"/>
<path d="M20.8003 2.70736C20.7653 2.65837 20.7653 2.69336 20.8003 2.70736V2.70736Z" fill="white"/>
<path d="M5.22006 49.2349C4.34885 49.4581 3.60724 50.1784 3.36963 51.0498C3.31923 51.2011 3.35523 51.3955 3.43444 51.5468C3.52084 51.6836 3.65764 51.8061 3.80884 51.8349C3.98164 51.8709 4.15444 51.8709 4.30565 51.7629C4.44245 51.6764 4.56485 51.5396 4.59365 51.3883C4.60805 51.3379 4.62965 51.2659 4.64405 51.2155C4.69445 51.1147 4.74485 51.0282 4.81685 50.9418C4.88885 50.8554 4.96805 50.7689 5.05445 50.7041C5.15525 50.6321 5.24166 50.5817 5.34246 50.5313C5.41446 50.5169 5.46486 50.4953 5.52966 50.4809C5.68086 50.4448 5.83926 50.3296 5.90406 50.1928C5.99046 50.0559 6.02646 49.8471 5.97606 49.6958C5.90406 49.3429 5.58006 49.134 5.22006 49.2349Z" fill="white"/>
<path d="M63.1591 61.9754C62.7991 61.9899 62.5399 62.2491 62.5111 62.6236C62.4751 63.1854 62.4391 63.7688 62.3887 64.3378C62.3743 64.489 62.4751 64.6835 62.5759 64.7987C62.6983 64.9212 62.8639 64.986 63.0367 64.986C63.3967 64.9716 63.6559 64.7123 63.6847 64.3378C63.7207 63.776 63.7495 63.1926 63.8071 62.6236C63.8215 62.4724 63.7207 62.2779 63.6199 62.1627C63.4975 62.0475 63.3247 61.961 63.1591 61.9754Z" fill="white"/>
<path d="M6.86168 9.35575C5.85367 9.8311 5.16966 10.9979 5.23447 12.1142C5.24887 12.4527 5.52247 12.7624 5.88247 12.7624C6.20648 12.748 6.55208 12.4743 6.53048 12.1142V11.7901C6.56648 11.6389 6.60248 11.502 6.65288 11.3652C6.65288 11.3508 6.65288 11.3508 6.66728 11.3508C6.68168 11.3004 6.71768 11.2643 6.73928 11.2139C6.78968 11.1275 6.82568 11.0627 6.89048 10.9763C6.89048 10.9763 6.89048 10.9619 6.90488 10.9619C6.91928 10.9258 6.95528 10.9114 6.97688 10.8754C7.04889 10.8034 7.09929 10.7386 7.18569 10.6882C7.18569 10.6882 7.20009 10.6738 7.22169 10.6522C7.23609 10.6378 7.27209 10.6161 7.29369 10.6017C7.38009 10.5513 7.46649 10.5009 7.55289 10.4649C7.68969 10.3929 7.81209 10.2272 7.84809 10.0904C7.88409 9.93913 7.8625 9.73026 7.77609 9.59342C7.53129 9.26932 7.19289 9.1973 6.86168 9.35575ZM6.64568 11.358C6.64568 11.3364 6.64568 11.3364 6.64568 11.358C6.64568 11.322 6.66008 11.286 6.64568 11.358ZM6.84728 10.9763C6.86168 10.9619 6.86168 10.9763 6.84728 10.9763C6.81128 11.0123 6.84728 10.9979 6.84728 10.9763ZM7.14249 10.6738L7.15689 10.6594C7.14249 10.6882 7.08489 10.7026 7.14249 10.6738Z" fill="white"/>
<path d="M6.21367 28.5643C5.86806 28.5787 5.56566 28.838 5.56566 29.2125V30.6818C5.56566 30.8546 5.63766 31.0275 5.75286 31.1427C5.87526 31.2652 6.04086 31.33 6.21367 31.33C6.55927 31.3156 6.86167 31.0563 6.86167 30.6818V29.2125C6.86167 29.0397 6.78967 28.8668 6.67447 28.7516C6.55927 28.6363 6.37207 28.5499 6.21367 28.5643Z" fill="white"/>
<path d="M57.7951 16.8893C57.8095 16.9253 57.8311 16.9397 57.8455 16.9757C57.8599 17.0117 57.8815 17.0622 57.8815 17.1126V17.2494C57.8671 17.2854 57.8671 17.3358 57.8455 17.3719C57.8095 17.4223 57.7951 17.4727 57.7591 17.5231C57.6583 17.6455 57.6583 17.8832 57.6871 18.0201C57.7231 18.1713 57.8383 18.3298 57.9751 18.3946C58.1263 18.481 58.2991 18.517 58.4719 18.4666C58.5223 18.4522 58.5727 18.4162 58.6231 18.3946C58.7239 18.3442 58.7959 18.2577 58.8463 18.1713C58.9687 18.0201 59.0335 17.8472 59.0839 17.6599C59.1343 17.4727 59.1559 17.2854 59.1559 17.0766C59.1199 16.6444 58.9687 16.2339 58.6447 15.9314C58.5223 15.809 58.3567 15.7441 58.1839 15.7441C58.0327 15.7441 57.8383 15.8162 57.7231 15.9314C57.6007 16.0538 57.5359 16.2195 57.5359 16.3923C57.5359 16.5652 57.6079 16.7164 57.7231 16.8533C57.7663 16.8533 57.7807 16.8677 57.7951 16.8893Z" fill="white"/>
</g>
<defs>
<clipPath id="clip0_218_943">
<rect width="71" height="71" fill="white"/>
</clipPath>
</defs>
</svg>
