<svg width="87" height="80" viewBox="0 0 87 80" fill="none" xmlns="http://www.w3.org/2000/svg">
<g clip-path="url(#clip0_218_841)">
<path d="M36.9106 48.2774C36.9106 51.4827 34.326 54.0819 31.1386 54.0819C27.9513 54.0819 25.3666 51.4827 25.3666 48.2774C25.3666 45.0721 27.9513 42.4729 31.1386 42.4729C34.326 42.4729 36.9106 45.0721 36.9106 48.2774Z" stroke="white" stroke-width="2" stroke-miterlimit="10" stroke-linecap="round" stroke-linejoin="round"/>
<path d="M43.4315 40.8565C44.8425 43.2123 45.6051 45.9951 45.4727 48.9387C45.1119 56.8831 38.4038 63.0366 30.5039 62.6693C22.6039 62.3019 16.4803 55.5652 16.8456 47.6208C17.2064 39.6763 23.9145 33.5228 31.8144 33.8856C34.2575 34.0004 36.5407 34.7214 38.4997 35.9062" stroke="white" stroke-width="2" stroke-miterlimit="10" stroke-linecap="round" stroke-linejoin="round"/>
<path d="M49.5643 34.8865C52.4822 38.9276 54.1125 43.9515 53.8659 49.3243C53.2905 61.9298 42.6507 71.6927 30.1158 71.1141C17.5809 70.5355 7.87258 59.8357 8.44796 47.2303C9.02333 34.6248 19.6632 24.8619 32.1981 25.4405C36.8467 25.6563 41.1072 27.259 44.5868 29.8398" stroke="white" stroke-width="2" stroke-miterlimit="10" stroke-linecap="round" stroke-linejoin="round"/>
<path d="M55.1262 29.4586C59.6059 35.1024 62.1402 42.3213 61.7886 50.0958C61.0123 67.1143 46.66 80.2846 29.7367 79.504C12.8089 78.7279 -0.287683 64.2901 0.488614 47.2716C1.26491 30.2393 15.6173 17.069 32.5451 17.8496C39.1801 18.1573 45.2216 20.5544 50.0574 24.3935" stroke="white" stroke-width="2" stroke-miterlimit="10" stroke-linecap="round" stroke-linejoin="round"/>
<path d="M53.8704 23.3604L61.5557 23.0573L69.1223 14.7639L62.3822 14.0292L61.0717 7.33838L53.5051 15.6318L53.8704 23.3604Z" stroke="white" stroke-width="2" stroke-miterlimit="10" stroke-linecap="round" stroke-linejoin="round"/>
<path d="M65.9669 10.1028L31.1386 48.2774" stroke="white" stroke-width="2" stroke-miterlimit="10" stroke-linecap="round" stroke-linejoin="round"/>
<path d="M70.2092 15.2598L77.858 16.0818L86.5434 8.98227L79.9814 7.2694L79.6526 0.459229L70.9672 7.55871L70.2092 15.2598Z" stroke="white" stroke-width="2" stroke-miterlimit="10" stroke-linecap="round" stroke-linejoin="round"/>
<path d="M84.0912 3.90796L30.9788 48.406" stroke="white" stroke-width="2" stroke-miterlimit="10" stroke-linecap="round" stroke-linejoin="round"/>
</g>
<defs>
<clipPath id="clip0_218_841">
<rect width="87" height="80" fill="white"/>
</clipPath>
</defs>
</svg>
