<svg width="51" height="80" viewBox="0 0 51 80" fill="none" xmlns="http://www.w3.org/2000/svg">
<g clip-path="url(#clip0_218_851)">
<path d="M30.6847 49.6528V58.6693H41.0742V68.9585H30.6847V79.5998H20.3153V68.9585H9.92572V58.6693H20.3153V49.6528" stroke="white" stroke-width="2" stroke-miterlimit="10" stroke-linecap="round" stroke-linejoin="round"/>
<path d="M30.6847 49.6528C42.0543 47.2676 50.5967 37.2666 50.5967 25.2806C50.5967 11.5497 39.3601 0.400146 25.498 0.400146C11.6358 0.400146 0.40332 11.5497 0.40332 25.2806C0.40332 37.2666 8.94567 47.2676 20.3153 49.6528" stroke="white" stroke-width="2" stroke-miterlimit="10" stroke-linecap="round" stroke-linejoin="round"/>
<path d="M17.3348 17.5648V13.6589C17.3348 12.4743 18.2987 11.5178 19.4885 11.5178H19.7144C20.9082 11.5178 21.8721 12.4743 21.8721 13.6589V18.1211" stroke="white" stroke-width="2" stroke-miterlimit="10" stroke-linecap="round" stroke-linejoin="round"/>
<path d="M23.1587 20.4823C23.4209 20.6023 23.7193 20.6664 24.0339 20.6664H24.2558C25.4496 20.6664 26.4135 19.7059 26.4135 18.5253V12.4623C26.4135 11.2857 25.4496 10.3252 24.2558 10.3252H24.0339C22.8401 10.3252 21.8762 11.2857 21.8762 12.4623V13.6589V18.1211" stroke="white" stroke-width="2" stroke-miterlimit="10" stroke-linecap="round" stroke-linejoin="round"/>
<path d="M30.3338 21.4547H27.0306C26.6878 21.4547 26.4135 21.1786 26.4135 20.8424V11.7258C26.4135 11.3857 26.6918 11.1135 27.0306 11.1135H30.3338C30.6766 11.1135 30.9509 11.3857 30.9509 11.7258V20.8424C30.9509 21.1786 30.6726 21.4547 30.3338 21.4547Z" stroke="white" stroke-width="2" stroke-miterlimit="10" stroke-linecap="round" stroke-linejoin="round"/>
<path d="M34.8712 21.9591H31.5679C31.2251 21.9591 30.9509 21.683 30.9509 21.3468V12.2302C30.9509 11.8901 31.2292 11.6179 31.5679 11.6179H34.8712C35.214 11.6179 35.4882 11.8901 35.4882 12.2302V21.3468C35.4882 21.687 35.214 21.9591 34.8712 21.9591Z" stroke="white" stroke-width="2" stroke-miterlimit="10" stroke-linecap="round" stroke-linejoin="round"/>
<path d="M35.4883 19.926V27.6779C35.4883 32.0481 30.5274 35.2617 30.5274 35.2617L30.6847 49.6569" stroke="white" stroke-width="2" stroke-miterlimit="10" stroke-linecap="round" stroke-linejoin="round"/>
<path d="M20.3153 49.6527L20.2911 34.4491C20.2911 34.4491 16.7298 32.8923 14.3179 28.8183C12.027 24.9404 12.4707 19.7978 12.4707 19.7978C12.9184 18.221 14.455 17.2085 16.0925 17.4046L23.1789 18.281C23.7354 18.3491 24.0621 18.9294 23.8443 19.4336C22.6949 22.0629 19.0005 22.271 17.2662 22.219H17.246C16.7378 22.219 16.3345 22.6232 16.3345 23.1154C16.3345 23.4796 16.5523 23.8038 16.879 23.9439C21.0856 25.6287 22.5658 29.1224 22.5658 29.1224" stroke="white" stroke-width="2" stroke-miterlimit="10" stroke-linecap="round" stroke-linejoin="round"/>
</g>
<defs>
<clipPath id="clip0_218_851">
<rect width="51" height="80" fill="white"/>
</clipPath>
</defs>
</svg>
