<svg width="73" height="78" viewBox="0 0 73 78" fill="none" xmlns="http://www.w3.org/2000/svg">
<g clip-path="url(#clip0_218_861)">
<path d="M10.4612 58.8506V63.8146C10.4612 63.8146 11.7002 74.9769 0.543457 77.4616H51.3821C56.1806 77.4616 60.0608 73.025 60.0608 67.539" stroke="white" stroke-width="2" stroke-miterlimit="10" stroke-linejoin="round"/>
<path d="M10.4612 53.8867V56.366" stroke="white" stroke-width="2" stroke-miterlimit="10" stroke-linejoin="round"/>
<path d="M19.1399 4.34424C14.2489 4.95319 10.4612 9.12885 10.4612 14.1907V51.4074" stroke="white" stroke-width="2" stroke-miterlimit="10" stroke-linejoin="round"/>
<path d="M66.2614 4.2627H35.2637" stroke="white" stroke-width="2" stroke-miterlimit="10" stroke-linejoin="round"/>
<path d="M60.0608 67.5337V19.1494V10.4664C60.0608 7.04103 62.8378 4.2627 66.2614 4.2627C69.6851 4.2627 72.462 7.04103 72.462 10.4664V19.1494H63.7833" stroke="white" stroke-width="2" stroke-miterlimit="10" stroke-linejoin="round"/>
<path d="M26.5796 14.1907L28.8783 19.0895L34.0192 19.8778L30.3021 23.6892L31.1825 29.0773L26.5796 26.5328L21.9821 29.0773L22.8624 23.6892L19.1399 19.8778L24.2808 19.0895L26.5796 14.1907Z" stroke="white" stroke-width="2" stroke-miterlimit="10" stroke-linejoin="round"/>
<path d="M38.9808 22.8737C38.9808 29.7244 33.4269 35.281 26.5796 35.281C19.7323 35.281 14.1783 29.7298 14.1783 22.8737C14.1783 16.023 19.7323 10.4663 26.5796 10.4663C33.4323 10.4663 38.9808 16.023 38.9808 22.8737Z" stroke="white" stroke-width="2" stroke-miterlimit="10" stroke-linejoin="round"/>
<path d="M17.9009 14.1907V6.87787C17.9009 3.38184 20.7376 0.543701 24.2319 0.543701H40.2199" stroke="white" stroke-width="2" stroke-miterlimit="10" stroke-linejoin="round"/>
<path d="M43.9424 4.26265C43.9424 4.26265 43.9424 0.543701 40.2199 0.543701C36.4973 0.543701 35.2583 1.75616 35.2583 4.26265V14.1907" stroke="white" stroke-width="2" stroke-miterlimit="10" stroke-linejoin="round"/>
<path d="M26.5796 35.281L31.5412 45.2036L34.0193 40.2396L38.9808 41.4793L34.0193 31.5566" stroke="white" stroke-width="2" stroke-miterlimit="10" stroke-linejoin="round"/>
<path d="M26.5795 35.281L21.6234 45.2036L19.1399 40.2396L14.1837 41.4793L19.1399 31.5566" stroke="white" stroke-width="2" stroke-miterlimit="10" stroke-linejoin="round"/>
<path d="M45.1814 12.9512H55.0991" stroke="white" stroke-width="2" stroke-miterlimit="10" stroke-linejoin="round"/>
<path d="M45.1814 17.9097H55.0991" stroke="white" stroke-width="2" stroke-miterlimit="10" stroke-linejoin="round"/>
<path d="M45.1814 22.8738H55.0991" stroke="white" stroke-width="2" stroke-miterlimit="10" stroke-linejoin="round"/>
<path d="M42.7034 35.281H55.0992" stroke="white" stroke-width="2" stroke-miterlimit="10" stroke-linejoin="round"/>
<path d="M42.7034 40.2397H55.0992" stroke="white" stroke-width="2" stroke-miterlimit="10" stroke-linejoin="round"/>
<path d="M42.7034 45.2036H55.0992" stroke="white" stroke-width="2" stroke-miterlimit="10" stroke-linejoin="round"/>
<path d="M15.4227 50.1677H55.0991" stroke="white" stroke-width="2" stroke-miterlimit="10" stroke-linejoin="round"/>
<path d="M15.4227 55.1262H55.0991" stroke="white" stroke-width="2" stroke-miterlimit="10" stroke-linejoin="round"/>
<path d="M15.4227 60.0903H55.0991" stroke="white" stroke-width="2" stroke-miterlimit="10" stroke-linejoin="round"/>
<path d="M15.4227 65.0544H55.0991" stroke="white" stroke-width="2" stroke-miterlimit="10" stroke-linejoin="round"/>
</g>
<defs>
<clipPath id="clip0_218_861">
<rect width="73" height="78" fill="white"/>
</clipPath>
</defs>
</svg>
