<svg width="67" height="55" viewBox="0 0 67 55" fill="none" xmlns="http://www.w3.org/2000/svg">
<g clip-path="url(#clip0_104_255)">
<mask id="mask0_104_255" style="mask-type:luminance" maskUnits="userSpaceOnUse" x="0" y="0" width="67" height="67">
<path d="M65.8649 66.9741L0.0707237 65.8596L1.18522 0.0654186L66.9794 1.17992L65.8649 66.9741Z" fill="white"/>
</mask>
<g mask="url(#mask0_104_255)">
<path fill-rule="evenodd" clip-rule="evenodd" d="M15.2701 40.0798C12.8278 39.4309 10.6731 37.9828 9.14982 35.9664C7.62656 33.95 6.82247 31.4816 6.86584 28.9549L6.88326 27.9268C6.93406 24.9277 8.1742 22.0715 10.3309 19.9867C12.4875 17.9019 15.384 16.7592 18.3832 16.81L19.4112 16.8274C22.3448 16.8745 25.1451 18.0609 27.2195 20.1358C29.294 22.2107 30.4799 25.0112 30.5263 27.9448L30.5261 27.9571L30.5343 27.9573L30.5106 29.3554C30.5015 29.8954 30.4555 30.4239 30.3727 30.9408C30.2723 32.014 30.131 33.0674 29.949 34.1009C29.4693 36.8083 28.6522 39.4449 27.5167 41.949C25.4809 46.4349 22.3581 50.3421 18.4312 53.3165L18.0229 53.6222C17.8504 53.7489 17.6413 53.8161 17.4273 53.8137C16.6625 53.8007 16.1831 52.9617 16.5482 52.2892C16.8673 51.7048 17.179 51.1163 17.483 50.524C18.1319 49.2484 18.7437 47.9543 19.3175 46.6433C20.2455 44.543 21.0471 42.3891 21.7179 40.1931L21.4949 40.2428C20.6776 40.409 19.8446 40.4859 19.0107 40.4722L17.9827 40.4548C17.0424 40.4361 16.1382 40.3111 15.2701 40.0798ZM12.9147 45.8191C9.32139 44.6853 6.19067 42.4208 3.98911 39.3629C1.78755 36.3051 0.633035 32.6177 0.697636 28.8504L0.71505 27.8223C0.793565 23.1873 2.71014 18.7732 6.04315 15.5512C9.37617 12.3293 13.8526 10.5633 18.4877 10.6418L19.5157 10.6592C22.3475 10.7067 25.1254 11.4416 27.6103 12.8007C30.0951 14.1597 32.2125 16.1023 33.7802 18.4611C35.4268 16.1567 37.6088 14.287 40.1382 13.0129C42.6677 11.7387 45.4689 11.0983 48.3007 11.1468L49.3287 11.1642C53.9032 11.2408 58.2653 13.1078 61.4786 16.3646C64.6919 19.6213 66.5002 24.0081 66.5152 28.5832L66.4918 29.9649C66.4791 30.7188 66.4185 31.4623 66.3101 32.1953C65.2764 42.9547 60.3799 52.5216 51.5073 59.0884C50.2432 60.0219 48.707 60.5133 47.1358 60.4869C41.6215 60.3935 38.4104 54.4776 40.9488 49.8355C41.42 48.9756 42.0534 47.7647 42.7276 46.3282C39.5036 45.3111 36.6856 43.3877 34.5731 40.8551C32.225 47.9584 27.7238 54.1545 21.6943 58.5834C20.4302 59.5168 18.894 60.0083 17.3228 59.9819C11.8085 59.8885 8.59744 53.9726 11.1358 49.3305C11.607 48.4706 12.2404 47.2597 12.9146 45.8232M45.0872 40.5849C45.9733 40.8173 46.8839 40.9432 47.7998 40.9599L48.8278 40.9773C49.7381 40.9916 50.6468 40.8979 51.535 40.6982C50.7412 43.3048 49.7633 45.8518 48.6088 48.32C47.9103 49.8363 47.1607 51.3286 46.3612 52.7942C46.2757 52.9492 46.2317 53.1236 46.2334 53.3005C46.2351 53.4775 46.2825 53.651 46.3709 53.8043C46.4593 53.9577 46.5857 54.0855 46.7381 54.1757C46.8904 54.2658 47.0634 54.315 47.2403 54.3187C47.4543 54.3211 47.6634 54.2539 47.8359 54.1272C49.2175 53.0954 50.5158 51.9566 51.719 50.7213C54.1904 48.1535 56.178 45.1606 57.5861 41.8866C58.5888 39.5517 59.3175 37.1085 59.7579 34.6058C59.9454 33.5724 60.088 32.5191 60.1857 31.4458C60.2658 30.9208 60.3118 30.3913 60.3236 29.8604L60.3472 28.4664L60.3431 28.4663L60.3434 28.4499C60.297 25.5155 59.1105 22.7144 57.0352 20.6394C54.9599 18.5644 52.1586 17.3784 49.2242 17.3324L48.1921 17.3149C45.1929 17.2641 42.2964 18.4068 40.1397 20.4916C37.9831 22.5764 36.7429 25.4326 36.6921 28.4318L36.6747 29.4598C36.5849 34.7645 40.1692 39.284 45.079 40.5847" fill="white"/>
</g>
</g>
<defs>
<clipPath id="clip0_104_255">
<rect width="65.8036" height="65.8036" fill="white" transform="translate(65.8649 66.9741) rotate(-179.03)"/>
</clipPath>
</defs>
</svg>
