<svg width="25" height="26" viewBox="0 0 25 26" fill="none" xmlns="http://www.w3.org/2000/svg">
<path d="M3.90625 11.4375C3.69905 11.4375 3.50034 11.3552 3.35382 11.2087C3.20731 11.0622 3.125 10.8635 3.125 10.6563V4.40781C3.125 4.20061 3.20731 4.0019 3.35382 3.85539C3.50034 3.70887 3.69905 3.62656 3.90625 3.62656H10.1562C10.3635 3.62656 10.5622 3.70887 10.7087 3.85539C10.8552 4.0019 10.9375 4.20061 10.9375 4.40781V10.6563C10.9375 10.8635 10.8552 11.0622 10.7087 11.2087C10.5622 11.3552 10.3635 11.4375 10.1562 11.4375H3.90625ZM14.8437 11.4375C14.6365 11.4375 14.4378 11.3552 14.2913 11.2087C14.1448 11.0622 14.0625 10.8635 14.0625 10.6563V4.40781C14.0625 4.20061 14.1448 4.0019 14.2913 3.85539C14.4378 3.70887 14.6365 3.62656 14.8437 3.62656H21.0922C21.2994 3.62656 21.4981 3.70887 21.6446 3.85539C21.7911 4.0019 21.8734 4.20061 21.8734 4.40781V10.6563C21.8734 10.8635 21.7911 11.0622 21.6446 11.2087C21.4981 11.3552 21.2994 11.4375 21.0922 11.4375H14.8437ZM3.90625 22.375C3.69905 22.375 3.50034 22.2927 3.35382 22.1462C3.20731 21.9997 3.125 21.801 3.125 21.5938V15.3438C3.125 15.1366 3.20731 14.9378 3.35382 14.7913C3.50034 14.6448 3.69905 14.5625 3.90625 14.5625H10.1562C10.3635 14.5625 10.5622 14.6448 10.7087 14.7913C10.8552 14.9378 10.9375 15.1366 10.9375 15.3438V21.5938C10.9375 21.801 10.8552 21.9997 10.7087 22.1462C10.5622 22.2927 10.3635 22.375 10.1562 22.375H3.90625ZM14.8437 22.375C14.6365 22.375 14.4378 22.2927 14.2913 22.1462C14.1448 21.9997 14.0625 21.801 14.0625 21.5938V15.3438C14.0625 15.1366 14.1448 14.9378 14.2913 14.7913C14.4378 14.6448 14.6365 14.5625 14.8437 14.5625H21.0922C21.2994 14.5625 21.4981 14.6448 21.6446 14.7913C21.7911 14.9378 21.8734 15.1366 21.8734 15.3438V21.5938C21.8734 21.801 21.7911 21.9997 21.6446 22.1462C21.4981 22.2927 21.2994 22.375 21.0922 22.375H14.8437Z" fill="white"/>
</svg>
