<svg width="35" height="35" viewBox="0 0 35 35" fill="none" xmlns="http://www.w3.org/2000/svg">
<path d="M31.7997 14.6437H30.625V14.5832H17.5V20.4165H25.7418C24.5394 23.8122 21.3084 26.2498 17.5 26.2498C12.6678 26.2498 8.75 22.332 8.75 17.4998C8.75 12.6676 12.6678 8.74984 17.5 8.74984C19.7305 8.74984 21.7598 9.59129 23.3049 10.9658L27.4298 6.84088C24.8252 4.41348 21.3413 2.9165 17.5 2.9165C9.44636 2.9165 2.91667 9.44619 2.91667 17.4998C2.91667 25.5535 9.44636 32.0832 17.5 32.0832C25.5536 32.0832 32.0833 25.5535 32.0833 17.4998C32.0833 16.522 31.9827 15.5675 31.7997 14.6437Z" fill="#FFC107"/>
<path d="M4.59813 10.712L9.38948 14.2259C10.6859 11.0161 13.8257 8.74984 17.5 8.74984C19.7305 8.74984 21.7598 9.59129 23.3049 10.9658L27.4298 6.84088C24.8252 4.41348 21.3413 2.9165 17.5 2.9165C11.8985 2.9165 7.04084 6.0789 4.59813 10.712Z" fill="#FF3D00"/>
<path d="M17.5 32.0833C21.2669 32.0833 24.6896 30.6418 27.2774 28.2975L22.7638 24.4781C21.2505 25.629 19.4013 26.2515 17.5 26.25C13.7069 26.25 10.4861 23.8314 9.27281 20.4561L4.51718 24.1201C6.93072 28.8429 11.8322 32.0833 17.5 32.0833Z" fill="#4CAF50"/>
<path d="M31.7997 14.644H30.625V14.5835H17.5V20.4168H25.7418C25.1666 22.033 24.1306 23.4452 22.7617 24.479L22.7639 24.4776L27.2774 28.2969C26.958 28.5871 32.0833 24.7918 32.0833 17.5002C32.0833 16.5224 31.9827 15.5679 31.7997 14.644Z" fill="#1976D2"/>
</svg>
