<svg width="28" height="28" viewBox="0 0 28 28" fill="none" xmlns="http://www.w3.org/2000/svg">
<path d="M22.2495 15.3323L15.6496 21.9333C15.2121 22.3708 14.6187 22.6165 14 22.6165C13.3812 22.6165 12.7878 22.3708 12.3503 21.9333L5.75045 15.3335C5.20488 14.7927 4.77151 14.1495 4.4752 13.4407C4.1789 12.732 4.0255 11.9717 4.02382 11.2035C4.02214 10.4353 4.1722 9.67432 4.4654 8.96428C4.7586 8.25424 5.18915 7.6091 5.73235 7.0659C6.27554 6.52271 6.92068 6.09215 7.63072 5.79896C8.34076 5.50576 9.10172 5.35569 9.86991 5.35737C10.6381 5.35906 11.3984 5.51245 12.1071 5.80876C12.8159 6.10506 13.4591 6.53844 14 7.08401C15.0984 6.01286 16.5747 5.41762 18.109 5.42723C19.6432 5.43684 21.1119 6.05054 22.1969 7.13537C23.2819 8.2202 23.8958 9.68882 23.9056 11.2231C23.9155 12.7573 23.3204 14.2337 22.2495 15.3323Z" stroke="black" stroke-width="2" stroke-linecap="round" stroke-linejoin="round"/>
</svg>
