<svg width="45" height="45" viewBox="0 0 45 45" fill="none" xmlns="http://www.w3.org/2000/svg">
<path fill-rule="evenodd" clip-rule="evenodd" d="M22.9631 39.3169C25.1196 37.3601 27.1154 35.2333 28.9313 32.9569C32.7563 28.1512 35.0831 23.4131 35.2406 19.2C35.3029 17.4877 35.0195 15.7805 34.4073 14.1802C33.795 12.5799 32.8665 11.1195 31.6772 9.8861C30.4879 8.65271 29.0622 7.67169 27.4852 7.00163C25.9083 6.33157 24.2125 5.98623 22.4991 5.98623C20.7857 5.98623 19.0899 6.33157 17.5129 7.00163C15.936 7.67169 14.5103 8.65271 13.3209 9.8861C12.1316 11.1195 11.2031 12.5799 10.5909 14.1802C9.97861 15.7805 9.69518 17.4877 9.7575 19.2C9.91687 23.4131 12.2456 28.1512 16.0687 32.9569C17.8846 35.2333 19.8804 37.3601 22.0369 39.3169C22.2444 39.5044 22.3988 39.6406 22.5 39.7256L22.9631 39.3169ZM21.1163 41.5013C21.1163 41.5013 7.5 30.0338 7.5 18.75C7.5 14.7718 9.08035 10.9564 11.8934 8.1434C14.7064 5.33035 18.5218 3.75 22.5 3.75C26.4782 3.75 30.2936 5.33035 33.1066 8.1434C35.9196 10.9564 37.5 14.7718 37.5 18.75C37.5 30.0338 23.8837 41.5013 23.8837 41.5013C23.1263 42.1988 21.8794 42.1912 21.1163 41.5013ZM22.5 24C23.8924 24 25.2277 23.4469 26.2123 22.4623C27.1969 21.4777 27.75 20.1424 27.75 18.75C27.75 17.3576 27.1969 16.0223 26.2123 15.0377C25.2277 14.0531 23.8924 13.5 22.5 13.5C21.1076 13.5 19.7723 14.0531 18.7877 15.0377C17.8031 16.0223 17.25 17.3576 17.25 18.75C17.25 20.1424 17.8031 21.4777 18.7877 22.4623C19.7723 23.4469 21.1076 24 22.5 24ZM22.5 26.25C20.5109 26.25 18.6032 25.4598 17.1967 24.0533C15.7902 22.6468 15 20.7391 15 18.75C15 16.7609 15.7902 14.8532 17.1967 13.4467C18.6032 12.0402 20.5109 11.25 22.5 11.25C24.4891 11.25 26.3968 12.0402 27.8033 13.4467C29.2098 14.8532 30 16.7609 30 18.75C30 20.7391 29.2098 22.6468 27.8033 24.0533C26.3968 25.4598 24.4891 26.25 22.5 26.25Z" fill="#A06242"/>
</svg>
