<svg width="41" height="41" viewBox="0 0 41 41" fill="none" xmlns="http://www.w3.org/2000/svg">
<g clip-path="url(#clip0_291_4340)">
<path d="M0.868272 20.2547C0.867318 23.6995 1.76741 27.0631 3.47892 30.0278L0.70459 40.1573L11.0709 37.4392C13.9381 39.0001 17.1506 39.8179 20.4151 39.8182H20.4237C31.2005 39.8182 39.973 31.0488 39.9777 20.2701C39.9797 15.047 37.9475 10.1356 34.2553 6.44053C30.5637 2.74576 25.654 0.709903 20.4229 0.70752C9.64482 0.70752 0.872881 9.47643 0.868431 20.2547" fill="url(#paint0_linear_291_4340)"/>
<path d="M0.170039 20.2483C0.168926 23.817 1.10128 27.3009 2.87381 30.3718L0 40.8644L10.738 38.049C13.6967 39.6621 17.0279 40.5126 20.4175 40.5139H20.4263C31.5897 40.5139 40.6774 31.429 40.6822 20.2645C40.6841 14.8538 38.5788 9.76579 34.7546 5.93833C30.93 2.11134 25.8448 0.00222481 20.4263 0C9.26091 0 0.174488 9.08357 0.170039 20.2483ZM6.56493 29.8429L6.16398 29.2065C4.47853 26.5265 3.58893 23.4296 3.5902 20.2496C3.5937 10.9697 11.146 3.41985 20.4326 3.41985C24.9299 3.42175 29.1564 5.1749 32.3353 8.35574C35.5141 11.5369 37.2633 15.7656 37.2622 20.2632C37.258 29.543 29.7056 37.0939 20.4263 37.0939H20.4196C17.3981 37.0923 14.4349 36.2809 11.8506 34.7475L11.2356 34.3828L4.86343 36.0535L6.56493 29.8429Z" fill="url(#paint1_linear_291_4340)"/>
<path d="M15.3637 11.7833C14.9845 10.9405 14.5855 10.9235 14.2249 10.9087C13.9296 10.896 13.5921 10.897 13.2549 10.897C12.9173 10.897 12.3689 11.024 11.9054 11.5301C11.4413 12.0367 10.1338 13.261 10.1338 15.751C10.1338 18.2411 11.9475 20.6477 12.2003 20.9857C12.4535 21.3231 15.7017 26.5965 20.8461 28.6252C25.1215 30.3111 25.9916 29.9758 26.9195 29.8913C27.8475 29.807 29.9141 28.6673 30.3357 27.4855C30.7576 26.3038 30.7576 25.2908 30.6311 25.0792C30.5046 24.8683 30.1671 24.7416 29.6609 24.4886C29.1548 24.2357 26.6663 23.0111 26.2024 22.8421C25.7384 22.6734 25.401 22.5891 25.0635 23.0959C24.726 23.6019 23.7568 24.7416 23.4613 25.0792C23.1662 25.4175 22.8708 25.4596 22.3648 25.2065C21.8584 24.9525 20.2284 24.4187 18.2945 22.6947C16.7899 21.3531 15.7741 19.6964 15.4789 19.1896C15.1836 18.6837 15.4473 18.4094 15.701 18.1572C15.9285 17.9304 16.2073 17.5662 16.4607 17.2707C16.713 16.9752 16.7972 16.7643 16.966 16.4267C17.1349 16.0889 17.0504 15.7933 16.9241 15.5402C16.7972 15.287 15.8137 12.7839 15.3637 11.7833Z" fill="white"/>
</g>
<defs>
<linearGradient id="paint0_linear_291_4340" x1="1964.36" y1="3945.69" x2="1964.36" y2="0.70752" gradientUnits="userSpaceOnUse">
<stop stop-color="#1FAF38"/>
<stop offset="1" stop-color="#60D669"/>
</linearGradient>
<linearGradient id="paint1_linear_291_4340" x1="2034.11" y1="4086.44" x2="2034.11" y2="0" gradientUnits="userSpaceOnUse">
<stop stop-color="#F9F9F9"/>
<stop offset="1" stop-color="white"/>
</linearGradient>
<clipPath id="clip0_291_4340">
<rect width="40.6822" height="41" fill="white"/>
</clipPath>
</defs>
</svg>
