<svg width="9" height="14" viewBox="0 0 9 14" fill="none" xmlns="http://www.w3.org/2000/svg">
<path d="M8.36247 0.387528C8.47835 0.50317 8.57029 0.640531 8.63301 0.791747C8.69574 0.942964 8.72803 1.10507 8.72803 1.26878C8.72803 1.43249 8.69574 1.59459 8.63301 1.74581C8.57029 1.89702 8.47835 2.03439 8.36247 2.15003L3.51247 7.00003L8.36247 11.85C8.59619 12.0837 8.7275 12.4007 8.7275 12.7313C8.7275 13.0618 8.59619 13.3788 8.36247 13.6125C8.12875 13.8463 7.81176 13.9776 7.48122 13.9776C7.15069 13.9776 6.83369 13.8463 6.59997 13.6125L0.862472 7.87503C0.746593 7.75939 0.654658 7.62202 0.591931 7.47081C0.529204 7.31959 0.496918 7.15749 0.496918 6.99378C0.496918 6.83007 0.529204 6.66796 0.591931 6.51675C0.654658 6.36553 0.746593 6.22817 0.862472 6.11253L6.59997 0.375027C7.07497 -0.0999727 7.87497 -0.0999724 8.36247 0.387528Z" fill="#FF5500"/>
</svg>
