<svg width="49" height="65" viewBox="0 0 49 65" fill="none" xmlns="http://www.w3.org/2000/svg">
<path d="M24.4991 0.968384C14.9468 0.968384 7.20312 8.71202 7.20312 18.2644V26.0645C7.20312 41.6486 17.3771 47.753 17.3771 47.753H24.4991V0.968384Z" fill="#A46A5A"/>
<path d="M43.8276 50.4013L33.3196 46.6926C31.6925 46.1184 30.6044 44.5805 30.6044 42.8549V36.5613H18.3956V42.8549C18.3956 44.5803 17.3075 46.1182 15.6804 46.6926L5.17239 50.4013C2.73185 51.2626 1.09961 53.5695 1.09961 56.1577H47.9004C47.9004 53.5695 46.2683 51.2626 43.8276 50.4013Z" fill="#FBBD80"/>
<path d="M30.6035 42.8549V36.5613H18.3945V41.4116C18.7882 41.5785 19.1578 41.7252 19.5073 41.8422C21.4969 42.5072 23.5364 42.7655 25.5881 42.6213C27.3071 42.5005 27.5974 43.8055 27.736 44.4058C28.2801 46.7594 29.9602 48.7444 32.3022 49.5711L33.3184 46.6926C31.6916 46.1184 30.6035 44.5805 30.6035 42.8549Z" fill="#F4AA73"/>
<path d="M43.8276 50.4013L35.608 47.5001C32.9976 50.7525 28.995 52.8399 24.5 52.8399C20.005 52.8399 16.0025 50.7527 13.392 47.5001L5.17227 50.4013C2.73172 51.2626 1.09961 53.5695 1.09961 56.1577V64.0476H37.7263L39.635 62.5043L41.9235 64.0476H44.8482L47.9004 61.622V56.1577C47.9004 53.5695 46.2683 51.2628 43.8276 50.4013Z" fill="#FBF4DB"/>
<path d="M43.8269 50.4013L35.6073 47.5001C32.9969 50.7525 28.9945 52.8399 24.4993 52.8399C20.0043 52.8399 16.0018 50.7527 13.3913 47.5001L9.375 48.9177C12.6734 53.7411 18.2149 56.9095 24.4993 56.9095C29.6151 56.9095 34.2384 54.8093 37.5602 51.4263L42.811 53.2792C44.0314 53.7098 44.8476 54.8633 44.8476 56.1574V64.0476H47.8998V56.1577C47.8997 53.5695 46.2676 51.2628 43.8269 50.4013Z" fill="#F8EBCC"/>
<path d="M24.5 0.952148V18.2481H30.6044V43.6995C30.6044 52.6834 37.7262 55.9085 37.7262 64.0477L41.7958 60.9328V18.2481C41.796 8.69578 34.0523 0.952148 24.5 0.952148Z" fill="#C6805D"/>
<path d="M34.6738 43.6997C34.6738 47.1677 35.2907 49.5473 36.0047 52.3024C36.8116 55.4152 37.726 58.9438 37.726 64.0475L37.8532 64.0476L41.7956 64.0418V18.2481C41.7956 17.5585 41.7441 16.8819 41.6656 16.2133H34.6738V43.6997Z" fill="#A46A5A"/>
<path d="M39.1064 22.3177H38.7428C37.0571 22.3177 35.6906 20.9512 35.6906 19.2655V12.1437H13.3075V19.2655C13.3075 20.9512 11.941 22.3177 10.2553 22.3177H9.89171C8.56124 22.3177 7.34883 23.2749 7.2163 24.5988C7.06383 26.1213 8.25528 27.4047 9.7466 27.4047H11.3241C11.8453 34.2324 17.5378 39.6137 24.4991 39.6137C31.4603 39.6137 37.1529 34.2325 37.674 27.4047H39.2515C40.7428 27.4047 41.9343 26.1212 41.7818 24.5988C41.6493 23.2749 40.4369 22.3177 39.1064 22.3177Z" fill="#FFD18D"/>
<path d="M39.107 22.3177H38.7434C37.0577 22.3177 35.6912 20.9512 35.6912 19.2655V12.1437H14.9297L15.805 12.9092C19.981 16.563 25.2041 19.0266 30.9081 20.0341C31.9107 20.2109 32.6389 21.0559 32.6389 22.0426V26.3874C32.6389 32.4451 28.292 37.5128 22.3039 38.4368L19.9584 38.7988C21.3756 39.3184 22.9015 39.6137 24.4997 39.6137C31.4608 39.6137 37.1535 34.2325 37.6746 27.4047H39.2521C40.7434 27.4047 41.935 26.1212 41.7824 24.5988C41.6498 23.2749 40.4374 22.3177 39.107 22.3177Z" fill="#FBBD80"/>
<path d="M7.20312 18.2643V18.269C12.8881 18.1424 17.7823 15.8934 21.0984 12.5928L13.1575 5.22668C9.5157 8.39759 7.20312 13.0563 7.20312 18.2643Z" fill="#C6805D"/>
<path d="M24.4998 0.952148V0.968398C20.1555 0.968398 16.1959 2.58172 13.1582 5.22679C17.8315 12.5765 26.5683 17.5301 36.5899 17.5301C38.3507 17.5301 40.07 17.3719 41.7369 17.0803C41.1336 8.07498 33.6578 0.952148 24.4998 0.952148Z" fill="#A46A5A"/>
<path d="M36.8927 13.4601C38.266 13.4601 39.6347 13.3231 40.9645 13.06C38.7612 6.04792 32.2405 0.952148 24.5005 0.952148V0.968398C22.3652 0.968398 20.325 1.36221 18.4395 2.07251C21.8451 9.00186 29.0296 13.4601 36.8927 13.4601Z" fill="#845252"/>
<path d="M21.4473 30.4645C22.0612 31.0704 23.1916 31.4822 24.5002 31.4822C25.809 31.4822 26.9393 31.0704 27.5532 30.4645" stroke="black" stroke-width="2" stroke-miterlimit="10" stroke-linecap="round" stroke-linejoin="round"/>
<path d="M18.3942 38.606V42.8496C18.3942 44.5755 17.3058 46.1138 15.6782 46.6882L5.16755 50.3979C2.72624 51.2595 1.09375 53.567 1.09375 56.1558V64.0477" stroke="black" stroke-width="2" stroke-miterlimit="10" stroke-linecap="round" stroke-linejoin="round"/>
<path d="M41.8008 49.6803L43.8336 50.3977C46.2749 51.2593 47.9074 53.5668 47.9074 56.1557V64.0476" stroke="black" stroke-width="2" stroke-miterlimit="10" stroke-linecap="round" stroke-linejoin="round"/>
<path d="M37.7286 26.4037C37.7233 33.7057 31.8027 39.6236 24.4995 39.6236C17.193 39.6236 11.2698 33.7005 11.2698 26.3939V27.4116H9.74334C8.25164 27.4116 7.05981 26.1278 7.21241 24.6049C7.34507 23.2807 8.55798 22.3232 9.88883 22.3232H10.2522C11.9384 22.3232 13.3051 20.9563 13.3051 19.2702V17.5528" stroke="black" stroke-width="2" stroke-miterlimit="10" stroke-linecap="round" stroke-linejoin="round"/>
<path d="M37.7292 64.0478C37.7292 55.9064 30.6055 52.6805 30.6055 43.6944V38.5898" stroke="black" stroke-width="2" stroke-miterlimit="10" stroke-linecap="round" stroke-linejoin="round"/>
<path d="M41.8 64.0477V18.2526C41.8 8.69781 34.0544 0.952148 24.4996 0.952148C14.9449 0.952148 7.19922 8.69781 7.19922 18.2526V26.0547C7.19922 39.7084 15.6777 46.6881 15.6777 46.6881" stroke="black" stroke-width="2" stroke-miterlimit="10" stroke-linecap="round" stroke-linejoin="round"/>
<path d="M41.4498 17.0384C39.738 17.3528 37.9653 17.518 36.1494 17.518C26.2099 17.518 17.5636 12.5692 13.127 5.27832" stroke="black" stroke-width="2" stroke-miterlimit="10" stroke-linecap="round" stroke-linejoin="round"/>
<path d="M37.7306 27.4116H39.2571C40.7488 27.4116 41.9406 26.1278 41.788 24.6049C41.6554 23.2807 40.4425 22.3232 39.1116 22.3232H38.7483C37.0621 22.3232 35.6953 20.9563 35.6953 19.2702V17.8292" stroke="black" stroke-width="2" stroke-miterlimit="10" stroke-linecap="round" stroke-linejoin="round"/>
<path d="M7.28906 18.2526C12.714 18.1438 17.3926 16.0937 20.5639 13.098" stroke="black" stroke-width="2" stroke-miterlimit="10" stroke-linecap="round" stroke-linejoin="round"/>
<path d="M18.3945 23.3408V24.3585" stroke="black" stroke-width="2" stroke-miterlimit="10" stroke-linecap="round" stroke-linejoin="round"/>
<path d="M30.6055 23.3408V24.3585" stroke="black" stroke-width="2" stroke-miterlimit="10" stroke-linecap="round" stroke-linejoin="round"/>
<path d="M17.377 20.2878L19.6635 19.9957" stroke="black" stroke-width="2" stroke-miterlimit="10" stroke-linecap="round" stroke-linejoin="round"/>
<path d="M29.3379 19.9957L31.6244 20.2878" stroke="black" stroke-width="2" stroke-miterlimit="10" stroke-linecap="round" stroke-linejoin="round"/>
<path d="M23.5391 8.73157C27.102 11.712 31.7127 13.4471 36.5872 13.4471C37.9504 13.4471 39.3101 13.3139 40.6286 13.051" stroke="black" stroke-width="2" stroke-miterlimit="10" stroke-linecap="round" stroke-linejoin="round"/>
<path d="M18.4102 2.0918C19.0548 3.46848 19.8549 4.74804 20.7849 5.91423" stroke="black" stroke-width="2" stroke-miterlimit="10" stroke-linecap="round" stroke-linejoin="round"/>
<path d="M34.6777 34.9039V43.6945C34.6777 47.1634 35.2947 49.5436 36.009 52.2995C36.8161 55.4131 37.7307 58.9427 37.7307 64.0479" stroke="black" stroke-width="2" stroke-miterlimit="10" stroke-linecap="round" stroke-linejoin="round"/>
<path d="M30.1693 56.0055C28.4312 56.5527 26.4195 56.9078 24.5006 56.9078C18.264 56.9078 12.7554 53.7912 9.44727 49.0305" stroke="black" stroke-width="2" stroke-miterlimit="10" stroke-linecap="round" stroke-linejoin="round"/>
<path d="M32.0156 50.6967C29.8342 52.0535 27.2593 52.8371 24.5014 52.8371C20.0257 52.8371 16.0319 50.7733 13.4199 47.5453" stroke="black" stroke-width="2" stroke-miterlimit="10" stroke-linecap="round" stroke-linejoin="round"/>
</svg>
