<svg width="39" height="57" viewBox="0 0 39 57" fill="none" xmlns="http://www.w3.org/2000/svg">
<path fill-rule="evenodd" clip-rule="evenodd" d="M26.8475 0.836304L27.3904 6.13174H11.6113L12.1509 0.836304H26.8475Z" fill="#AD5C3C"/>
<path fill-rule="evenodd" clip-rule="evenodd" d="M12.1508 14.3715H6.85547V6.99643C6.85547 6.40628 7.09215 5.89506 7.46766 5.51955L12.1508 0.836426V14.3715Z" fill="#DB805B"/>
<path fill-rule="evenodd" clip-rule="evenodd" d="M32.1431 14.3715H26.8477V0.836304L31.5341 5.51943C31.9475 5.93602 32.1432 6.4409 32.1432 6.99631V14.3715H32.1431Z" fill="#DB805B"/>
<path fill-rule="evenodd" clip-rule="evenodd" d="M37.6564 14.6965V52.3451C37.6564 54.4468 35.9365 56.1668 33.8347 56.1668H5.16738C3.06561 56.1668 1.3457 54.4469 1.3457 52.3451V14.6965C1.3457 14.22 1.73379 13.8318 2.21039 13.8318H36.7916C37.2649 13.8318 37.6564 14.22 37.6564 14.6965Z" fill="#FFEED5"/>
<path fill-rule="evenodd" clip-rule="evenodd" d="M37.6571 14.6965V52.3451C37.6571 54.4468 35.9372 56.1668 33.8354 56.1668H5.16813C3.45457 56.1668 1.9965 55.0245 1.51367 53.4654H31.1718C33.2514 53.4654 34.9555 51.7613 34.9555 49.6816V13.8318H36.7922C37.2657 13.8318 37.6571 14.22 37.6571 14.6965Z" fill="#FFE6C0"/>
<path fill-rule="evenodd" clip-rule="evenodd" d="M19.5003 23.4949C15.3315 21.5667 10.7052 21.8949 9.41757 23.1826C7.77659 24.8235 7.69454 31.9083 11.8727 36.5347L19.5003 23.4949Z" fill="#6FD7A3"/>
<path fill-rule="evenodd" clip-rule="evenodd" d="M29.5842 23.1825C27.8862 21.4879 20.3882 21.4564 15.7839 26.0606C11.1796 30.6649 11.2111 38.1631 12.9058 39.8608C14.6004 41.5555 22.0986 41.5871 26.703 36.9796C31.3102 32.3753 31.2787 24.8772 29.5842 23.1825Z" fill="#9BE69D"/>
<path fill-rule="evenodd" clip-rule="evenodd" d="M29.5835 23.1825C29.211 22.8102 28.5609 22.5198 27.7247 22.3399C28.3685 25.3222 27.5986 30.6838 24.0008 34.2783C20.4065 37.8759 15.0448 38.6459 12.0625 38.0021C12.2424 38.8384 12.5327 39.4884 12.9051 39.8608C14.5998 41.5555 22.0979 41.5871 26.7024 36.9797C31.3096 32.3754 31.2781 24.8772 29.5835 23.1825Z" fill="#6FD7A3"/>
<path d="M2.17924 46.3997C2.17924 46.8605 1.80685 47.236 1.34617 47.236C0.885387 47.236 0.509878 46.8605 0.509878 46.3997V13.8319C0.509878 13.3711 0.885387 12.9988 1.34617 12.9988H6.02307V6.13173C6.02307 5.89816 6.11781 5.68675 6.27244 5.53523L11.5583 0.249375C11.7129 0.091623 11.9276 0 12.1516 0H26.8481C27.0786 0 27.2868 0.0915117 27.4445 0.249375L32.7337 5.54169C32.8979 5.70256 32.9798 5.9172 32.9798 6.13184V12.9989H37.6568C38.1176 12.9989 38.4898 13.3713 38.4898 13.832V18.1555C38.4898 18.6162 38.1175 18.9918 37.6568 18.9918C37.1961 18.9918 36.8205 18.6163 36.8205 18.1555V14.6683C25.2734 14.6683 13.7264 14.6683 2.17924 14.6683V46.3997ZM28.9308 23.7978C28.1387 23.009 25.6395 22.6933 22.8056 23.2834C20.5712 23.7504 18.1854 24.8076 16.314 26.679C14.4426 28.5472 13.3854 30.9362 12.9184 33.1704C12.6122 34.6504 12.4166 37.0616 12.9942 38.5574L15.3294 36.2189L14.6605 32.5266C14.5784 32.0754 14.8813 31.643 15.3327 31.561C15.784 31.4789 16.2163 31.7818 16.2983 32.2332L16.7591 34.7894L19.3595 32.1891L18.5485 27.7047C18.4664 27.2533 18.7694 26.8211 19.2207 26.739C19.672 26.6602 20.1042 26.9599 20.1865 27.4112L20.7922 30.7563L23.7113 27.8404L23.2601 25.363C23.1812 24.9117 23.481 24.4794 23.9322 24.3973C24.3866 24.3153 24.819 24.6182 24.898 25.0695L25.1411 26.4077L26.4697 25.0822C26.7948 24.7573 27.3216 24.7573 27.65 25.0822C27.9751 25.4073 27.9751 25.9374 27.65 26.2625L26.3214 27.588L27.6626 27.831C28.1138 27.9131 28.4136 28.3454 28.3347 28.7967C28.2527 29.248 27.8204 29.5509 27.369 29.4688L24.8917 29.0207L21.9725 31.9398L25.2831 32.5363C25.7343 32.6184 26.0341 33.0506 25.9551 33.502C25.8732 33.9564 25.4407 34.2562 24.9895 34.1742L20.543 33.3695L17.9426 35.9699L20.6818 36.4653C21.1332 36.5474 21.4328 36.9798 21.3541 37.431C21.2719 37.8853 20.8396 38.1851 20.3884 38.1032L16.5098 37.4026L14.1777 39.7347C15.1434 40.1038 16.7338 40.227 18.5454 39.9839C21.0479 39.6494 23.8943 38.5764 26.053 36.4179C27.9245 34.5465 28.9784 32.1576 29.4455 29.9232C30.0354 27.0925 29.7229 24.5899 28.9308 23.7978ZM17.4596 23.6464C16.1594 23.2362 14.8688 23.0342 13.7105 22.9995C11.9053 22.9427 10.4852 23.2615 9.94883 23.7978C9.19147 24.5552 8.86962 26.8938 9.36814 29.5888C9.64268 31.0973 10.1886 32.6941 11.0722 34.1647C11.1228 33.7261 11.1953 33.2811 11.29 32.833C11.8139 30.3146 13.0099 27.6196 15.1306 25.4957C15.8532 24.7762 16.6391 24.1639 17.4596 23.6464ZM11.0186 36.926C9.18824 34.8115 8.1658 32.2554 7.73029 29.8886C7.13691 26.6634 7.67662 23.7096 8.76541 22.6176C9.61117 21.7751 11.4983 21.2638 13.7547 21.3331C15.503 21.39 17.5101 21.775 19.4383 22.6082C20.4451 22.1759 21.4707 21.8634 22.4679 21.6551C25.8416 20.9513 28.9814 21.4879 30.1111 22.6176C31.2409 23.7474 31.7806 26.8906 31.0768 30.2641C30.5499 32.7793 29.3571 35.4743 27.2332 37.5982C24.7874 40.0439 21.5812 41.259 18.7599 41.6345C16.9705 41.8743 13.638 41.8617 12.2525 40.4763C11.4352 39.6557 11.1164 38.0337 11.0186 36.926ZM12.3692 47.3779C11.9053 47.3779 11.5329 47.0024 11.5329 46.5416C11.5329 46.0808 11.9053 45.7085 12.3692 45.7085H26.6336C27.0941 45.7085 27.4665 46.0809 27.4665 46.5416C27.4665 47.0023 27.094 47.3779 26.6336 47.3779H12.3692ZM16.3677 50.619C15.9038 50.619 15.5314 50.2466 15.5314 49.7827C15.5314 49.3219 15.9038 48.9495 16.3677 48.9495H22.635C23.0958 48.9495 23.4682 49.3219 23.4682 49.7827C23.4682 50.2466 23.0957 50.619 22.635 50.619H16.3677ZM27.6843 2.84978V12.9988H31.3102V6.47562L27.6843 2.84978ZM26.015 6.96491H21.3918C20.931 6.96491 20.5555 6.59252 20.5555 6.13184C20.5555 5.67105 20.931 5.29555 21.3918 5.29555H26.015V1.66959H12.9879V5.29555H17.6079C18.0718 5.29555 18.4442 5.67117 18.4442 6.13184C18.4442 6.59252 18.0718 6.96491 17.6079 6.96491H12.9879V12.9988H26.015V6.96491ZM7.69243 12.9988H11.3184V6.13173V2.84978L7.69243 6.47573V12.9988ZM36.8204 21.9391C36.8204 21.4752 37.1959 21.1028 37.6567 21.1028C38.1175 21.1028 38.4897 21.4752 38.4897 21.9391V52.3451C38.4897 53.6263 37.9659 54.7909 37.1234 55.6334C36.2808 56.4761 35.1164 57 33.8351 57H5.16773C3.88646 57 2.72197 56.4761 1.87621 55.6336C1.03368 54.791 0.509766 53.6264 0.509766 52.3453V50.1835C0.509766 49.7227 0.885275 49.3472 1.34606 49.3472C1.80685 49.3472 2.17913 49.7227 2.17913 50.1835V52.3453C2.17913 53.1657 2.51679 53.9104 3.05963 54.4533C3.59923 54.9961 4.34713 55.3306 5.16773 55.3306H33.8349C34.6555 55.3306 35.4003 54.9962 35.9431 54.4533C36.4858 53.9104 36.8204 53.1657 36.8204 52.3453V21.9391Z" fill="black"/>
</svg>
