<svg width="53" height="53" viewBox="0 0 53 53" fill="none" xmlns="http://www.w3.org/2000/svg">
<path d="M7.15542 37.6777C6.86293 37.6797 6.57375 37.7398 6.30465 37.8545C6.03555 37.9691 5.79189 38.1361 5.58779 38.3456C5.38368 38.5551 5.2232 38.8031 5.11565 39.0751C5.0081 39.3471 4.95561 39.6377 4.96122 39.9302V47.5887C4.95549 47.6493 4.96321 47.7104 4.98382 47.7677C5.00443 47.8249 5.03744 47.8769 5.08047 47.9199C5.1235 47.963 5.17551 47.996 5.23277 48.0166C5.29003 48.0372 5.35114 48.0449 5.41172 48.0392H47.6474C47.7068 48.0399 47.7657 48.0287 47.8207 48.0064C47.8756 47.984 47.9256 47.9508 47.9676 47.9088C48.0095 47.8669 48.0427 47.8169 48.0651 47.7619C48.0875 47.707 48.0986 47.648 48.0979 47.5887V39.9302C48.087 39.3362 47.8462 38.7696 47.4262 38.3495C47.0061 37.9294 46.4394 37.6886 45.8454 37.6777H7.15542ZM14.4747 31.8795C14.4747 33.3423 12.1692 33.3423 12.1692 31.8795V26.0495C12.175 25.9889 12.1672 25.9278 12.1466 25.8705C12.126 25.8133 12.093 25.7613 12.05 25.7182C12.0069 25.6752 11.9549 25.6422 11.8977 25.6216C11.8404 25.601 11.7793 25.5933 11.7187 25.599H10.7011C10.063 25.5983 9.44977 25.3517 8.98881 24.9105C8.52785 24.4692 8.25466 23.8673 8.22603 23.2299L7.83382 17.6543C7.83382 17.2621 7.49462 17.2621 7.15542 17.2621C6.35652 17.2537 5.5936 16.9286 5.03416 16.3583C4.47471 15.7879 4.16446 15.0188 4.17152 14.2199V8.56479C4.17708 7.77513 4.49323 7.01938 5.05162 6.46099C5.61001 5.9026 6.36576 5.58644 7.15542 5.58089H9.91672C10.0334 5.57231 10.143 5.52209 10.2257 5.43939C10.3084 5.3567 10.3586 5.24703 10.3672 5.13039C10.388 4.4598 10.6712 3.82417 11.1559 3.36028C11.6406 2.8964 12.2881 2.64134 12.9589 2.64999H13.6903C14.3579 2.65074 14.9995 2.90907 15.4813 3.37115C15.9631 3.83323 16.2481 4.46342 16.2767 5.13039C16.276 5.18975 16.2872 5.24865 16.3096 5.30363C16.332 5.35861 16.3651 5.40855 16.4071 5.45053C16.4491 5.4925 16.499 5.52566 16.554 5.54805C16.609 5.57044 16.6679 5.5816 16.7272 5.58089H40.2115C41.7565 5.57839 43.2422 6.17515 44.3562 7.24565C45.4702 8.31615 46.1256 9.77695 46.1846 11.3208C46.1921 11.4378 46.242 11.5481 46.3249 11.631C46.4078 11.7139 46.5181 11.7638 46.6351 11.7713C48.6067 11.7713 50.3451 12.7889 50.3451 14.9831V23.4313C50.3451 25.6255 48.6544 26.6431 46.6351 26.6431C46.5181 26.6506 46.4078 26.7005 46.3249 26.7834C46.242 26.8663 46.1921 26.9766 46.1846 27.0936V35.0436C46.1899 35.1518 46.2314 35.2551 46.3026 35.3369C46.3737 35.4186 46.4703 35.474 46.5768 35.4941C47.6268 35.6722 48.5806 36.2144 49.2706 37.0256C49.9607 37.8369 50.343 38.8652 50.3504 39.9302V49.82C50.3519 49.9478 50.3071 50.0718 50.2243 50.1692C50.1415 50.2666 50.0263 50.3308 49.8999 50.35H3.10092C2.97454 50.3308 2.85935 50.2666 2.77656 50.1692C2.69378 50.0718 2.64898 49.9478 2.65042 49.82V39.9302C2.65461 38.7367 3.13059 37.5933 3.97454 36.7493C4.81848 35.9054 5.96191 35.4294 7.15542 35.4252H26.5269C26.6431 35.4178 26.7527 35.3687 26.8355 35.2869C26.9183 35.2051 26.9687 35.0961 26.9774 34.98V20.7813C26.9795 20.3151 26.8893 19.8531 26.7118 19.4219C26.5344 18.9908 26.2733 18.5991 25.9436 18.2694C25.6139 17.9397 25.2222 17.6786 24.7911 17.5012C24.36 17.3238 23.8979 17.2335 23.4317 17.2356H19.1917C19.0832 17.2399 18.9794 17.2811 18.8975 17.3525C18.8156 17.4238 18.7604 17.5209 18.7412 17.6278L18.402 23.2034C18.3646 23.8378 18.0887 24.4345 17.6297 24.8739C17.1706 25.3133 16.5623 25.5629 15.9269 25.5725H14.9252C14.8646 25.5668 14.8035 25.5745 14.7463 25.5951C14.689 25.6157 14.637 25.6487 14.594 25.6917C14.5509 25.7348 14.5179 25.7868 14.4973 25.844C14.4767 25.9013 14.469 25.9624 14.4747 26.023V31.8795ZM46.6404 24.38C47.3135 24.38 48.1032 24.3217 48.1032 23.4207V14.9831C48.1032 14.0821 47.3135 14.0238 46.6404 14.0238C46.5234 14.0313 46.4131 14.0812 46.3302 14.1641C46.2473 14.247 46.1974 14.3573 46.1899 14.4743V23.9401C46.1999 24.0552 46.2508 24.163 46.3335 24.2437C46.4162 24.3244 46.5251 24.3728 46.6404 24.38ZM7.15542 7.83339C6.9623 7.83613 6.77785 7.91407 6.64128 8.05065C6.5047 8.18722 6.42676 8.37167 6.42402 8.56479V14.1934C6.42676 14.3865 6.5047 14.571 6.64128 14.7075C6.77785 14.8441 6.9623 14.9221 7.15542 14.9248H23.4317C24.977 14.9332 26.4558 15.5548 27.543 16.6529C28.6302 17.7511 29.237 19.236 29.2299 20.7813V34.98C29.2374 35.097 29.2873 35.2073 29.3702 35.2902C29.4531 35.3731 29.5634 35.423 29.6804 35.4305H43.4604C43.5774 35.423 43.6877 35.3731 43.7706 35.2902C43.8536 35.2073 43.9034 35.097 43.9109 34.98V11.4904C43.897 10.5157 43.5 9.58556 42.8057 8.90122C42.1115 8.21688 41.1758 7.83329 40.2009 7.83339H7.15542ZM13.6903 4.90249H12.9589C12.871 4.90866 12.7883 4.94638 12.7259 5.00871C12.6636 5.07103 12.6259 5.15377 12.6197 5.24169V5.58089H13.9712V5.24169C13.9786 5.15954 13.9532 5.07779 13.9006 5.01425C13.848 4.95072 13.7724 4.91055 13.6903 4.90249ZM10.7011 23.2617H15.7149C15.8259 23.2663 15.9344 23.2282 16.0182 23.1553C16.102 23.0823 16.1547 22.9801 16.1654 22.8695L16.5046 17.8557C16.5053 17.7963 16.4942 17.7374 16.4718 17.6825C16.4494 17.6275 16.4162 17.5775 16.3743 17.5356C16.3323 17.4936 16.2823 17.4604 16.2274 17.438C16.1724 17.4156 16.1135 17.4045 16.0541 17.4052H10.6004C10.5398 17.3995 10.4787 17.4072 10.4215 17.4278C10.3642 17.4484 10.3122 17.4814 10.2692 17.5244C10.2261 17.5675 10.1931 17.6195 10.1725 17.6767C10.1519 17.734 10.1442 17.7951 10.1499 17.8557L10.4891 23.0921C10.4891 23.2034 10.6004 23.2617 10.7117 23.2617H10.7011ZM35.0334 4.90249C33.5706 4.90249 33.5706 2.64999 35.0334 2.64999H38.6904C38.9758 2.66958 39.2431 2.79675 39.4383 3.00581C39.6335 3.21486 39.742 3.49022 39.742 3.77624C39.742 4.06226 39.6335 4.33762 39.4383 4.54668C39.2431 4.75574 38.9758 4.88291 38.6904 4.90249H35.0334ZM36.8884 15.0944C37.9717 15.1028 39.0075 15.5405 39.7686 16.3115C40.5296 17.0825 40.9539 18.1239 40.9482 19.2072C40.9496 19.7405 40.8455 20.2688 40.6419 20.7617C40.4383 21.2546 40.1393 21.7023 39.7619 22.0792C39.3846 22.456 38.9365 22.7545 38.4433 22.9574C37.9501 23.1604 37.4217 23.2638 36.8884 23.2617C36.3525 23.2652 35.8211 23.1631 35.3247 22.9612C34.8282 22.7593 34.3764 22.4617 33.9949 22.0852C33.6135 21.7087 33.31 21.2607 33.1017 20.7669C32.8934 20.2731 32.7844 19.7431 32.7809 19.2072C32.7865 18.119 33.2209 17.077 33.9898 16.307C34.7588 15.5371 35.8003 15.1014 36.8884 15.0944ZM36.8884 17.4052C36.532 17.4052 36.1836 17.5109 35.8873 17.7089C35.591 17.9069 35.36 18.1883 35.2236 18.5176C35.0872 18.8469 35.0515 19.2092 35.1211 19.5587C35.1906 19.9083 35.3622 20.2294 35.6142 20.4814C35.8662 20.7334 36.1873 20.905 36.5369 20.9746C36.8864 21.0441 37.2487 21.0084 37.578 20.872C37.9073 20.7356 38.1887 20.5047 38.3867 20.2083C38.5847 19.912 38.6904 19.5636 38.6904 19.2072C38.6849 18.731 38.4933 18.2758 38.1565 17.9391C37.8198 17.6023 37.3646 17.4107 36.8884 17.4052Z" fill="#771D1D"/>
</svg>
