<svg width="37" height="37" viewBox="0 0 37 37" fill="none" xmlns="http://www.w3.org/2000/svg">
<g clip-path="url(#clip0_218_1066)">
<path d="M36.6623 0.337628C36.8224 0.497959 36.9319 0.701787 36.9771 0.923794C37.0223 1.1458 37.0013 1.3762 36.9167 1.58638L23.4603 35.2263C23.3417 35.5226 23.1437 35.7804 22.888 35.9713C22.6324 36.1623 22.329 36.279 22.0112 36.3087C21.6935 36.3383 21.3738 36.2797 21.0872 36.1394C20.8006 35.999 20.5583 35.7823 20.387 35.5131L13.0379 23.9621L1.48692 16.613C1.21709 16.4418 0.999792 16.1995 0.859003 15.9126C0.718214 15.6258 0.659407 15.3056 0.68907 14.9874C0.718732 14.6693 0.835712 14.3655 1.0271 14.1096C1.21849 13.8537 1.47685 13.6557 1.77367 13.5374L35.4136 0.0855655C35.6238 0.000956365 35.8542 -0.0200405 36.0762 0.0251832C36.2982 0.0704068 36.502 0.179858 36.6623 0.339941V0.337628ZM15.3457 23.2869L21.7305 33.3185L32.6756 5.957L15.3457 23.2869ZM31.0407 4.32207L3.67917 15.2671L13.7131 21.6496L31.0407 4.32207Z" fill="white"/>
</g>
<defs>
<clipPath id="clip0_218_1066">
<rect width="37" height="37" fill="white"/>
</clipPath>
</defs>
</svg>
