<svg width="47" height="47" viewBox="0 0 47 47" fill="none" xmlns="http://www.w3.org/2000/svg">
<path d="M37.9096 21.1777C38.1566 19.5125 38.0734 17.815 37.6648 16.182C37.1057 13.9506 35.9498 11.9136 34.321 10.2894C32.6968 8.66014 30.6598 7.50385 28.4283 6.94452C26.7952 6.53623 25.0977 6.45338 23.4326 6.70071M30.4777 20.3914C30.6146 19.4826 30.536 18.5543 30.2482 17.6814C29.9604 16.8086 29.4715 16.0156 28.821 15.3663C28.1718 14.7158 27.3787 14.2269 26.5059 13.9391C25.633 13.6513 24.7047 13.5727 23.7959 13.7096" stroke="white" stroke-width="2" stroke-linecap="round" stroke-linejoin="round"/>
<path d="M11.0765 9.61079C11.4258 9.61097 11.7687 9.70458 12.0697 9.88192C12.3707 10.0593 12.6187 10.3139 12.7881 10.6193L15.1841 14.9335C15.3387 15.212 15.4231 15.5239 15.4299 15.8423C15.4367 16.1606 15.3658 16.4759 15.2233 16.7607L12.9154 21.3755C12.9154 21.3755 13.5842 24.8143 16.3826 27.6128C19.1821 30.4112 22.6092 31.0692 22.6092 31.0692L27.223 28.7613C27.508 28.6188 27.8234 28.548 28.142 28.5549C28.4606 28.5619 28.7726 28.6466 29.0511 28.8015L33.379 31.2073C33.6839 31.3771 33.9379 31.6253 34.1148 31.9262C34.2916 32.2272 34.3847 32.5699 34.3846 32.9189V37.8872C34.3846 40.4164 32.0346 42.2445 29.6376 41.4347C24.7144 39.774 17.0729 36.6103 12.228 31.7674C7.38507 26.9234 4.22236 19.281 2.56071 14.3578C1.75192 11.9608 3.57905 9.61079 6.10921 9.61079H11.0765Z" stroke="white" stroke-width="2" stroke-linejoin="round"/>
</svg>
