<svg width="49" height="44" viewBox="0 0 49 44" fill="none" xmlns="http://www.w3.org/2000/svg">
<path d="M19.9167 29.8125L26.7917 32.1042C26.7917 32.1042 43.9792 28.6667 46.2709 28.6667C48.5625 28.6667 48.5625 30.9583 46.2709 33.25C43.9792 35.5417 35.9584 42.4167 29.0834 42.4167C22.2084 42.4167 17.625 38.9792 13.0417 38.9792H1.58337" stroke="white" stroke-width="2" stroke-linecap="round" stroke-linejoin="round"/>
<path d="M1.58337 25.2292C3.87504 22.9375 8.45837 19.5 13.0417 19.5C17.625 19.5 28.5105 24.0833 30.2292 26.375C31.948 28.6667 26.7917 32.1042 26.7917 32.1042M15.3334 12.625V3.45833C15.3334 2.85054 15.5748 2.26765 16.0046 1.83788C16.4344 1.40811 17.0173 1.16666 17.625 1.16666H45.125C45.7328 1.16666 46.3157 1.40811 46.7455 1.83788C47.1753 2.26765 47.4167 2.85054 47.4167 3.45833V21.7917" stroke="white" stroke-width="2" stroke-linecap="round" stroke-linejoin="round"/>
<path d="M25.6459 1.16666H37.1042V11.4792H25.6459V1.16666Z" stroke="white" stroke-width="2" stroke-linecap="round" stroke-linejoin="round"/>
</svg>
