<svg width="119" height="149" viewBox="0 0 119 149" fill="none" xmlns="http://www.w3.org/2000/svg">
<circle cx="62.5" cy="73.5" r="45" stroke="white"/>
<g clip-path="url(#clip0_229_66)">
<path d="M70.2516 99C70.2076 99 70.1781 98.999 70.1626 98.999H67.4689C67.1397 98.999 66.8734 98.7335 66.8734 98.4064C66.8734 98.0793 67.1402 97.8137 67.4689 97.8137H70.1689C70.1722 97.8137 70.1766 97.8137 70.18 97.8137C70.2207 97.8137 74.2805 97.8647 78.5733 95.8159C84.2879 93.0893 87.7029 88.1152 88.723 81.0326C89.6268 74.7664 90.3206 70.1704 90.7863 67.3712C90.8594 66.9301 90.7219 66.4942 90.4068 66.1743C90.0926 65.8549 89.6564 65.7067 89.211 65.7698C88.6799 65.8443 88.2456 66.2056 88.0786 66.7117L86.2922 72.1211C86.0143 72.963 85.1985 73.5287 84.3068 73.4988C83.217 73.4618 82.3616 72.5844 82.3601 71.5001L82.3441 54.4169C82.3441 53.5534 81.6373 52.8496 80.7678 52.8496C79.8983 52.8496 79.1915 53.5529 79.1915 54.4169L79.1702 69.4051C79.1692 69.7322 78.9025 69.9973 78.5738 69.9973H78.5728C78.2436 69.9973 77.9764 69.7312 77.9773 69.4036L77.9986 54.4164C77.9986 52.8992 79.2414 51.6653 80.7683 51.6653C82.2952 51.6653 83.5375 52.8992 83.5375 54.4169L83.5535 71.4986C83.5544 71.9407 83.903 72.2996 84.3479 72.3145C84.7105 72.3275 85.0456 72.0961 85.1593 71.7521L86.9448 66.3432C87.2546 65.4046 88.0588 64.7355 89.0435 64.596C89.8694 64.48 90.6769 64.7533 91.2603 65.3459C91.8436 65.9386 92.0998 66.7482 91.9637 67.5655C91.4985 70.3561 90.8057 74.9444 89.9038 81.2015C89.3097 85.3251 87.9029 88.8291 85.7209 91.6182C83.9708 93.8566 81.7245 95.636 79.0448 96.9064C74.8218 98.9091 70.9207 99 70.2516 99Z" fill="white"/>
<path d="M78.5984 70.017C78.2683 70.017 78.002 69.751 78.002 69.4238V49.7521C78.002 48.8881 77.2952 48.1848 76.4247 48.1848C75.5562 48.1848 74.8484 48.8881 74.8484 49.7521V69.4243C74.8484 69.7514 74.5817 70.0175 74.2524 70.0175C73.9223 70.0175 73.656 69.7514 73.656 69.4243V49.7521C73.656 48.2339 74.8978 47 76.4242 47C77.9521 47 79.1949 48.2339 79.1949 49.7521V69.4243C79.1949 69.7514 78.9277 70.017 78.5984 70.017Z" fill="white"/>
<path d="M69.8774 70.7645C69.8774 70.7645 69.8774 70.7645 69.8765 70.7645C69.5473 70.7636 69.2805 70.4985 69.2805 70.1709L69.3009 53.7117C69.3009 52.1944 70.5436 50.9605 72.0705 50.9605C73.5975 50.9605 74.8397 52.1944 74.8397 53.7126L74.8731 69.4147C74.8731 69.7418 74.6064 70.0083 74.2777 70.0083H74.2767C73.9475 70.0083 73.6812 69.7442 73.6802 69.4171L73.6468 53.7131C73.6468 52.8486 72.94 52.1453 72.0705 52.1453C71.201 52.1453 70.4942 52.8486 70.4942 53.7126L70.4739 70.1724C70.4744 70.4995 70.2066 70.7645 69.8774 70.7645Z" fill="white"/>
<path d="M65.5396 75.1455C65.2104 75.1455 64.9431 74.8795 64.9436 74.5528L64.9489 61.105C64.9489 59.5877 66.1917 58.3538 67.7186 58.3538C69.2455 58.3538 70.4883 59.5877 70.4883 61.1059L70.4743 70.1719C70.4733 70.499 70.2065 70.764 69.8778 70.764C69.8778 70.764 69.8778 70.764 69.8768 70.764C69.5476 70.7631 69.2809 70.4975 69.2809 70.1704L69.2949 61.105C69.2949 60.242 68.5881 59.5396 67.7186 59.5396C66.8491 59.5396 66.1423 60.242 66.1423 61.1059L66.1365 74.5528C66.136 74.8809 65.8697 75.1455 65.5396 75.1455Z" fill="white"/>
<path d="M56.7484 99C56.0794 99 52.1792 98.9086 47.9543 96.9055C45.2751 95.635 43.0288 93.8556 41.2787 91.6173C39.0967 88.8286 37.6898 85.3241 37.0958 81.2005C36.1939 74.9468 35.5011 70.3585 35.0359 67.5646C34.8998 66.7473 35.1559 65.9377 35.7393 65.345C36.3227 64.7523 37.1302 64.4796 37.9566 64.595C38.9403 64.7345 39.7454 65.4037 40.0553 66.3422L41.8407 71.7512C41.9545 72.0951 42.289 72.3265 42.6521 72.3135C43.097 72.2986 43.4456 71.9398 43.4466 71.4977L43.4626 54.4155C43.4626 52.8982 44.7053 51.6643 46.2322 51.6643C47.7592 51.6643 49.0019 52.8982 49.0019 54.4159L49.0232 69.4027C49.0232 69.7308 48.7565 69.9963 48.4273 69.9963H48.4263C48.0971 69.9963 47.8303 69.7312 47.8294 69.4041L47.8081 54.4169C47.8081 53.5524 47.1012 52.8487 46.2318 52.8487C45.3623 52.8487 44.6554 53.552 44.6554 54.4159L44.6395 71.4991C44.6375 72.5834 43.7826 73.4609 42.6923 73.4979C41.7991 73.5287 40.9853 72.962 40.7074 72.1202L38.921 66.7107C38.7544 66.2046 38.3202 65.8434 37.7886 65.7688C37.3427 65.7058 36.907 65.853 36.5928 66.1734C36.2776 66.4933 36.1402 66.9291 36.2133 67.3702C36.68 70.1733 37.3737 74.7703 38.2766 81.0317C39.2971 88.1138 42.7117 93.0883 48.4263 95.8149C52.719 97.8633 56.7799 97.8137 56.8196 97.8128C56.823 97.8128 56.8278 97.8128 56.8312 97.8128C60.7328 97.8128 64.4054 96.308 67.1731 93.5761L73.1753 87.651C75.5054 85.3362 75.5054 81.5657 73.1734 79.2489C72.0444 78.1271 70.5426 77.5089 68.945 77.5089C67.3484 77.5089 65.8461 78.1271 64.7176 79.2489L63.9217 80.0398C63.8094 80.1509 63.6579 80.2134 63.5 80.2134C63.3417 80.2134 63.1902 80.1509 63.0784 80.0398L62.2829 79.2489C59.9509 76.9317 56.1568 76.9326 53.8262 79.2489C51.4942 81.5657 51.4942 85.3362 53.8262 87.6519L60.6166 94.4002C60.8499 94.6316 60.8499 95.0058 60.6166 95.2386C60.3837 95.4696 60.0061 95.4696 59.7728 95.2386L52.9824 88.4914C50.1856 85.7128 50.1856 81.1904 52.9824 78.4114C55.7787 75.6328 60.33 75.6328 63.1263 78.4114L63.5005 78.7832L63.8748 78.4114C65.2293 77.0654 67.0298 76.3241 68.946 76.3241C70.8621 76.3241 72.6636 77.0654 74.0182 78.4114C76.8149 81.1904 76.8149 85.7128 74.0182 88.4914L68.014 94.418C65.0231 97.3712 61.0537 98.9976 56.838 98.999C56.8215 98.999 56.7925 99 56.7484 99Z" fill="white"/>
<path d="M52.7476 70.017C52.4184 70.017 52.1521 69.751 52.1521 69.4238V49.7521C52.1521 48.8881 51.4444 48.1848 50.5758 48.1848C49.7059 48.1848 48.9985 48.8881 48.9985 49.7521V69.4243C48.9985 69.7514 48.7318 70.0175 48.4021 70.0175C48.0729 70.0175 47.8057 69.7514 47.8057 69.4243V49.7521C47.8052 48.2339 49.0474 47 50.5753 47C52.1023 47 53.3441 48.2339 53.3441 49.7521V69.4243C53.3441 69.7514 53.0773 70.017 52.7476 70.017Z" fill="white"/>
<path d="M57.1226 70.7645C56.7934 70.7645 56.5267 70.4995 56.5262 70.1724L56.5059 53.7131C56.5059 52.8486 55.799 52.1453 54.9295 52.1453C54.0601 52.1453 53.3532 52.8486 53.3532 53.7126L53.3193 69.4171C53.3184 69.7433 53.0521 70.0083 52.7229 70.0083C52.7229 70.0083 52.7229 70.0083 52.7219 70.0083C52.3927 70.0083 52.126 69.7413 52.126 69.4147L52.1594 53.7107C52.1594 52.1944 53.4021 50.9605 54.9291 50.9605C56.456 50.9605 57.6987 52.1944 57.6987 53.7126L57.7191 70.1704C57.7191 70.4985 57.4523 70.7631 57.1231 70.7641C57.1226 70.7645 57.1226 70.7645 57.1226 70.7645Z" fill="white"/>
<path d="M61.4603 75.1455C61.1302 75.1455 60.8639 74.8804 60.8639 74.5528L60.8576 61.1059C60.8576 60.242 60.1508 59.5396 59.2813 59.5396C58.4118 59.5396 57.705 60.242 57.705 61.1059L57.719 70.1704C57.719 70.4975 57.4523 70.7631 57.123 70.764H57.1221C56.7929 70.764 56.5261 70.499 56.5256 70.1719L56.5116 61.1064C56.5116 59.5877 57.7543 58.3538 59.2813 58.3538C60.8082 58.3538 62.0505 59.5877 62.0505 61.1059L62.0558 74.5528C62.0568 74.8799 61.7895 75.1455 61.4603 75.1455Z" fill="white"/>
</g>
<path d="M11.9729 20.6073L18.5279 29.6295L17.35 30.4853L14.3781 26.3949L9.78293 29.7335L12.7548 33.8239L11.5768 34.6797L5.02186 25.6575L6.19979 24.8017L9.07759 28.7627L13.6728 25.4241L10.795 21.4631L11.9729 20.6073Z" fill="white"/>
<path d="M17.8041 25.6075C17.3678 24.8249 17.1444 24.0518 17.1339 23.2883C17.1183 22.5154 17.2944 21.8127 17.6623 21.1802C18.0395 20.5424 18.5681 20.034 19.2482 19.6548C19.919 19.2809 20.5818 19.1006 21.2366 19.1142C21.8914 19.1277 22.462 19.2859 22.9484 19.5887L22.1693 18.1912L23.4549 17.4744L27.7245 25.1327L26.4388 25.8495L25.6441 24.424C25.6418 25.0115 25.4723 25.5945 25.1354 26.1731C24.8026 26.7372 24.3055 27.2037 23.644 27.5724C22.9639 27.9516 22.2555 28.1267 21.5189 28.0978C20.7822 28.0688 20.0867 27.8398 19.4323 27.4109C18.7779 26.9819 18.2352 26.3807 17.8041 25.6075ZM24.2962 22.0064C23.9742 21.4287 23.5773 20.9906 23.1054 20.6919C22.6336 20.3931 22.135 20.2437 21.6097 20.2434C21.0886 20.2286 20.5904 20.3537 20.1153 20.6186C19.6401 20.8835 19.2692 21.2368 19.0026 21.6786C18.736 22.1203 18.6057 22.6204 18.6117 23.1788C18.6177 23.7372 18.7817 24.3053 19.1037 24.8829C19.431 25.4698 19.8331 25.9173 20.3101 26.2254C20.782 26.5241 21.2785 26.6808 21.7996 26.6956C22.3156 26.701 22.8111 26.5713 23.2863 26.3064C23.7614 26.0415 24.1323 25.6882 24.3989 25.2464C24.6697 24.7902 24.8021 24.2828 24.7961 23.7244C24.7849 23.1567 24.6183 22.584 24.2962 22.0064Z" fill="white"/>
<path d="M30.2203 15.0117C31.2063 14.6049 32.1291 14.5761 32.9886 14.9254C33.844 15.2648 34.5036 15.9965 34.9674 17.1206L36.9384 21.898L35.6072 22.4472L33.7155 17.8621C33.382 17.0535 32.9256 16.5206 32.3464 16.2634C31.7631 15.9964 31.1214 16.0072 30.4213 16.2961C29.7114 16.589 29.2359 17.0447 28.995 17.6634C28.7639 18.278 28.8233 19.0093 29.1731 19.8573L31.0221 24.3388L29.6761 24.8941L26.3322 16.7888L27.6781 16.2335L28.1541 17.3872C28.2495 16.8632 28.4772 16.3943 28.8372 15.9804C29.207 15.5624 29.6681 15.2395 30.2203 15.0117Z" fill="white"/>
<path d="M37.161 17.7296C36.9138 16.8683 36.8719 16.0647 37.0351 15.3187C37.1954 14.5625 37.5265 13.9182 38.0284 13.3857C38.5406 12.8503 39.176 12.4738 39.9347 12.256C40.5909 12.0677 41.2451 12.0464 41.8972 12.1922C42.5465 12.3276 43.0904 12.5988 43.529 13.0056L42.249 8.54564L43.6639 8.13957L46.93 19.5202L45.5151 19.9262L45.0605 18.3422C44.9279 18.924 44.6369 19.4569 44.1877 19.941C43.7355 20.4148 43.1455 20.7561 42.4175 20.965C41.6691 21.1798 40.9343 21.191 40.2132 20.9984C39.5023 20.8029 38.877 20.422 38.3371 19.8556C37.7973 19.2892 37.4052 18.5805 37.161 17.7296ZM44.3014 15.697C44.1189 15.0613 43.8319 14.5444 43.4402 14.1463C43.0485 13.7483 42.5969 13.4895 42.0855 13.3699C41.5813 13.2372 41.0677 13.2459 40.5448 13.3959C40.022 13.546 39.5805 13.8059 39.2205 14.1755C38.8605 14.5452 38.62 15.0026 38.4991 15.5478C38.3781 16.093 38.4088 16.6834 38.5913 17.3191C38.7767 17.965 39.0667 18.4921 39.4613 18.9004C39.8529 19.2985 40.3009 19.5639 40.805 19.6966C41.3063 19.8191 41.8184 19.8053 42.3412 19.6553C42.8641 19.5052 43.3056 19.2453 43.6656 18.8757C44.0329 18.4928 44.277 18.0288 44.398 17.4836C44.516 16.9282 44.4838 16.3326 44.3014 15.697Z" fill="white"/>
<path d="M52.4942 13.6623C52.3777 12.5805 52.5172 11.5839 52.9126 10.6723C53.3069 9.75015 53.8966 9.00006 54.682 8.42204C55.4779 7.84287 56.3902 7.49793 57.4189 7.38721C58.628 7.25708 59.7146 7.43515 60.6788 7.92142C61.6431 8.4077 62.3896 9.16415 62.9185 10.1908L61.1845 10.3774C60.8051 9.74237 60.3043 9.27595 59.6822 8.97814C59.0707 8.6792 58.3619 8.5731 57.5559 8.65985C56.7817 8.74318 56.1065 8.99824 55.5302 9.42503C54.9539 9.85182 54.5267 10.4181 54.2486 11.1239C53.9694 11.8191 53.8777 12.6122 53.9736 13.503C54.0684 14.3833 54.3267 15.1386 54.7486 15.7691C55.1693 16.389 55.7067 16.8461 56.3606 17.1405C57.0145 17.4348 57.7286 17.5404 58.5028 17.457C59.3088 17.3703 59.9793 17.1211 60.5143 16.7095C61.0588 16.2861 61.4489 15.7238 61.6845 15.0226L63.4185 14.8359C63.119 15.941 62.55 16.8337 61.7113 17.514C60.8715 18.1837 59.847 18.5837 58.638 18.7138C57.6093 18.8245 56.645 18.6869 55.7452 18.301C54.8549 17.9033 54.1196 17.3012 53.5393 16.4947C52.959 15.6881 52.6106 14.744 52.4942 13.6623Z" fill="white"/>
<path d="M66.7356 11.5394C67.0039 11.0445 67.3761 10.6643 67.8521 10.3986C68.3388 10.1332 68.9234 10.009 69.6059 10.0258L69.5687 11.5294L69.1848 11.5199C67.5533 11.4796 66.7157 12.3445 66.672 14.1146L66.5542 18.8812L65.0986 18.8452L65.3152 10.0799L66.7708 10.1158L66.7356 11.5394Z" fill="white"/>
<path d="M71.1496 14.8575C71.2354 13.9656 71.4909 13.2025 71.9162 12.5683C72.3425 11.9235 72.8867 11.4454 73.5489 11.1339C74.2217 10.8236 74.9456 10.7056 75.7207 10.7801C76.4852 10.8536 77.133 11.082 77.6641 11.4652C78.1952 11.8485 78.5748 12.3029 78.8029 12.8284L78.956 11.2358L80.4212 11.3766L79.5823 20.1044L78.117 19.9635L78.2732 18.339C77.9375 18.8211 77.4667 19.2045 76.8607 19.4892C76.2663 19.7642 75.5922 19.8655 74.8383 19.793C74.0632 19.7185 73.3808 19.4601 72.7911 19.0176C72.2014 18.5752 71.7592 17.9915 71.4646 17.2667C71.1699 16.5418 71.0649 15.7387 71.1496 14.8575ZM78.538 15.5837C78.6013 14.9254 78.5237 14.3393 78.3052 13.8254C78.0867 13.3115 77.7614 12.9051 77.3294 12.6064C76.9089 12.2981 76.428 12.1179 75.8865 12.0659C75.345 12.0138 74.839 12.0938 74.3686 12.3057C73.8981 12.5177 73.5067 12.8551 73.1943 13.318C72.8819 13.7809 72.6941 14.3415 72.6308 14.9998C72.5665 15.6688 72.6431 16.2655 72.8606 16.79C73.0791 17.304 73.3985 17.7151 73.819 18.0234C74.2404 18.3211 74.7219 18.496 75.2634 18.548C75.8049 18.6001 76.3109 18.5201 76.7813 18.3081C77.2634 18.0866 77.6606 17.7444 77.973 17.2815C78.2864 16.8079 78.4748 16.242 78.538 15.5837Z" fill="white"/>
<path d="M86.4118 14.3751L84.6134 13.9859L83.0127 21.3827L81.5896 21.0747L83.1904 13.6779L82.0801 13.4376L82.3339 12.2648L83.4442 12.5051L83.5762 11.8952C83.7837 10.936 84.1799 10.2906 84.7646 9.95874C85.3621 9.61875 86.2081 9.5672 87.3028 9.80409L87.0456 10.9926C86.42 10.8572 85.9499 10.8864 85.6351 11.0802C85.333 11.2659 85.121 11.6402 84.9992 12.2031L84.8672 12.813L86.6656 13.2022L86.4118 14.3751Z" fill="white"/>
<path d="M90.5218 15.6633L89.1058 20.6335C88.9889 21.0439 88.9928 21.3611 89.1175 21.5851C89.2452 21.799 89.5244 21.9673 89.9553 22.09L90.9862 22.3837L90.6487 23.5686L89.3869 23.2091C88.6072 22.987 88.0737 22.6409 87.7861 22.1708C87.4986 21.7007 87.4717 21.0553 87.7055 20.2346L89.1215 15.2644L88.029 14.9531L88.3578 13.799L89.4503 14.1103L90.0553 11.9868L91.4556 12.3857L90.8506 14.5092L93.051 15.1361L92.7222 16.2902L90.5218 15.6633Z" fill="white"/>
<path d="M101.616 22.6863C101.522 22.9471 101.407 23.2175 101.271 23.4974L94.6819 21.1122C94.438 21.9428 94.4833 22.6795 94.8178 23.3224C95.1659 23.9589 95.7011 24.4079 96.4232 24.6693C97.015 24.8835 97.5554 24.9259 98.0446 24.7967C98.5475 24.6611 98.9626 24.3917 99.2901 23.9884L100.764 24.522C100.257 25.2345 99.5816 25.7217 98.7381 25.9836C97.8982 26.2355 96.9868 26.1835 96.0039 25.8277C95.2216 25.5445 94.583 25.1149 94.0882 24.5387C93.6035 23.9662 93.3017 23.2955 93.183 22.5265C93.068 21.7475 93.1647 20.9318 93.4733 20.0792C93.7819 19.2267 94.2229 18.5412 94.7962 18.0227C95.3696 17.5042 96.0239 17.1852 96.7592 17.0657C97.5081 16.9397 98.2837 17.0219 99.0861 17.3124C99.8685 17.5955 100.499 18.0165 100.977 18.5754C101.456 19.1342 101.746 19.7726 101.849 20.4906C101.966 21.2022 101.888 21.9341 101.616 22.6863ZM100.305 21.8886C100.494 21.367 100.54 20.8789 100.444 20.4243C100.351 19.9597 100.139 19.5595 99.8066 19.2237C99.4881 18.8815 99.0881 18.6233 98.6066 18.449C97.9146 18.1985 97.2429 18.205 96.5917 18.4684C95.9506 18.7355 95.4533 19.2474 95.0999 20.0044L100.305 21.8886Z" fill="white"/>
<path d="M102.596 24.0182C102.991 23.2138 103.499 22.5898 104.121 22.1462C104.747 21.693 105.425 21.4374 106.154 21.3794C106.893 21.3261 107.617 21.4732 108.326 21.8209C108.939 22.1215 109.438 22.5447 109.824 23.0903C110.214 23.6264 110.435 24.1924 110.488 24.7883L112.531 20.6226L113.853 21.2708L108.638 31.9008L107.317 31.2525L108.043 29.7729C107.554 30.1153 106.98 30.3153 106.323 30.3727C105.669 30.4206 105.003 30.2778 104.323 29.9443C103.624 29.6013 103.072 29.1166 102.666 28.49C102.27 27.868 102.062 27.166 102.042 26.3838C102.022 25.6016 102.206 24.8131 102.596 24.0182ZM109.255 27.3022C109.546 26.7084 109.68 26.1326 109.656 25.5746C109.633 25.0167 109.472 24.5218 109.173 24.0899C108.888 23.6532 108.502 23.3151 108.013 23.0755C107.525 22.8359 107.023 22.7324 106.508 22.7649C105.993 22.7974 105.508 22.9752 105.052 23.2983C104.597 23.6214 104.224 24.0798 103.932 24.6735C103.636 25.2769 103.498 25.8623 103.516 26.4298C103.54 26.9878 103.694 27.4851 103.978 27.9218C104.268 28.349 104.657 28.6823 105.145 28.9219C105.634 29.1615 106.135 29.265 106.65 29.2325C107.179 29.1951 107.672 29.0148 108.127 28.6918C108.588 28.3591 108.963 27.8959 109.255 27.3022Z" fill="white"/>
<path d="M34.3729 128.024L26.4303 136.493L24.9761 135.752L26.7417 126.578L20.2716 133.355L18.8245 132.636L21.1147 121.269L22.4976 121.973L20.3716 131.503L27.0595 124.298L28.5136 125.039L26.5162 134.598L32.9758 127.312L34.3729 128.024Z" fill="white"/>
<path d="M38.9945 129.096C38.7279 129.019 38.5287 128.863 38.3971 128.625C38.2654 128.388 38.2378 128.136 38.3143 127.869C38.3907 127.602 38.5477 127.403 38.7851 127.272C39.0226 127.14 39.2746 127.112 39.5412 127.189C39.7976 127.262 39.9864 127.416 40.1078 127.651C40.2395 127.888 40.2671 128.14 40.1907 128.407C40.1142 128.673 39.9573 128.873 39.7198 129.004C39.4926 129.139 39.2508 129.169 38.9945 129.096ZM39.2787 130.659L36.8623 139.087L35.4627 138.686L37.8791 130.258L39.2787 130.659Z" fill="white"/>
<path d="M44.5495 133.084L43.4066 138.124C43.3123 138.54 43.3335 138.856 43.4702 139.073C43.6093 139.28 43.8973 139.433 44.3342 139.532L45.3797 139.769L45.1073 140.97L43.8277 140.68C43.0371 140.501 42.4855 140.185 42.1727 139.731C41.86 139.277 41.798 138.634 41.9867 137.802L43.1295 132.762L42.0216 132.511L42.287 131.34L43.3949 131.592L43.8832 129.438L45.3031 129.76L44.8148 131.914L47.0462 132.419L46.7808 133.59L44.5495 133.084Z" fill="white"/>
<path d="M54.7482 133.257C55.4027 133.352 55.973 133.581 56.4592 133.943C56.9469 134.294 57.2977 134.771 57.5117 135.374C57.7362 135.978 57.79 136.681 57.673 137.483L56.9273 142.597L55.5024 142.389L56.2181 137.481C56.3443 136.616 56.2241 135.924 55.8575 135.408C55.4925 134.88 54.9353 134.562 54.1859 134.452C53.4259 134.341 52.7844 134.49 52.2612 134.899C51.7487 135.31 51.4262 135.969 51.2938 136.876L50.5943 141.674L49.1535 141.464L50.862 129.747L52.3027 129.958L51.6794 134.232C52.029 133.831 52.4696 133.544 53.0011 133.374C53.5431 133.205 54.1255 133.166 54.7482 133.257Z" fill="white"/>
<path d="M69.7605 130.321L70.2914 142.149L68.8369 142.214L68.3059 130.386L69.7605 130.321Z" fill="white"/>
<path d="M78.4826 141.476C77.6655 141.559 76.9038 141.449 76.1975 141.145C75.5019 140.841 74.9286 140.368 74.4777 139.728C74.0363 139.075 73.7698 138.298 73.6784 137.396C73.5879 136.505 73.6993 135.7 74.0125 134.982C74.3351 134.253 74.8125 133.674 75.4444 133.245C76.0753 132.806 76.8047 132.544 77.6324 132.46C78.4602 132.376 79.2272 132.486 79.9334 132.79C80.6386 133.083 81.2166 133.549 81.6676 134.19C82.1291 134.829 82.4056 135.6 82.4971 136.502C82.5886 137.404 82.4677 138.22 82.1344 138.951C81.8106 139.67 81.328 140.25 80.6865 140.69C80.045 141.13 79.3104 141.392 78.4826 141.476ZM78.3534 140.203C78.8734 140.15 79.3492 139.979 79.7808 139.688C80.2124 139.398 80.5413 138.995 80.7677 138.478C81.0048 137.961 81.0877 137.352 81.0167 136.652C80.9457 135.952 80.7474 135.371 80.422 134.911C80.0966 134.451 79.6991 134.127 79.2298 133.938C78.7593 133.74 78.264 133.667 77.744 133.719C77.2134 133.773 76.7377 133.945 76.3167 134.234C75.9053 134.512 75.5917 134.908 75.3759 135.423C75.1601 135.938 75.0877 136.546 75.1588 137.246C75.2309 137.957 75.419 138.544 75.7232 139.006C76.0381 139.467 76.4254 139.798 76.8853 139.998C77.344 140.187 77.8334 140.256 78.3534 140.203Z" fill="white"/>
<path d="M90.7849 137.285L91.736 129.436L93.2469 129.081L91.902 138.403L90.2509 138.791L84.8979 131.041L86.4244 130.683L90.7849 137.285Z" fill="white"/>
<path d="M105.248 128.663C105.342 128.924 105.426 129.205 105.501 129.507L98.9069 131.88C99.2497 132.675 99.755 133.213 100.423 133.494C101.097 133.762 101.796 133.765 102.519 133.505C103.111 133.292 103.554 132.98 103.848 132.568C104.148 132.143 104.295 131.67 104.29 131.151L105.765 130.62C105.83 131.492 105.621 132.298 105.139 133.038C104.654 133.769 103.919 134.311 102.936 134.665C102.153 134.946 101.387 135.024 100.638 134.896C99.8998 134.765 99.2392 134.442 98.6568 133.926C98.0708 133.4 97.6242 132.71 97.3172 131.857C97.0102 131.004 96.9118 130.195 97.0219 129.43C97.1319 128.665 97.4317 128.001 97.9211 127.44C98.417 126.865 99.0664 126.433 99.8693 126.144C100.652 125.862 101.406 125.783 102.131 125.908C102.856 126.032 103.488 126.338 104.025 126.825C104.57 127.298 104.977 127.91 105.248 128.663ZM103.73 128.886C103.542 128.364 103.266 127.959 102.902 127.671C102.534 127.373 102.114 127.2 101.644 127.154C101.181 127.094 100.708 127.151 100.226 127.324C99.5337 127.574 99.021 128.008 98.6881 128.626C98.3653 129.241 98.3096 129.953 98.5211 130.761L103.73 128.886Z" fill="white"/>
<defs>
<clipPath id="clip0_229_66">
<rect width="57" height="52" fill="white" transform="translate(35 47)"/>
</clipPath>
</defs>
</svg>
