<svg width="209" height="80" viewBox="0 0 209 80" fill="none" xmlns="http://www.w3.org/2000/svg">
<g clip-path="url(#clip0_140_105)">
<path d="M59.69 15.06C59.69 15.06 87.47 46.06 44.39 47.27C1.31 48.47 0.5 79.48 0.5 79.48" stroke="#EA4A38" stroke-miterlimit="10" stroke-linecap="round"/>
<path d="M54.03 11.08C50.95 11.6 48.84 12.33 48.86 13.34C48.95 16.69 77.39 15.4 77.39 15.4C77.39 15.4 235.59 11.14 236.26 9.16C236.93 7.18 77.56 9.78 77.56 9.78C77.56 9.78 62.29 9.68 54.03 11.08ZM58.75 13.69C58.18 13.5 57.87 13.27 57.86 13.03C57.84 12.18 61.66 11.39 66.4 11.28C68.62 11.23 70.64 11.33 72.17 11.54C73.43 11.72 74.36 11.97 74.77 12.26C74.93 12.37 75.02 12.49 75.02 12.62C75.03 13.01 74.23 13.39 72.9 13.69C71.34 14.05 69.04 14.3 66.48 14.37C63.1 14.46 60.16 14.17 58.75 13.69Z" fill="#B7AFA3"/>
<path d="M54.03 11.08C50.94 11.6 48.84 12.33 48.86 13.34C48.94 16.69 77.39 15.4 77.39 15.4C77.39 15.4 235.59 11.14 236.26 9.16C236.26 9.16 105.88 13.02 72.89 13.7C71.33 14.06 69.03 14.31 66.48 14.37C63.09 14.45 60.16 14.17 58.75 13.69C51.18 13.39 50.1 12.47 54.03 11.08Z" fill="#988E7E"/>
<g opacity="0.36">
<mask id="mask0_140_105" style="mask-type:luminance" maskUnits="userSpaceOnUse" x="72" y="8" width="149" height="5">
<path d="M220.22 8.91H72.17V12.3H220.22V8.91Z" fill="white"/>
</mask>
<g mask="url(#mask0_140_105)">
<path d="M72.17 11.55C73.43 11.72 74.35 11.98 74.77 12.27C83.82 12.43 105.67 11.92 129.49 11.33C171.54 10.31 220.22 8.89999 220.22 8.89999C219.97 8.89999 172.19 9.14999 130.42 9.81999C103.54 10.26 78.87 10.92 72.17 11.55Z" fill="white"/>
</g>
</g>
<path d="M165.11 0H94.3199V23.21H165.11V0Z" fill="white"/>
</g>
<defs>
<clipPath id="clip0_140_105">
<rect width="236.26" height="79.98" fill="white"/>
</clipPath>
</defs>
</svg>
