<?xml version="1.0" encoding="UTF-8"?>
<svg id="Layer_1" xmlns="http://www.w3.org/2000/svg" version="1.1" xmlns:xlink="http://www.w3.org/1999/xlink" viewBox="0 0 277 103">
  <!-- Generator: Adobe Illustrator 29.4.0, SVG Export Plug-In . SVG Version: 2.1.0 Build 152)  -->
  <defs>
    <style>
      .st0 {
        fill: #845c24;
        font-family: Roboto-Regular, Roboto;
        font-size: 7.58px;
        letter-spacing: .45em;
      }

      .st1 {
        fill: url(#linear-gradient);
      }
    </style>
    <linearGradient id="linear-gradient" x1="27.85" y1="54.32" x2="249.38" y2="54.32" gradientUnits="userSpaceOnUse">
      <stop offset="0" stop-color="#fff4a7"/>
      <stop offset=".08" stop-color="#f8df7c"/>
      <stop offset=".14" stop-color="#e4c364"/>
      <stop offset=".23" stop-color="#cfa54b"/>
      <stop offset=".32" stop-color="#c09039"/>
      <stop offset=".41" stop-color="#b7832e"/>
      <stop offset=".49" stop-color="#b47f2b"/>
      <stop offset=".56" stop-color="#b6832e"/>
      <stop offset=".64" stop-color="#bf8f39"/>
      <stop offset=".72" stop-color="#cea44a"/>
      <stop offset=".8" stop-color="#e3c163"/>
      <stop offset=".86" stop-color="#f8df7c"/>
      <stop offset="1" stop-color="#fff4a7"/>
    </linearGradient>
  </defs>
  <path class="st1" d="M123.22,66.11c.09.19-.05.4-.25.4h-5.48c-.11,0-.21-.06-.25-.16-2.85-6.12-9.17-19.67-12.12-25.96-.1-.22-.41-.21-.51,0-2.68,5.73-7.81,16.74-10.34,22.18,0,0,0,0,0,0-3.03,6.75-7.94,11.05-13.41,13.05-15.68,5.52-25.28-10.43-31.44-23-.5-1.08-1.02-2.17-1.53-3.27-2.78-6.24-4.41-11.17-4.41-11.17l-.21-.72-1.01,2.38-4.7,10.05-7.65,16.45c-.05.1-.14.16-.25.16h-1.54c-.2,0-.34-.21-.25-.4l7.54-16.21,5.52-11.81,2.15-4.64c.05-.1.14-.16.25-.16h1.7,0s1.58,0,1.58,0c.12,0,.23.08.27.2,1.01,3.47,15.47,51.32,37.38,38.35,0,.02,0,.03,0,.04,6.99-4.64,10.37-14.84,13.61-21.98,1.45-3.21,6.23-13.17,7.68-16.45.04-.1.14-.16.25-.16h1.92c.11,0,.21.06.25.16l15.23,32.65ZM184.93,50.59h16.05c.15,0,.28-.13.28-.28v-.95c0-.15-.13-.28-.28-.28h-16.05c-.15,0-.28.13-.28.28v.95c0,.15.13.28.28.28ZM74.43,33.71h0s.07.01,0,0ZM206.52,33.24h-21.59c-.15,0-.28.13-.28.28v2.81c0,.15.13.28.28.28h21.59c.15,0,.28-.13.28-.28v-2.81c0-.15-.13-.28-.28-.28ZM249.1,33.24h-.92c-.15,0-.28.13-.28.28v24.43c0,.25-.3.37-.48.2l-24.82-24.82c-.05-.05-.12-.08-.2-.08h-1.09c-.15,0-.28.13-.28.28v32.65c0,.15.13.28.28.28h.92c.15,0,.28-.13.28-.28v-24.43c0-.25.3-.37.48-.2l24.82,24.82c.05.05.12.08.2.08h1.09c.15,0,.28-.13.28-.28v-32.65c0-.15-.13-.28-.28-.28ZM151.17,49.87l-7.67-16.45c-.05-.1-.15-.16-.25-.16h-1.8c-.11,0-.21.06-.25.16l-2.15,4.64-5.52,11.81-7.54,16.21c-.09.19.05.4.25.4h1.54c.11,0,.21-.06.25-.16l7.65-16.45,4.44-9.51c.1-.22.41-.22.51,0l4.44,9.51,7.67,16.45c.05.1.14.16.25.16h5.48c.2,0,.34-.21.25-.4l-7.56-16.21ZM215.88,33.24h-4.98c-.15,0-.28.13-.28.28v32.65c0,.15.13.28.28.28h4.98c.15,0,.28-.13.28-.28v-32.65c0-.15-.13-.28-.28-.28ZM181.97,33.24h-1.21c-.08,0-.16.04-.21.1l-11.18,13.32c-.12.14-.34.13-.44-.02l-9.33-13.28c-.05-.07-.14-.12-.23-.12h-6.05c-.23,0-.36.26-.23.44l11.34,16.2s.05.1.05.16v16.14c0,.15.13.28.28.28h4.96c.15,0,.28-.13.28-.28v-17.87c0-.07.02-.13.07-.18l12.12-14.42c.15-.18.02-.46-.21-.46ZM206.52,63.34h-16.33s-5.26,0-5.26,0c-.15,0-.28.13-.28.28v2.56c0,.15.13.28.28.28h21.59c.15,0,.28-.13.28-.28v-2.55c0-.15-.13-.28-.28-.28ZM92.36,47.98c-.4-3.76-1.99-7.03-4.77-9.82-.92-.92-1.9-1.71-2.92-2.37,0,0,0,0,0,0-.02-.01-.04-.02-.05-.03-.56-.36-1.14-.68-1.73-.96-5.95-3.04-9.05-2.41-10.64-2.68-.4-.07-3.46-.15-6.27-.24,0,0-.01,0-.01.01v1.52s0,.01.01.01l6.94.16s0,0,0,0c.63.09.87.11,1.51.1-.03,0-.07-.01,0,0l1.79.22s0,0,0,0c3.05,0,5.23,2.57,7.4,5.53,2.17,2.96,3.29,6.26,3.29,10.43s-1.09,7.74-3.26,10.69c-.62.85-1.28,1.57-1.98,2.17-1.73,1.5-3.68,2.26-5.85,2.26h-7.03s-.01,0-.01-.01v-32.06c0-.16-.12-.29-.28-.29l-2.28-.11c-.17,0-.31.13-.31.29v33.37c0,.16.13.29.29.29h2.29s0,0,0,0h7.32c1.27,0,2.49-.13,3.67-.38,2.26-.48,4.34-1.43,6.22-2.85,4.72-3.56,7.27-9.41,6.65-15.29Z"/>
  <text class="st0" transform="translate(92.87 76.28)"><tspan x="0" y="0">THE ESSENCE OF LEGACY</tspan></text>
</svg>