<?xml version="1.0" encoding="UTF-8"?>
<svg id="Layer_1" xmlns="http://www.w3.org/2000/svg" version="1.1" viewBox="0 0 277 103">
  <!-- Generator: Adobe Illustrator 29.4.0, SVG Export Plug-In . SVG Version: 2.1.0 Build 152)  -->
  <defs>
    <style>
      .st0 {
        fill: #026e51;
      }

      .st1 {
        fill: #1c2f5b;
      }
    </style>
  </defs>
  <path class="st1" d="M48.96,40.35c-.07-.28-.17-1.06-.32-2.35-.13-1.06-.25-1.95-.35-2.65-.15.83-.36,1.66-.64,2.5-.27.83-.62,1.68-1.04,2.55l-9.56,19.47-9.56-19.87c-.4-.82-.74-1.61-1.04-2.37-.29-.77-.55-1.52-.76-2.27-.02.77-.08,1.57-.19,2.41-.11.84-.27,1.72-.49,2.63l-3.92,18h-5.47l8.64-38.09,10.78,23.06c.17.37.42.97.76,1.82.34.85.75,1.9,1.24,3.15.35-1.05.9-2.38,1.65-3.99.2-.43.35-.77.45-1l10.53-23.04,8.84,38.09h-5.52l-4.04-18.05Z"/>
  <path class="st1" d="M85.61,47.36h-18.92c.13,2.21.79,3.94,1.97,5.18,1.18,1.24,2.75,1.86,4.72,1.86,1.75,0,3.2-.37,4.37-1.1,1.16-.73,2.18-1.91,3.05-3.54l4.57,2.55c-1.33,2.38-2.98,4.15-4.94,5.32-1.96,1.16-4.27,1.75-6.91,1.75-3.79,0-6.81-1.16-9.06-3.47-2.25-2.31-3.37-5.4-3.37-9.26s1.16-6.76,3.48-9.15c2.32-2.39,5.3-3.58,8.95-3.58s6.78,1.09,8.91,3.27c2.13,2.18,3.2,5.23,3.2,9.16v1.02ZM79.99,43.72c-.22-1.7-.87-2.99-1.95-3.88-1.08-.89-2.56-1.34-4.44-1.34-1.78,0-3.21.43-4.29,1.3-1.08.87-1.84,2.17-2.27,3.92h12.96Z"/>
  <path class="st1" d="M108.1,19.7h5.42v38.69h-5.42v-3.07c-.97,1.36-2.09,2.38-3.38,3.05-1.29.67-2.77,1-4.43,1-3.35,0-5.98-1.14-7.9-3.43-1.92-2.29-2.88-5.42-2.88-9.4s.98-6.83,2.95-9.15c1.96-2.32,4.53-3.48,7.69-3.48,1.93,0,3.58.4,4.95,1.21,1.37.81,2.38,1.97,3.01,3.48v-18.9ZM108.25,46.49c0-2.45-.57-4.35-1.71-5.72-1.14-1.36-2.73-2.05-4.78-2.05s-3.66.7-4.83,2.11c-1.17,1.41-1.76,3.36-1.76,5.85s.57,4.45,1.7,5.82c1.13,1.36,2.73,2.05,4.79,2.05s3.55-.74,4.77-2.21c1.21-1.47,1.82-3.42,1.82-5.85Z"/>
  <path class="st0" d="M121.45,58.39V19.7h5.94v33.37h13.28v5.32h-19.22Z"/>
  <path class="st0" d="M167.31,58.39h-5.42v-3.07c-.97,1.36-2.09,2.38-3.38,3.05-1.29.67-2.77,1-4.43,1-3.34,0-5.98-1.14-7.9-3.43-1.92-2.29-2.88-5.42-2.88-9.4s.98-6.83,2.95-9.15c1.96-2.32,4.53-3.48,7.69-3.48,1.93,0,3.58.4,4.95,1.21,1.37.81,2.38,1.97,3.01,3.48v-3.87h5.42v23.66ZM162.04,46.49c0-2.45-.57-4.35-1.71-5.72-1.14-1.36-2.73-2.05-4.78-2.05s-3.66.7-4.83,2.11c-1.17,1.41-1.76,3.36-1.76,5.85s.57,4.45,1.7,5.82c1.13,1.36,2.73,2.05,4.79,2.05,1.95,0,3.53-.74,4.76-2.22,1.22-1.48,1.83-3.43,1.83-5.84Z"/>
  <path class="st0" d="M192.99,58.39h-21.99l13.18-18.92h-11.86v-4.74h20.67l-12.91,18.92h12.91v4.74Z"/>
  <path class="st0" d="M220.55,47.36h-18.92c.13,2.21.79,3.94,1.97,5.18,1.18,1.24,2.75,1.86,4.72,1.86,1.75,0,3.2-.37,4.37-1.1,1.16-.73,2.18-1.91,3.05-3.54l4.57,2.55c-1.33,2.38-2.98,4.15-4.94,5.32-1.96,1.16-4.27,1.75-6.91,1.75-3.79,0-6.81-1.16-9.06-3.47-2.25-2.31-3.37-5.4-3.37-9.26s1.16-6.76,3.48-9.15c2.32-2.39,5.3-3.58,8.95-3.58s6.78,1.09,8.91,3.27c2.13,2.18,3.2,5.23,3.2,9.16v1.02ZM214.94,43.72c-.22-1.7-.87-2.99-1.95-3.88-1.08-.89-2.56-1.34-4.44-1.34-1.78,0-3.21.43-4.29,1.3-1.08.87-1.84,2.17-2.27,3.92h12.96Z"/>
  <path class="st0" d="M231.61,38.5c.58-1.56,1.35-2.72,2.31-3.47.96-.75,2.14-1.12,3.56-1.12.77,0,1.52.09,2.26.27.74.18,1.47.45,2.18.8l-1.95,4.59c-.47-.33-.97-.58-1.51-.74-.54-.16-1.14-.24-1.81-.24-1.8,0-3.09.72-3.87,2.16-.78,1.44-1.17,3.86-1.17,7.25v10.38h-5.42v-23.71h5.42v3.82Z"/>
  <path class="st0" d="M242.29,54.1l4.49-2.45c.33,1.18.95,2.08,1.85,2.7.9.62,2.06.92,3.47.92,1.21,0,2.17-.28,2.86-.84.69-.56,1.04-1.32,1.04-2.28,0-1.28-1.23-2.38-3.69-3.29-.83-.3-1.47-.55-1.92-.75-2.53-1.05-4.3-2.11-5.3-3.2-1.01-1.08-1.51-2.4-1.51-3.94,0-2.11.83-3.83,2.48-5.14,1.66-1.31,3.85-1.97,6.58-1.97,1.83,0,3.4.34,4.71,1.01,1.31.67,2.26,1.63,2.86,2.88l-3.84,2.65c-.28-.75-.78-1.34-1.49-1.78-.71-.44-1.53-.66-2.46-.66-1.03,0-1.86.25-2.48.74-.62.49-.94,1.14-.94,1.96,0,1.23,1.4,2.35,4.19,3.37.88.32,1.56.57,2.05.77,2.18.87,3.74,1.84,4.68,2.93.94,1.09,1.41,2.45,1.41,4.08,0,2.36-.86,4.21-2.57,5.55-1.71,1.34-4.08,2.01-7.09,2.01-2.31,0-4.24-.43-5.77-1.3-1.53-.87-2.73-2.19-3.59-3.97Z"/>
  <polygon class="st0" points="112.21 76.47 15.64 80.38 15.64 72.33 112.21 76.47 112.21 76.47"/>
  <g>
    <path class="st1" d="M120.87,69.98h5.28v1.79h-1.74v7.76h-1.84v-7.76h-1.69v-1.79Z"/>
    <path class="st1" d="M130.37,69.74h1.76v3.44c.35-.3.69-.52,1.05-.67.35-.15.71-.22,1.06-.22.7,0,1.29.24,1.77.73.41.42.62,1.04.62,1.85v4.67h-1.75v-3.1c0-.82-.04-1.37-.12-1.66-.08-.29-.21-.51-.4-.65-.19-.14-.42-.21-.7-.21-.36,0-.67.12-.92.36-.26.24-.44.56-.54.97-.05.21-.08.7-.08,1.45v2.84h-1.76v-9.79Z"/>
    <path class="st1" d="M147.01,76.51h-5.69c.08.5.3.9.66,1.2.36.3.81.44,1.37.44.66,0,1.23-.23,1.71-.69l1.49.7c-.37.53-.82.92-1.34,1.17-.52.25-1.14.38-1.85.38-1.11,0-2.01-.35-2.71-1.05-.7-.7-1.05-1.57-1.05-2.63s.35-1.97,1.04-2.68c.69-.71,1.57-1.07,2.61-1.07,1.11,0,2.02.36,2.71,1.07.7.71,1.05,1.65,1.05,2.82v.34ZM145.24,75.11c-.12-.39-.35-.71-.69-.96-.34-.25-.74-.37-1.2-.37-.49,0-.93.14-1.3.42-.23.17-.45.48-.65.92h3.84Z"/>
    <path class="st1" d="M157.13,69.98h1.82v7.82h2.65v1.73h-4.47v-9.55Z"/>
    <path class="st1" d="M165.6,69.56c.31,0,.58.11.8.34.22.23.33.5.33.82s-.11.59-.33.81c-.22.22-.48.33-.79.33s-.58-.11-.81-.34c-.22-.23-.33-.5-.33-.83s.11-.58.33-.8c.22-.22.49-.33.8-.33ZM164.71,72.47h1.77v7.06h-1.77v-7.06Z"/>
    <path class="st1" d="M175.16,72.47h1.77v6.05c0,1.19-.24,2.07-.72,2.64-.64.76-1.62,1.14-2.91,1.14-.69,0-1.27-.09-1.75-.26-.47-.17-.87-.43-1.19-.76-.32-.34-.56-.74-.72-1.22h1.95c.17.2.4.35.67.45.27.1.59.15.97.15.48,0,.86-.07,1.15-.22.29-.15.49-.34.61-.57.12-.23.18-.64.18-1.21-.31.31-.64.54-.98.67-.34.14-.73.2-1.16.2-.95,0-1.75-.34-2.4-1.03-.65-.68-.98-1.55-.98-2.6,0-1.12.35-2.02,1.04-2.7.63-.61,1.38-.92,2.25-.92.41,0,.79.07,1.15.22.36.15.72.4,1.09.74v-.78ZM173.32,73.94c-.56,0-1.02.19-1.38.56-.36.37-.55.85-.55,1.41s.19,1.07.56,1.45c.37.38.84.57,1.4.57s1-.18,1.36-.55c.36-.37.54-.85.54-1.45s-.18-1.07-.54-1.43c-.36-.37-.82-.55-1.39-.55Z"/>
    <path class="st1" d="M181.64,69.74h1.76v3.44c.35-.3.69-.52,1.04-.67.35-.15.71-.22,1.06-.22.7,0,1.29.24,1.77.73.41.42.62,1.04.62,1.85v4.67h-1.75v-3.1c0-.82-.04-1.37-.12-1.66-.08-.29-.21-.51-.4-.65-.19-.14-.42-.21-.7-.21-.36,0-.67.12-.92.36-.26.24-.44.56-.54.97-.05.21-.08.7-.08,1.45v2.84h-1.76v-9.79Z"/>
    <path class="st1" d="M192.41,69.86h1.77v2.6h1.05v1.53h-1.05v5.54h-1.77v-5.54h-.91v-1.53h.91v-2.6Z"/>
    <path class="st1" d="M211.18,69.74c1.35,0,2.51.49,3.49,1.47.97.98,1.46,2.17,1.46,3.58s-.48,2.57-1.44,3.54c-.96.96-2.12,1.45-3.49,1.45s-2.62-.5-3.57-1.49c-.95-.99-1.42-2.17-1.42-3.53,0-.91.22-1.75.66-2.52.44-.77,1.05-1.37,1.82-1.82.77-.45,1.61-.67,2.5-.67ZM211.16,71.52c-.88,0-1.63.31-2.23.92-.6.61-.9,1.4-.9,2.34,0,1.06.38,1.89,1.14,2.51.59.48,1.27.72,2.03.72.86,0,1.6-.31,2.2-.93.61-.62.91-1.39.91-2.3s-.31-1.68-.92-2.31c-.61-.63-1.35-.94-2.23-.94Z"/>
    <path class="st1" d="M218.8,72.47h.63c0-.93.02-1.47.05-1.64.05-.39.21-.7.49-.92.28-.23.67-.34,1.18-.34.37,0,.78.08,1.25.25v1.35c-.26-.07-.46-.11-.63-.11-.21,0-.36.04-.45.13-.07.07-.1.2-.1.4v.88s1.12,0,1.12,0v1.5h-1.12v5.56h-1.77v-5.56h-.63v-1.5Z"/>
    <path class="st1" d="M233.41,69.98h1.82v7.82h2.65v1.73h-4.47v-9.55Z"/>
    <path class="st1" d="M242.62,69.56c.31,0,.58.11.8.34.22.23.33.5.33.82s-.11.59-.33.81c-.22.22-.48.33-.79.33s-.58-.11-.81-.34c-.22-.23-.33-.5-.33-.83s.11-.58.33-.8c.22-.22.49-.33.8-.33ZM241.73,72.47h1.77v7.06h-1.77v-7.06Z"/>
    <path class="st1" d="M246.99,72.47h.63c0-.93.02-1.47.05-1.64.05-.39.21-.7.49-.92.28-.23.67-.34,1.18-.34.37,0,.78.08,1.25.25v1.35c-.26-.07-.47-.11-.63-.11-.21,0-.36.04-.45.13-.07.07-.1.2-.1.4v.88s1.12,0,1.12,0v1.5h-1.12v5.56h-1.77v-5.56h-.63v-1.5Z"/>
    <path class="st1" d="M261.31,76.51h-5.69c.08.5.3.9.66,1.2.36.3.81.44,1.37.44.66,0,1.23-.23,1.71-.69l1.49.7c-.37.53-.82.92-1.34,1.17-.52.25-1.14.38-1.85.38-1.11,0-2.01-.35-2.71-1.05-.7-.7-1.05-1.57-1.05-2.63s.35-1.97,1.04-2.68c.69-.71,1.57-1.07,2.61-1.07,1.11,0,2.02.36,2.71,1.07.7.71,1.05,1.65,1.05,2.82v.34ZM259.54,75.11c-.12-.39-.35-.71-.69-.96-.34-.25-.74-.37-1.2-.37-.49,0-.93.14-1.3.42-.23.17-.45.48-.65.92h3.84Z"/>
  </g>
</svg>