<?xml version="1.0" encoding="UTF-8"?>
<svg id="Layer_1" xmlns="http://www.w3.org/2000/svg" version="1.1" viewBox="0 0 277 103">
  <!-- Generator: Adobe Illustrator 29.4.0, SVG Export Plug-In . SVG Version: 2.1.0 Build 152)  -->
  <defs>
    <style>
      .st0 {
        fill: #231f20;
      }

      .st1 {
        fill: #fff;
      }

      .st2 {
        fill: #f3776b;
      }
    </style>
  </defs>
  <g>
    <path class="st2" d="M121.32,22.68l10.23,27.09c.3.8.85,1.15,1.65,1.15s1.3-.35,1.65-1.15l10.73-27.09h6.54l-11.87,29.93c-1.25,3.14-3.54,4.34-7.03,4.34-3.29,0-5.84-1.05-7.08-4.34l-11.28-29.93h6.49Z"/>
    <path class="st2" d="M37.6,23.3c9.78,0,15.22,5.59,15.22,16.91s-5.39,16.76-15.22,16.76h-4.59c-9.83,0-15.22-5.49-15.22-16.76s5.44-16.91,15.22-16.91h4.59Z"/>
    <path class="st2" d="M64.84,23.27v22c0,3.24,1.6,5.79,6.89,5.79h13.07v5.89h-13.42c-8.93,0-12.42-4.89-12.42-11.62v-22.05h5.89Z"/>
    <path class="st2" d="M94.98,23.27v22c0,3.24,1.6,5.79,6.89,5.79h13.07v5.89h-13.42c-8.93,0-12.42-4.89-12.42-11.62v-22.05h5.89Z"/>
    <path class="st2" d="M183.39,23.27v5.89h-16.86c-3.54,0-5.09,1.65-5.09,4.24,0,2.74,1.75,3.99,5.14,3.99h16.56v5.34h-16.71c-3.39,0-5.14,1.35-5.14,4.09s1.65,4.24,5.09,4.24h17.06v5.89h-17.06c-7.98,0-11.23-3.94-11.23-9.18,0-3.84,1.75-6.44,4.84-7.73-3.14-1.3-4.74-3.89-4.74-7.58,0-5.39,3.34-9.18,11.28-9.18h16.86Z"/>
    <path class="st2" d="M209.24,23.27c7.58,0,10.83,4.69,10.83,10.08,0,4.19-2,8.68-7.13,10.13l7.83,13.47h-6.54l-7.68-13.02h-8.78c-.55,0-.85.25-.85.85v12.17h-5.89v-13.32c0-3.79,1.6-5.34,5.29-5.34h13.12c3.34,0,4.69-2.3,4.69-4.69s-1.45-4.44-4.69-4.44h-18.46v-5.89h18.26Z"/>
    <path class="st2" d="M230.05,56.95h-6.49l11.82-29.93c1.25-3.14,3.54-4.34,7.08-4.34s5.79,1.2,6.98,4.34l11.38,29.93h-6.54l-10.23-27.09c-.3-.8-.85-1.15-1.65-1.15s-1.35.35-1.7,1.15l-10.68,27.09Z"/>
    <g>
      <path class="st1" d="M29.78,29.39h0s-1.22-2.37-1.96-2.74c.55,1.12.97,1.92,1.45,3.31.1.32.2.65.25.98.32,2.17-.13,4.3-1.46,6.92-.24.48-.49.95-.75,1.42-.57,1.07-1.16,2.17-1.63,3.31-1.12,2.71-1.09,5.44.1,8.11.13.3.27.58.45.87.02.03.05.1.05.1,1.31,2.24,2.47,3.3,3.21,3.76-.35-.38-1.16-1.89-1.36-2.27-.13-.27-.27-.54-.39-.81-1.54-3.42-1.55-6.57-.02-9.62.34-.67.71-1.34,1.08-1.98.3-.52.6-1.06.89-1.61.82-1.56,1.62-3.45,1.39-5.67-.14-1.35-.56-2.69-1.29-4.08Z"/>
      <path class="st1" d="M45.78,43c-.41-1.22-1.02-2.33-1.61-3.35l-.2-.35c-.77-1.31-1.56-2.66-2.07-4.12-.72-2.09-.73-4.28,0-6.7,0,0,0,0,0-.01.32-1.08.63-1.83,1.04-2.82-.4.38-1.72,2.88-1.72,2.88v.02c-.09.16-.18.32-.26.49-1.56,3.04-1.56,6.08,0,9.05.41.78.85,1.55,1.29,2.29.28.49.57.97.84,1.47,1.24,2.23,1.74,4.19,1.58,6.15-.09,1.05-.39,2.03-.69,2.89-.52,1.22-.9,1.96-1.45,2.98.48-.26,1.24-1.42,1.69-2.15.01-.02.02-.03.03-.05.31-.52.54-.94.76-1.36,1.32-2.56,1.58-4.95.78-7.29Z"/>
      <path class="st1" d="M35.04,28.6s0,0,0,0c.06-1.72,1.36-3.51,1.61-3.87-.69.3-1.4,1.23-1.75,1.73,0,.01-.01.02-.02.03-.12.18-.2.3-.2.3-1.9,3.09-.83,6.11.34,9.25.64,1.71,1.29,3.48,1.47,5.33h0s.07,1.25-.2,2.65c-.07.16-.14.37-.22.67-.45,1.8-1.22,2.49-2.25,3.55.36.06,1.31-.9,2.05-1.71.96-.97,1.92-2.04,2.36-4.35,0,0,0,0,0-.01.28-2.34-.69-4.73-1.62-7.05-.91-2.27-1.76-4.42-1.59-6.52Z"/>
    </g>
  </g>
  <g>
    <path class="st0" d="M23.38,76.27c.46,0,.86-.17,1.21-.5s.52-.79.52-1.38h.78l.02.04c.01.73-.23,1.35-.74,1.84-.51.49-1.11.74-1.79.74-.92,0-1.62-.33-2.11-.98-.49-.65-.74-1.49-.74-2.52v-1.23c0-1.02.25-1.86.74-2.52.49-.66,1.2-.99,2.11-.99.74,0,1.35.26,1.83.77.48.52.72,1.2.7,2.04v.04h-.8c0-.63-.17-1.13-.5-1.51s-.74-.56-1.24-.56c-.69,0-1.18.26-1.5.78s-.47,1.17-.47,1.96v1.24c0,.8.16,1.46.47,1.97.31.51.81.77,1.5.77Z"/>
    <path class="st0" d="M38.1,69.71l-.58-.04c-.41,0-.75.14-1.02.41s-.47.66-.59,1.14v5.64h-.88v-7.94h.78l.1,1.31c.19-.46.43-.82.74-1.08s.66-.39,1.08-.39c.09,0,.19,0,.28.03.09.02.17.04.22.05l-.12.86Z"/>
    <path class="st0" d="M51.08,76.86c-.04-.27-.08-.5-.1-.68-.02-.18-.03-.35-.03-.54-.24.4-.55.72-.94.98-.38.26-.81.39-1.28.39-.66,0-1.16-.2-1.52-.61-.36-.41-.54-.96-.54-1.66,0-.74.26-1.33.78-1.77.52-.44,1.22-.66,2.11-.66h1.39v-.98c0-.56-.14-1-.43-1.32s-.68-.48-1.19-.48c-.47,0-.87.15-1.17.46-.31.3-.46.68-.46,1.12h-.82s-.01-.05-.01-.05c-.02-.6.2-1.13.68-1.6.48-.47,1.09-.7,1.83-.7s1.33.22,1.78.67c.45.45.68,1.09.68,1.92v3.9c0,.28.01.56.04.82.02.26.07.52.13.78h-.92ZM48.84,76.23c.49,0,.92-.14,1.3-.42.38-.28.65-.64.8-1.08v-1.72h-1.41c-.6,0-1.08.17-1.44.51-.36.34-.54.76-.54,1.26,0,.43.11.77.34,1.04.23.27.54.4.95.4Z"/>
    <path class="st0" d="M61.89,76.86v-7.19h-1.07v-.75h1.07v-1.15c0-.8.17-1.42.52-1.86.35-.44.83-.66,1.44-.66.14,0,.28.01.41.04s.28.06.42.11l-.11.74c-.1-.03-.2-.05-.3-.07s-.21-.03-.33-.03c-.39,0-.68.15-.88.45-.2.3-.3.72-.3,1.28v1.15h1.51v.75h-1.51v7.19h-.88Z"/>
    <path class="st0" d="M74.48,66.89v2.03h1.38v.75h-1.38v5.15c0,.51.07.88.22,1.09.15.21.34.32.58.32.12,0,.23,0,.34-.02s.24-.04.38-.07l.12.68c-.12.06-.27.11-.46.14-.19.04-.38.05-.57.05-.47,0-.84-.18-1.1-.53-.27-.35-.4-.91-.4-1.67v-5.15h-1.1v-.75h1.1v-2.03h.89Z"/>
    <path class="st0" d="M87.6,77.02c-.86,0-1.56-.32-2.1-.97s-.81-1.46-.81-2.46v-1.32c0-1,.27-1.84.82-2.5.55-.66,1.2-1,1.97-1,.83,0,1.48.3,1.94.89.46.59.69,1.39.69,2.39v.87h-4.54v.66c0,.77.18,1.41.55,1.92.37.51.86.77,1.49.77.44,0,.81-.08,1.13-.23.32-.15.59-.37.81-.65l.36.62c-.24.31-.55.55-.93.73-.38.18-.84.27-1.37.27ZM87.48,69.55c-.55,0-1.01.25-1.36.76-.35.5-.54,1.13-.55,1.86h3.66v-.34c0-.66-.15-1.2-.46-1.63-.31-.43-.74-.65-1.28-.65Z"/>
    <path class="st0" d="M98.88,72.97c0-1.27.22-2.29.67-3.05.45-.76,1.07-1.14,1.87-1.14.44,0,.82.1,1.14.31.33.21.6.5.82.87v-4.54h.88v11.45h-.78l-.07-1.03c-.22.38-.5.67-.83.88-.33.2-.72.3-1.17.3-.79,0-1.41-.35-1.86-1.06-.45-.71-.67-1.65-.67-2.84v-.15ZM99.78,73.12c0,.95.15,1.71.45,2.27s.76.84,1.38.84c.43,0,.79-.12,1.08-.35.29-.24.52-.56.69-.98v-3.89c-.16-.43-.39-.77-.68-1.04-.29-.27-.65-.4-1.09-.4-.62,0-1.08.31-1.39.94-.3.63-.46,1.45-.46,2.46v.15Z"/>
    <path class="st0" d="M125.8,66.89v2.03h1.38v.75h-1.38v5.15c0,.51.07.88.22,1.09.15.21.34.32.58.32.12,0,.23,0,.34-.02s.24-.04.38-.07l.12.68c-.12.06-.27.11-.46.14-.19.04-.38.05-.57.05-.47,0-.84-.18-1.1-.53-.27-.35-.4-.91-.4-1.67v-5.15h-1.1v-.75h1.1v-2.03h.89Z"/>
    <path class="st0" d="M135.85,72.31c0-1.03.26-1.87.79-2.54.53-.67,1.24-1,2.13-1s1.6.33,2.13,1c.53.66.8,1.51.8,2.54v1.17c0,1.04-.26,1.89-.79,2.55s-1.24.99-2.13.99-1.61-.33-2.14-.99c-.53-.66-.79-1.51-.79-2.55v-1.17ZM136.74,73.49c0,.79.18,1.46.53,1.99.35.53.86.79,1.51.79s1.14-.27,1.5-.8c.36-.53.54-1.19.54-1.98v-1.17c0-.78-.18-1.44-.54-1.97-.36-.53-.86-.8-1.51-.8s-1.15.27-1.51.8c-.35.53-.53,1.19-.53,1.97v1.17Z"/>
    <path class="st0" d="M162.54,76.86h-.89v-11.45h.89v11.45Z"/>
    <path class="st0" d="M171.77,72.31c0-1.03.26-1.87.79-2.54.53-.67,1.24-1,2.13-1s1.6.33,2.13,1c.53.66.8,1.51.8,2.54v1.17c0,1.04-.26,1.89-.79,2.55s-1.24.99-2.13.99-1.61-.33-2.14-.99c-.53-.66-.79-1.51-.79-2.55v-1.17ZM172.66,73.49c0,.79.18,1.46.53,1.99.35.53.86.79,1.51.79s1.14-.27,1.5-.8c.36-.53.54-1.19.54-1.98v-1.17c0-.78-.18-1.44-.54-1.97-.36-.53-.86-.8-1.51-.8s-1.15.27-1.51.8c-.35.53-.53,1.19-.53,1.97v1.17Z"/>
    <path class="st0" d="M188.64,74.86l.18.77h.04l.19-.77,1.7-5.94h.9l-2.47,7.94h-.69l-2.49-7.94h.91l1.73,5.94Z"/>
    <path class="st0" d="M202.93,77.02c-.86,0-1.56-.32-2.1-.97s-.81-1.46-.81-2.46v-1.32c0-1,.27-1.84.82-2.5.55-.66,1.2-1,1.97-1,.83,0,1.48.3,1.94.89.46.59.69,1.39.69,2.39v.87h-4.54v.66c0,.77.18,1.41.55,1.92.37.51.86.77,1.49.77.44,0,.81-.08,1.13-.23.32-.15.59-.37.81-.65l.36.62c-.24.31-.55.55-.93.73-.38.18-.84.27-1.37.27ZM202.81,69.55c-.55,0-1.01.25-1.36.76-.35.5-.54,1.13-.55,1.86h3.66v-.34c0-.66-.15-1.2-.46-1.63-.31-.43-.74-.65-1.28-.65Z"/>
    <path class="st0" d="M227.11,74.68l.21.8h.04l1.88-6.56h.98l-2.83,9.21c-.17.53-.4.98-.68,1.37-.28.38-.68.57-1.21.57-.09,0-.2-.01-.33-.04-.13-.02-.23-.05-.29-.07l.1-.76s.13.02.24.03c.11.01.2.02.25.02.3,0,.54-.14.73-.42.19-.28.34-.62.45-1.03l.33-1.05-2.51-7.84h.98l1.67,5.76Z"/>
    <path class="st0" d="M238.52,72.31c0-1.03.26-1.87.79-2.54.53-.67,1.24-1,2.13-1s1.6.33,2.13,1c.53.66.8,1.51.8,2.54v1.17c0,1.04-.26,1.89-.79,2.55s-1.24.99-2.13.99-1.61-.33-2.14-.99c-.53-.66-.79-1.51-.79-2.55v-1.17ZM239.41,73.49c0,.79.18,1.46.53,1.99.35.53.86.79,1.51.79s1.14-.27,1.5-.8c.36-.53.54-1.19.54-1.98v-1.17c0-.78-.18-1.44-.54-1.97-.36-.53-.86-.8-1.51-.8s-1.15.27-1.51.8c-.35.53-.53,1.19-.53,1.97v1.17Z"/>
    <path class="st0" d="M257.8,75.62c-.21.45-.49.79-.84,1.03s-.75.36-1.22.36c-.7,0-1.25-.28-1.65-.85-.39-.57-.59-1.44-.59-2.64v-4.61h.88v4.63c0,.96.13,1.65.38,2.07.25.41.62.62,1.1.62.5,0,.91-.14,1.23-.41s.54-.64.68-1.12v-5.79h.88v7.94h-.79l-.06-1.24Z"/>
  </g>
</svg>