<?xml version="1.0" encoding="UTF-8"?>
<svg id="Layer_1" xmlns="http://www.w3.org/2000/svg" version="1.1" viewBox="0 0 277 103">
  <!-- Generator: Adobe Illustrator 29.4.0, SVG Export Plug-In . SVG Version: 2.1.0 Build 152)  -->
  <defs>
    <style>
      .st0 {
        fill: #ea6424;
      }

      .st1 {
        fill: #141416;
      }
    </style>
  </defs>
  <path class="st1" d="M146.92,63.45s.04-.03.06-.03c0-.06-.08.05-.06.03Z"/>
  <path class="st1" d="M73.35,48.25c-.27-.62-.71-1.06-1.31-1.31-.31-.15-.63-.22-.96-.22h-2.89s-.03,0-.03,0v13.43c0,.45-.1.77-.31.98-.28.34-.62.51-1.01.51h-13.53c-.54,0-.94-.27-1.2-.8-.08-.18-.12-.36-.12-.51v-13.62h-2.91c-.75,0-1.39.3-1.91.91-.38.45-.57,1.02-.57,1.71l-.12,10.31c0,2.7.6,4.58,1.8,5.65.46.42.92.73,1.37.93.33.16.81.31,1.43.47.83.18,1.38.28,1.65.28.35.03.9.06,1.65.09h11.45c.63,0,1.43-.07,2.4-.2.84-.15,1.47-.31,1.88-.48.42-.17.83-.37,1.23-.63.48-.35.88-.76,1.2-1.23.21-.34.37-.65.48-.94.42-1.08.63-2.36.63-3.83,0-.81-.04-4.41-.13-10.8-.03-.24-.09-.48-.18-.72Z"/>
  <path class="st1" d="M100.99,48.14c-1.11-.07-2.13-.57-2.86-1.4,0,0,0-.01-.01-.02h-15.16c-.69,0-1.34.07-1.94.22-.71.15-1.35.41-1.91.8-.17.1-.36.27-.57.51-.39.42-.67.87-.83,1.34-.32.71-.48,2.01-.48,3.89v.12c0,.78.03,1.37.09,1.77.06.37.13.68.2.94.09.27.18.5.28.69.08.19.2.39.38.6.88,1.16,2.48,1.74,4.82,1.74h14.78c.06,0,.12,0,.18.03.22.09.34.23.34.44v1.53s0,.03,0,.06c0,.03-.02.06-.04.09-.08.22-.23.34-.47.34h-20.58v2.89c0,.57.18,1.08.54,1.5.51.57,1.1.86,1.78.86h18.07c1.95,0,3.41-.35,4.4-1.05,1.22-.85,1.83-2.3,1.83-4.37v-2.09c0-1.14-.2-2.1-.6-2.88-.46-.89-1.21-1.53-2.26-1.94-.33-.13-.75-.23-1.26-.32-.7-.11-1.26-.16-1.68-.16h-.12c-3.21,0-5.4,0-6.55.03-.41,0-.69.01-.85.01-.62,0-3.15,0-7.57.03-.03,0-.05,0-.07,0-.02,0-.04-.01-.07-.02-.22-.1-.34-.28-.34-.54v-1.11c0-.18.05-.33.15-.42.12-.1.25-.15.39-.15.72,0,2.08,0,4.08-.03,1.91,0,4.6,0,8.06-.03,4.4,0,7.28,0,8.65-.03h.03v-2.85c0-.59-.17-1.1-.5-1.53-.7.39-1.49.58-2.31.53Z"/>
  <path class="st1" d="M128.94,54.42l-.03.03h-14.04c-.59,0-1.08-.19-1.46-.57-.38-.39-.57-.84-.57-1.34v-5.81h-3.39c-.26,0-.54.07-.83.22-.7.41-1.05,1.02-1.05,1.83v16.27c0,.57.17,1.03.51,1.4.4.42.87.63,1.4.63h3.36v-7.36h14.11c.63,0,1.15.24,1.56.72.12.18.2.34.26.48.11.2.16.52.16.93v5.23h3.35c.36,0,.7-.1,1.02-.29.59-.41.89-.96.89-1.65v-16.42c0-.51-.16-.95-.48-1.32l-4.78-.48v7.51Z"/>
  <path class="st1" d="M205.32,47.44c-.4-.48-.92-.72-1.55-.72h-9.72s0,.01-.01.02c-.74.84-1.75,1.33-2.87,1.4-1.34.08-2.57-.48-3.4-1.42h-3.99c-.12,0-.2.02-.26.04-.11,0-.27.06-.48.16-.29.15-.55.37-.76.69-.2.35-.31.69-.31,1.01v1.34c0,2.74,0,4.35.01,4.85v10.27c0,.31.06.6.18.88.24.48.61.81,1.11.99.23.08.42.12.55.12h19.91c.43,0,.79-.09,1.08-.28.09-.04.23-.16.44-.37.33-.39.5-.81.5-1.26v-2.94s0-.01-.01-.01h-18.48v-3.11h.01s12.93-.01,12.93-.01v-4.41h-12.96v-2.94h18.51v-3c0-.21-.01-.38-.04-.5-.08-.34-.21-.61-.39-.82Z"/>
  <path class="st1" d="M263.49,50.49c-.21-.29-.56-.71-1.04-1.26-.07-.06-.13-.11-.19-.16-.38-.35-.7-.6-.95-.76-1.53-1.06-3.18-1.59-4.94-1.59h-10.47c-1.68,0-3.26.49-4.75,1.48-.3.18-.66.44-1.08.8-.42.45-.72.78-.91.99-1.28,1.63-1.91,3.44-1.91,5.43v2.94c0,1.7.46,3.27,1.39,4.7.18.32.5.74.98,1.26.48.47.85.8,1.11,1.01,1.59,1.16,3.32,1.74,5.2,1.74h10.42c1.4,0,2.74-.33,4-.99.52-.26,1.02-.6,1.5-1.01.28-.2.64-.55,1.08-1.02,1.39-1.67,2.09-3.59,2.09-5.74v-2.82c0-1.82-.51-3.49-1.53-5ZM259.75,58.16c0,.59-.08,1.08-.23,1.46-.12.27-.28.54-.48.8-.71.93-1.64,1.39-2.78,1.39h-10.24c-.98,0-1.82-.35-2.51-1.05-.29-.32-.47-.57-.53-.75-.3-.48-.45-1.08-.45-1.8v-2.66c0-.55.08-1,.23-1.36.08-.22.22-.48.42-.77.74-.95,1.68-1.43,2.81-1.43h10.3c.62,0,1.2.16,1.74.48.71.42,1.22,1.01,1.52,1.78.14.31.2.78.2,1.42v2.48Z"/>
  <path class="st1" d="M164.43,47.25c0-.15-.01-.31-.01-.46l-3.07.31c-.23.14-.44.31-.64.53-.18.22-.34.48-.5.77-.06.09-.69,1.2-1.9,3.33-.78,1.37-1.8,3.18-3.07,5.41-1.6,2.8-3.47,6.1-5.62,9.91v.02s0,0,.03,0h4.46c.98,0,1.77-.4,2.37-1.2l1.43-2.45s-.04,0-.06.03c-.02.02.07-.08.06-.03l2.43-4.31,4.55-8.05c.06.13,1.56,2.81,4.55,8.05l2.44,4.31h0s.11.17.26.45c.18.33.48.84.88,1.52.56,1.12,1.44,1.68,2.63,1.68h4.5l-1.71-3.05c-.09-.13-1.73-3.02-4.94-8.68-.52-.91-.97-1.71-1.37-2.43-.1-.18-.2-.35-.29-.51-.41.12-.84.21-1.29.23-3.18.2-5.91-2.22-6.11-5.39Z"/>
  <path class="st1" d="M40.8,48.43c-.27-.18-.53-.35-.77-.48-.17-.08-.39-.18-.69-.29-1.45-.62-3.18-.93-5.17-.93h-14.42v5.27h15.34c.2.02.37.03.48.03.36.07.63.15.8.23.03.02.06.03.09.04.11.05.21.11.31.18.65.48.98,1.07.98,1.78,0,.36-.07.68-.2.96-.17.37-.42.67-.77.89-.49.32-1.2.48-2.13.48h-14.88v5.24h6.63c3.03-.02,4.85-.03,5.45-.03.09-.02.15-.03.18-.03l.51.66c1.03,1.31,2.01,2.51,2.94,3.61.25.32.48.55.69.69.06.04.11.07.16.1.05.03.1.06.16.09.2.08.49.12.85.12h6.31c-.03-.06-.12-.16-.28-.31-.51-.56-1.04-1.15-1.59-1.8-.29-.33-.59-.67-.89-1.01-.45-.56-1.28-1.47-2.48-2.72.42-.13.82-.27,1.2-.42.1-.05.2-.1.31-.15.21-.11.45-.23.72-.37.04-.03.08-.05.12-.07.26-.17.48-.31.66-.44l.22-.18.12-.09.15-.15c.12-.11.23-.23.35-.37.24-.26.45-.51.63-.75.2-.32.37-.61.51-.88.44-.93.66-1.91.66-2.95v-.19c0-.87-.15-1.68-.44-2.45-.55-1.44-1.47-2.56-2.76-3.35Z"/>
  <path class="st1" d="M230.22,48.43c-.27-.18-.53-.35-.77-.48-.17-.08-.39-.18-.69-.29-1.45-.62-3.18-.93-5.17-.93h-14.42v5.27h15.34c.2.02.37.03.48.03.36.07.63.15.8.23.03.02.06.03.09.04.11.05.21.11.31.18.65.48.98,1.07.98,1.78,0,.36-.07.68-.2.96-.17.37-.42.67-.77.89-.49.32-1.2.48-2.13.48h-14.88v5.24h6.63c3.03-.02,4.85-.03,5.45-.03.09-.02.15-.03.18-.03l.51.66c1.03,1.31,2.01,2.51,2.94,3.61.25.32.48.55.69.69.06.04.11.07.16.1.05.03.1.06.16.09.2.08.49.12.85.12h6.31c-.03-.06-.12-.16-.28-.31-.51-.56-1.04-1.15-1.59-1.8-.29-.33-.59-.67-.89-1.01-.45-.56-1.28-1.47-2.48-2.72.42-.13.82-.27,1.2-.42.1-.05.2-.1.31-.15.21-.11.45-.23.72-.37.04-.03.08-.05.12-.07.26-.17.48-.31.66-.44l.22-.18.12-.09.15-.15c.12-.11.23-.23.35-.37.24-.26.45-.51.63-.75.2-.32.37-.61.51-.88.44-.93.66-1.91.66-2.95v-.19c0-.87-.15-1.68-.44-2.45-.55-1.44-1.47-2.56-2.76-3.35Z"/>
  <path class="st0" d="M101.43,40.34c-1.56-.1-2.91,1.09-3,2.65-.1,1.56,1.09,2.91,2.65,3,1.56.1,2.91-1.09,3-2.65.1-1.56-1.09-2.91-2.65-3Z"/>
  <path class="st0" d="M190.73,40.34c-1.56.1-2.75,1.44-2.65,3,.1,1.56,1.44,2.75,3,2.65,1.56-.1,2.75-1.44,2.65-3-.1-1.56-1.44-2.75-3-2.65Z"/>
  <path class="st0" d="M194.72,41.61c8.24-.82,16.48-1.65,24.71-2.47,3.42-.34,2.74-2.67,2.71-3.14l-66.2,2.72v-.72c0-2.61-1.03-4.99-2.7-6.76,2.26-.12,4.27-.34,4.83-.8-.73-.59-3.92-.79-6.9-.88-1.02-.62-2.17-1.06-3.39-1.28-.15-5.93-.51-12.63-1.7-14.09-1.18,1.46-1.55,8.15-1.7,14.09-1.22.21-2.37.65-3.39,1.28-2.98.09-6.17.29-6.9.88.56.45,2.57.68,4.83.8-1.67,1.77-2.7,4.15-2.7,6.76v.72l-66.2-2.72c-.03.47-.71,2.8,2.71,3.14,8.24.82,16.48,1.65,24.71,2.47.65-1.59,2.26-2.66,4.07-2.55,1.91.12,3.44,1.53,3.78,3.33,3.85.39,7.71.77,11.56,1.16.99-2,3.11-3.32,5.48-3.17,2.52.16,4.55,1.93,5.16,4.24l9.1.91c1.1,3.66,4.51,6.35,8.52,6.35h1.93c4.01,0,7.42-2.69,8.52-6.35l9.1-.91c.61-2.31,2.64-4.08,5.16-4.24,2.37-.15,4.49,1.17,5.48,3.17,3.85-.39,7.71-.77,11.56-1.16.35-1.8,1.87-3.21,3.78-3.33,1.81-.11,3.42.96,4.07,2.55ZM145.7,38.09c-.78.15-1.4.76-1.57,1.54-2.34-.05-4.52-.53-6.33-1.32v-.31c0-4.42,3.52-8.07,7.9-8.28v8.37ZM154.37,38.31c-1.81.79-3.99,1.27-6.33,1.32-.17-.78-.79-1.39-1.57-1.54v-8.37c4.38.2,7.9,3.85,7.9,8.28v.31Z"/>
  <path class="st0" d="M122.26,41.66c-2.44-.15-4.54,1.7-4.7,4.14-.15,2.44,1.7,4.54,4.14,4.7,2.44.15,4.54-1.7,4.7-4.14.15-2.44-1.7-4.54-4.14-4.7Z"/>
  <path class="st0" d="M174.6,45.8c-.15-2.44-2.26-4.29-4.7-4.14-2.42.15-4.26,2.23-4.14,4.64,0,.02,0,.03,0,.05.15,2.44,2.26,4.29,4.7,4.14.17-.01.33-.03.49-.06,2.19-.38,3.79-2.36,3.65-4.64Z"/>
  <g>
    <path class="st1" d="M71.89,77.1v2.78h-.87v-6.41h2.19c.7,0,1.24.16,1.61.47.37.31.55.76.55,1.36,0,.33-.09.62-.26.86-.17.24-.42.44-.75.58.35.11.61.3.76.56.15.26.23.57.23.95v.6c0,.2.02.38.07.54.04.16.12.29.23.39v.11h-.89c-.11-.1-.19-.25-.22-.44-.03-.19-.05-.39-.05-.6v-.59c0-.35-.1-.63-.3-.84-.2-.21-.47-.32-.81-.32h-1.48ZM71.89,76.42h1.24c.49,0,.84-.09,1.06-.28.22-.19.32-.47.32-.85,0-.36-.11-.64-.32-.84-.21-.2-.54-.3-.98-.3h-1.33v2.27Z"/>
    <path class="st1" d="M91.99,76.9h-2.63v2.29h3.08v.68h-3.95v-6.41h3.9v.68h-3.03v2.07h2.63v.68Z"/>
    <path class="st1" d="M108.61,78.26c0-.29-.1-.53-.31-.73-.21-.2-.58-.36-1.1-.5-.65-.16-1.16-.4-1.53-.71-.37-.31-.55-.71-.55-1.18,0-.5.2-.92.59-1.26.39-.33.9-.5,1.53-.5.68,0,1.21.19,1.61.57.4.38.6.83.58,1.34v.03h-.84c0-.36-.13-.67-.38-.9-.25-.24-.58-.36-.98-.36s-.72.1-.93.3c-.22.2-.32.45-.32.77,0,.28.12.51.35.7.24.19.62.35,1.15.49.65.17,1.14.41,1.48.74.34.33.51.73.51,1.21,0,.52-.2.93-.61,1.25-.41.31-.94.47-1.59.47-.62,0-1.17-.17-1.64-.52s-.7-.81-.69-1.39v-.03h.84c0,.4.15.71.46.93.31.22.65.33,1.03.33.41,0,.74-.09.98-.28.24-.19.36-.44.36-.75Z"/>
    <path class="st1" d="M127.33,77.24c0,.78-.24,1.43-.73,1.95-.49.52-1.12.78-1.89.78s-1.36-.26-1.83-.78c-.47-.52-.7-1.17-.7-1.95v-1.14c0-.78.23-1.43.7-1.95.47-.52,1.08-.78,1.83-.78s1.41.26,1.89.78c.49.52.73,1.17.73,1.95v1.14ZM126.46,76.09c0-.59-.16-1.07-.48-1.44-.32-.38-.74-.56-1.28-.56-.51,0-.91.19-1.21.56-.3.38-.45.86-.45,1.44v1.15c0,.59.15,1.08.45,1.45s.7.56,1.21.56c.54,0,.96-.19,1.28-.56.32-.37.47-.86.47-1.46v-1.15Z"/>
    <path class="st1" d="M145.03,73.47v4.26c0,.7-.23,1.26-.69,1.65-.46.4-1.05.59-1.77.59s-1.27-.2-1.71-.6c-.44-.4-.67-.95-.67-1.65v-4.26h.87v4.26c0,.49.14.87.42,1.15.28.28.64.42,1.09.42.47,0,.85-.14,1.15-.42.3-.28.44-.66.44-1.15v-4.26h.87Z"/>
    <path class="st1" d="M159,77.1v2.78h-.87v-6.41h2.19c.7,0,1.24.16,1.61.47.37.31.55.76.55,1.36,0,.33-.09.62-.26.86-.17.24-.42.44-.75.58.35.11.61.3.76.56.15.26.23.57.23.95v.6c0,.2.02.38.07.54.04.16.12.29.23.39v.11h-.89c-.11-.1-.19-.25-.22-.44-.03-.19-.05-.39-.05-.6v-.59c0-.35-.1-.63-.3-.84-.2-.21-.47-.32-.81-.32h-1.48ZM159,76.42h1.24c.49,0,.84-.09,1.06-.28.22-.19.32-.47.32-.85,0-.36-.11-.64-.32-.84-.21-.2-.54-.3-.98-.3h-1.33v2.27Z"/>
    <path class="st1" d="M180.17,77.83v.03c.02.6-.19,1.11-.63,1.51-.43.41-1.01.61-1.72.61s-1.32-.26-1.77-.77c-.46-.51-.68-1.17-.68-1.96v-1.14c0-.79.23-1.44.68-1.96.46-.52,1.05-.77,1.77-.77s1.3.19,1.73.58c.43.39.64.9.63,1.53v.03h-.84c0-.45-.13-.8-.4-1.07-.26-.26-.64-.39-1.12-.39s-.87.2-1.16.59c-.29.39-.43.87-.43,1.45v1.15c0,.58.14,1.07.43,1.46.29.39.67.59,1.16.59s.85-.13,1.12-.39c.26-.26.4-.62.4-1.08h.83Z"/>
    <path class="st1" d="M196.54,76.9h-2.63v2.29h3.08v.68h-3.95v-6.41h3.9v.68h-3.03v2.07h2.63v.68Z"/>
    <path class="st1" d="M213.16,78.26c0-.29-.1-.53-.31-.73-.21-.2-.58-.36-1.1-.5-.65-.16-1.16-.4-1.53-.71-.37-.31-.55-.71-.55-1.18,0-.5.2-.92.59-1.26.39-.33.9-.5,1.53-.5.68,0,1.21.19,1.61.57.4.38.6.83.58,1.34v.03h-.84c0-.36-.13-.67-.38-.9-.25-.24-.58-.36-.98-.36s-.72.1-.93.3c-.22.2-.32.45-.32.77,0,.28.12.51.35.7.24.19.62.35,1.15.49.65.17,1.14.41,1.48.74.34.33.51.73.51,1.21,0,.52-.2.93-.61,1.25-.41.31-.94.47-1.59.47-.62,0-1.17-.17-1.64-.52-.47-.35-.7-.81-.69-1.39v-.03h.84c0,.4.15.71.46.93.31.22.65.33,1.03.33.41,0,.74-.09.98-.28.24-.19.36-.44.36-.75Z"/>
  </g>
  <rect class="st1" x="216.53" y="77.01" width="47.92" height=".46"/>
  <rect class="st1" x="19.37" y="77.01" width="47.92" height=".46"/>
</svg>